<svg xmlns="http://www.w3.org/2000/svg" viewBox="0 0 128 128"><title>vol-08$set-030@robot-3</title><g id="vol-08_set-030_robot-3" data-name="vol-08$set-030@robot-3"><g id="robot-3"><g id="robot-3-2"><g id="Icons"><path d="M99.08,89.56A110.28,110.28,0,0,0,64,85a130.4829,130.4829,0,0,0-34.96,4.56C22.18,91.28,23.2,91.46,20,101a103.999,103.999,0,0,0,44,10,104.5589,104.5589,0,0,0,44-10C106,95.86,105.3,91.12,99.08,89.56Z" fill="#edd183"></path><path d="M41.76,86.8,66,111a105.06,105.06,0,0,0,42-10c-2-5.14-2.7-9.88-8.92-11.44A110.28,110.28,0,0,0,64,85,127.5913,127.5913,0,0,0,41.76,86.8Z" fill="#ceaa6a"></path><path d="M99.08,95.58A110.2817,110.2817,0,0,0,64,91a130.4829,130.4829,0,0,0-34.96,4.56c-5.28,1.32-5.9,1.76-7.36,6.22A105.4187,105.4187,0,0,0,64,111a107.5009,107.5009,0,0,0,42.12-9.06A9.68,9.68,0,0,0,99.08,95.58Z" fill="#ceaa6a"></path><path d="M99.08,95.58A110.2817,110.2817,0,0,0,64,91a132.2478,132.2478,0,0,0-17,1.02L66,111a108.6413,108.6413,0,0,0,38.56-8.3h0l1.22-.54.28-.12h0A9.68,9.68,0,0,0,99.08,95.58Z" fill="#bc965b"></path><path d="M78.78,87.16v-1.6c-4-.36-8.6-.56-14.7-.56a137.5641,137.5641,0,0,0-14.92.76v1.38a14.9,14.9,0,0,0,29.78,0Z" fill="#ad844d"></path><path d="M64.0117,113a106.7211,106.7211,0,0,1-44.8672-10.1924,2,2,0,0,1-1.041-2.4438c.4619-1.3775.836-2.5576,1.1572-3.5747,2.0831-6.5889,2.7354-7.5249,9.293-9.169A131.86,131.86,0,0,1,64.0117,83a111.7775,111.7775,0,0,1,35.6,4.6313c6.3,1.5992,7.8994,6.0977,9.4473,10.4483.2549.7173.5156,1.4516.8057,2.1953a2,2,0,0,1-1.0108,2.5337A107.2756,107.2756,0,0,1,64.0117,113ZM22.457,99.9331A102.7112,102.7112,0,0,0,64.01,109a103.2739,103.2739,0,0,0,41.4716-9.0415q-.0966-.2711-.1914-.5386c-1.4677-4.126-2.4375-6.8515-6.6962-7.92-.0293-.0073-.0577-.0151-.086-.0234A108.0436,108.0436,0,0,0,64.0635,86.999,128.3691,128.3691,0,0,0,29.5645,91.49c-4.8155,1.2071-4.8155,1.2071-6.49,6.5049C22.8877,98.585,22.6846,99.2285,22.457,99.9331Z" fill="#333"></path><path d="M64,97h0A10,10,0,0,1,54,87V77H74V87A10,10,0,0,1,64,97Z" fill="#959fa0"></path><path d="M64,84.0034c-4.5762,0-9.1514-.7637-10.7021-2.291l1.4042-1.4248c2.3458,2.3115,16.25,2.3115,18.5958,0l1.4042,1.4248C73.1514,83.24,68.5762,84.0034,64,84.0034Z" fill="#5d6268"></path><path d="M64,88.0034c-4.5762,0-9.1514-.7637-10.7021-2.291l1.4042-1.4248c2.3458,2.3115,16.25,2.3115,18.5958,0l1.4042,1.4248C73.1514,87.24,68.5762,88.0034,64,88.0034Z" fill="#5d6268"></path><path d="M64,92.0034c-4.5762,0-9.1514-.7637-10.7021-2.291l1.4042-1.4248c2.3458,2.3115,16.25,2.3115,18.5958,0l1.4042,1.4248C73.1514,91.24,68.5762,92.0034,64,92.0034Z" fill="#5d6268"></path><path d="M88,77H40A16,16,0,0,1,24,61V47A16,16,0,0,1,40,31H88a16,16,0,0,1,16,16V61A16,16,0,0,1,88,77Z" fill="#edd183"></path><path d="M42,37A12,12,0,0,0,30,49V67a15.8,15.8,0,0,0,2.1,8A16,16,0,0,0,40,77H88a16,16,0,0,0,16-16V47a15.8,15.8,0,0,0-2-8,16,16,0,0,0-8-2Z" fill="#ceaa6a"></path><circle cx="81.26" cy="51.44" r="7.5" fill="#bc965b"></circle><circle cx="80" cy="49.02" r="7.5" fill="#bc965b"></circle><path d="M80,57.52a8.5,8.5,0,1,1,8.5-8.5A8.51,8.51,0,0,1,80,57.52Zm0-15a6.5,6.5,0,1,0,6.5,6.5A6.5075,6.5075,0,0,0,80,42.52Z" fill="#b58c55"></path><path d="M72,71H56a4,4,0,0,1-4-4V63H76v4A4,4,0,0,1,72,71Z" fill="#959fa0"></path><path d="M76,66.02H55v4a4.6,4.6,0,0,0,.1.9A4.28,4.28,0,0,0,56,71H72a4,4,0,0,0,4-4Z" fill="#acbbbc"></path><rect x="55.5" y="63.02" width="1" height="8" fill="#808c93"></rect><rect x="59.5" y="63.02" width="1" height="8" fill="#808c93"></rect><rect x="63.5098" y="63.02" width="1" height="8" transform="translate(-0.1634 0.1565) rotate(-0.1399)" fill="#808c93"></rect><rect x="67.5098" y="63.02" width="1" height="8" transform="translate(-0.1634 0.1662) rotate(-0.1399)" fill="#808c93"></rect><rect x="71.5098" y="63.02" width="1" height="8" transform="translate(-0.1634 0.176) rotate(-0.1399)" fill="#808c93"></rect><rect x="62" y="25.02" width="4" height="5.8799" fill="#333"></rect><circle cx="63.92" cy="21" r="4" fill="#a6b1b2"></circle><path d="M64,19.84a3.7,3.7,0,0,0-3.54,2.58,3.72,3.72,0,0,0,7.08,0A3.7,3.7,0,0,0,64,19.84Z" fill="#959fa0"></path><path d="M63.92,26.5a5.5,5.5,0,1,1,5.5-5.5A5.5066,5.5066,0,0,1,63.92,26.5Zm0-8a2.5,2.5,0,1,0,2.5,2.5A2.5026,2.5026,0,0,0,63.92,18.5Z" fill="#333"></path><circle cx="80" cy="49.02" r="6" fill="#73c689"></circle><path d="M76,53a4.7992,4.7992,0,0,0,0,.56A6,6,0,0,0,86,49a4.7992,4.7992,0,0,0,0-.56A6,6,0,0,0,76,53Z" fill="#65b779"></path><path d="M80,56.52a7.5,7.5,0,1,1,7.5-7.5A7.5082,7.5082,0,0,1,80,56.52Zm0-12a4.5,4.5,0,1,0,4.5,4.5A4.505,4.505,0,0,0,80,44.52Z" fill="#333"></path><circle cx="49.26" cy="51.44" r="7.5" fill="#bc965b"></circle><circle cx="48" cy="49.02" r="7.5" fill="#bc965b"></circle><path d="M48,57.52a8.5,8.5,0,1,1,8.5-8.5A8.51,8.51,0,0,1,48,57.52Zm0-15a6.5,6.5,0,1,0,6.5,6.5A6.5075,6.5075,0,0,0,48,42.52Z" fill="#b58c55"></path><circle cx="48" cy="49.02" r="6" fill="#73c689"></circle><path d="M44,53a4.7992,4.7992,0,0,0,0,.56A6,6,0,0,0,54,49a4.7992,4.7992,0,0,0,0-.56A6,6,0,0,0,44,53Z" fill="#65b779"></path><path d="M48,56.52a7.5,7.5,0,1,1,7.5-7.5A7.5082,7.5082,0,0,1,48,56.52Zm0-12a4.5,4.5,0,1,0,4.5,4.5A4.505,4.505,0,0,0,48,44.52Z" fill="#333"></path><rect x="26" y="66.52" width="23" height="1" fill="#333"></rect><rect x="79" y="66.52" width="23" height="1" fill="#333"></rect><rect x="63.5" y="97" width="1" height="14" fill="#333"></rect><rect x="37.4404" y="95.2598" width="4.7793" height="1" fill="#333"></rect><rect x="37.4404" y="97.3398" width="4.7793" height="1" fill="#333"></rect><rect x="37.4404" y="99.4399" width="4.7793" height="1" fill="#333"></rect><path d="M72,72.5H56A5.5066,5.5066,0,0,1,50.5,67V63A1.5,1.5,0,0,1,52,61.5H76A1.5,1.5,0,0,1,77.5,63v4A5.5066,5.5066,0,0,1,72,72.5Zm-18.5-8V67A2.5026,2.5026,0,0,0,56,69.5H72A2.5026,2.5026,0,0,0,74.5,67V64.5Z" fill="#333"></path><path d="M88,79H40A18.0206,18.0206,0,0,1,22,61V47A18.0206,18.0206,0,0,1,40,29H88a18.0206,18.0206,0,0,1,18,18V61A18.0206,18.0206,0,0,1,88,79ZM40,33A14.0158,14.0158,0,0,0,26,47V61A14.0158,14.0158,0,0,0,40,75H88a14.0158,14.0158,0,0,0,14-14V47A14.0158,14.0158,0,0,0,88,33Z" fill="#333"></path><path d="M64,99A12.0134,12.0134,0,0,1,52,87V77a2,2,0,0,1,2-2H74a2,2,0,0,1,2,2V87A12.0134,12.0134,0,0,1,64,99ZM56,79v8a8,8,0,0,0,16,0V79Z" fill="#333"></path></g></g></g></g></svg>