<svg xmlns="http://www.w3.org/2000/svg" viewBox="0 0 128 128"><title>vol-08$set-030@robot-2</title><g id="vol-08_set-030_robot-2" data-name="vol-08$set-030@robot-2"><g id="robot-2"><g id="robot-2-2"><g id="Icons"><path d="M104,100H24V90A16,16,0,0,1,40,74H88a16,16,0,0,1,16,16Z" fill="#708eba"></path><path d="M92,78H40A12,12,0,0,0,28,90v10h76V90a15.74,15.74,0,0,0-2.88-9.12A15.74,15.74,0,0,0,92,78Z" fill="#4a6199"></path><path d="M104,101.5H24a1.5,1.5,0,0,1-1.5-1.5V90A17.52,17.52,0,0,1,40,72.5H88A17.52,17.52,0,0,1,105.5,90v10A1.5,1.5,0,0,1,104,101.5Zm-78.5-3h77V90A14.5167,14.5167,0,0,0,88,75.5H40A14.5167,14.5167,0,0,0,25.5,90Z" fill="#333"></path><path d="M115.22,103.48a12.4,12.4,0,0,0-9.12-9.6,244.5571,244.5571,0,0,0-42-3.9,239.1361,239.1361,0,0,0-42,4,11.68,11.68,0,0,0-9.12,9.6L12,108l.2.12C28,115.1,45.64,118,64,118a128.461,128.461,0,0,0,52-10h0Z" fill="#7cbdd6"></path><path d="M106,99.48,96.46,97.1a134.0024,134.0024,0,0,0-32.38-4H64a133.7812,133.7812,0,0,0-32.38,4L22,99.48a13.26,13.26,0,0,0-9.1,8.96C28.54,115.2,46,118,64,118a128.58,128.58,0,0,0,51.18-9.6A13.16,13.16,0,0,0,106,99.48Z" fill="#61a6c9"></path><path d="M63.3467,120.0015A138.2267,138.2267,0,0,1,11.25,109.854a1.9989,1.9989,0,0,1-1.2021-2.2871l.9677-4.3623a13.7565,13.7565,0,0,1,10.67-11.1812A237.17,237.17,0,0,1,64.09,87.98a243.2778,243.2778,0,0,1,42.3682,3.9321,13.65,13.65,0,0,1,10.7344,11.24l.7783,4.5078a2.0008,2.0008,0,0,1-1.2236,2.1958A140.171,140.171,0,0,1,63.9941,120C63.7793,120.001,63.5615,120.0015,63.3467,120.0015Zm-49.0254-13.231a134.3175,134.3175,0,0,0,49.67,9.23c.1309.0005.2637.0005.3955.0005a135.5032,135.5032,0,0,0,49.3662-9.2617l-.5039-2.9185-.0039-.0229a9.6581,9.6581,0,0,0-7.5635-7.962A239.127,239.127,0,0,0,64.09,91.98a233.0028,233.0028,0,0,0-41.622,3.9658,9.7209,9.7209,0,0,0-7.5117,7.9468c-.0069.04-.0147.0805-.0235.1206Z" fill="#333"></path><path d="M50,70V84.12A14,14,0,0,0,64,97.98h0A14,14,0,0,0,78,84.12V70Z" fill="#6ad3b8"></path><path d="M50,74.2,71.72,95.68A13.82,13.82,0,0,0,78,84.12V70H50Z" fill="#65bca6"></path><path d="M64,86.5c-10.1514,0-14.2471-5.9688-14.416-6.2227l.831-.5556C50.4541,79.78,54.4111,85.5,64,85.5c9.6211,0,13.5459-5.72,13.584-5.7773l.832.5546C78.2471,80.5312,74.1514,86.5,64,86.5Z" fill="#51a58d"></path><path d="M64,90.5c-10.1514,0-14.2471-5.9688-14.416-6.2227l.831-.5556C50.4541,83.78,54.4111,89.5,64,89.5c9.6211,0,13.5459-5.72,13.584-5.7773l.832.5546C78.2471,84.5312,74.1514,90.5,64,90.5Z" fill="#51a58d"></path><path d="M64,94.5c-10.1514,0-14.2471-5.9688-14.416-6.2227l.831-.5556C50.4541,87.78,54.4111,93.5,64,93.5c9.6211,0,13.5459-5.72,13.584-5.7773l.832.5546C78.2471,88.5312,74.1514,94.5,64,94.5Z" fill="#51a58d"></path><path d="M63.99,80.61c-5.0507,0-11.1875-.74-13.2636-2.8164l.707-.7071c1.51,1.5093,6.5557,2.5235,12.5566,2.5235s11.0469-1.0142,12.5567-2.5235l.707.7071C75.1768,79.87,69.04,80.61,63.99,80.61Z" fill="#5d6268"></path><path d="M64.001,99.98H64A16.0518,16.0518,0,0,1,48,84.14V70a2,2,0,0,1,2-2H78a2,2,0,0,1,2,2V84.12A16.0562,16.0562,0,0,1,64.001,99.98ZM52,72V84.12a12.0007,12.0007,0,0,0,24-.02V72Z" fill="#333"></path><circle cx="64" cy="108" r="10" fill="#61a6c9"></circle><path d="M56.72,110.1A10.68,10.68,0,0,1,67.4,99.42a10.82,10.82,0,0,1,4.76,1.12A10.68,10.68,0,1,0,59.24,117,10.6,10.6,0,0,1,56.72,110.1Z" fill="#7cbdd6"></path><circle cx="64" cy="108" r="4" fill="#81e2c7"></circle><path d="M62,110a3.999,3.999,0,0,0,.36,1.64,3.9848,3.9848,0,0,0,5.28-5.28A3.9848,3.9848,0,0,0,62,110Z" fill="#6ad3b8"></path><path d="M64,113a5,5,0,1,1,5-5A5.0059,5.0059,0,0,1,64,113Zm0-8a3,3,0,1,0,3,3A3.0033,3.0033,0,0,0,64,105Z" fill="#333"></path><path d="M64,120a12,12,0,1,1,12-12A12.0134,12.0134,0,0,1,64,120Zm0-20a8,8,0,1,0,8,8A8.0092,8.0092,0,0,0,64,100Z" fill="#333"></path><path d="M64,17.86c-16.96,0-22.7,9.02-22.58,20.74a42.3081,42.3081,0,0,0,.22,4.54l2.1,15.64c.2,11.72,7.64,16,9.46,18.56A12.3,12.3,0,0,0,64,81.9a12.3,12.3,0,0,0,10.8-4.56c1.82-2.46,9.26-6.84,9.46-18.56l2-15.64a42.3081,42.3081,0,0,0,.22-4.54C86.7,26.88,80.96,17.86,64,17.86Z" fill="#61a6c9"></path><path d="M48.18,62.02,46,46.38a42.3081,42.3081,0,0,1-.22-4.54C45.64,27.62,51.42,21.1,68.36,21.1A31.0207,31.0207,0,0,1,82.2,24.46c-3.5-3.82-9.32-6.6-18.28-6.6-16.96,0-22.7,9.02-22.58,20.74a42.2822,42.2822,0,0,0,.22,4.54l2.1,15.64c.2,11.72,7.64,16,9.46,18.56a8.44,8.44,0,0,0,4.4,3.18C55.72,78.06,48.38,73.66,48.18,62.02Z" fill="#7cbdd6"></path><path d="M44,55.92v5.66c1.22,9.62,7.58,13.5,9.24,15.76.26.34.54.62.8.92V66a9.8,9.8,0,0,0-9.5129-10.079Q44.2637,55.9135,44,55.92Z" fill="#708eba"></path><path d="M44.2,61.44C45.42,71,51.78,75,53.44,77.2c.18.24.36.46.56.68v-6.4A10,10,0,0,0,44.2,61.44Z" fill="#61a6c9"></path><path d="M62.7891,83.959a14.2463,14.2463,0,0,1-11.1514-5.37c-.0234-.0293-.0459-.06-.0674-.09a15.3822,15.3822,0,0,0-1.501-1.5844c-2.8388-2.7774-8.1142-7.9375-8.3261-17.982l-2.086-15.5264A44.86,44.86,0,0,1,39.42,38.59c-.0713-6.9814,1.8379-12.5029,5.6758-16.38,4.17-4.2134,10.53-6.35,18.9043-6.35,8.4014,0,14.7695,2.1479,18.9268,6.3842,3.8164,3.8882,5.6845,9.4038,5.5537,16.3936a44.06,44.06,0,0,1-.2315,4.707L86.2578,58.9263c-.2129,10.1611-5.5566,15.3413-8.4326,18.1289a15.8307,15.8307,0,0,0-1.418,1.4741A14.283,14.283,0,0,1,64,83.9082C63.5957,83.9419,63.19,83.959,62.7891,83.959ZM64,79.9c.0645,0,.13.0029.1943.0093a10.2576,10.2576,0,0,0,9.043-3.8184,17.4761,17.4761,0,0,1,1.8047-1.9077c2.8154-2.73,7.0713-6.855,7.2178-15.4375a2.0556,2.0556,0,0,1,.0166-.22l2-15.64a40.3878,40.3878,0,0,0,.2041-4.2758c.11-5.9239-1.3731-10.4712-4.4082-13.5645C76.6943,21.6045,71.2871,19.86,64,19.86c-7.2666,0-12.67,1.7373-16.0615,5.1635C44.88,28.1138,43.3594,32.6748,43.42,38.58a40.9325,40.9325,0,0,0,.209,4.3569l2.0938,15.5772a2.2971,2.2971,0,0,1,.0175.2319c.1446,8.48,4.3457,12.59,7.126,15.3091a17.85,17.85,0,0,1,1.9268,2.0737,10.2648,10.2648,0,0,0,9.0127,3.7808C63.87,79.9028,63.9355,79.9,64,79.9Z" fill="#333"></path><path d="M74,48a3,3,0,1,0,3,3,3.08,3.08,0,0,0-3-3" fill="#6ad3b8"></path><path d="M74,55.5a4.5,4.5,0,0,1,0-9l.0381.0005a4.5766,4.5766,0,0,1,4.4609,4.4609A4.5119,4.5119,0,0,1,74,55.5Zm-.0195-6A1.5,1.5,0,1,0,75.5,51,1.571,1.571,0,0,0,73.9805,49.5Z" fill="#333"></path><path d="M54,48a3,3,0,1,0,3,3,3.08,3.08,0,0,0-3-3" fill="#6ad3b8"></path><path d="M54,55.5a4.5,4.5,0,0,1,0-9l.0381.0005a4.5766,4.5766,0,0,1,4.4609,4.4609A4.5119,4.5119,0,0,1,54,55.5Zm-.02-6A1.5,1.5,0,1,0,55.5,51,1.571,1.571,0,0,0,53.9805,49.5Z" fill="#333"></path><path d="M64,13.98a29.8794,29.8794,0,0,0-10,2v12a10,10,0,0,0,20,0v-12A29.3993,29.3993,0,0,0,64,13.98Z" fill="#61a6c9"></path><path d="M54,16V28A10,10,0,0,0,64,38h0a3.7,3.7,0,0,0-2.48-3.44A6.9,6.9,0,0,1,57,28V18.16A23.04,23.04,0,0,1,64,17a27.18,27.18,0,0,1,9.04,1.86L74,16a29.3993,29.3993,0,0,0-10-2A29.3993,29.3993,0,0,0,54,16Z" fill="#86c7e0"></path><path d="M64,39.48a11.5131,11.5131,0,0,1-11.5-11.5v-12a1.4993,1.4993,0,0,1,.959-1.3989,31.299,31.299,0,0,1,10.5019-2.1006c.0245,0,.0518,0,.0733,0a30.8139,30.8139,0,0,1,10.5107,2.102A1.5,1.5,0,0,1,75.5,15.98v12A11.5131,11.5131,0,0,1,64,39.48ZM55.5,17.0278V27.98a8.5,8.5,0,0,0,17,0V17.0249a27.8007,27.8007,0,0,0-8.498-1.5444A28.2941,28.2941,0,0,0,55.5,17.0278Z" fill="#333"></path><path d="M64,56.98a1,1,0,0,1-1-1V38.72a1,1,0,0,1,2,0V55.98A1,1,0,0,1,64,56.98Z" fill="#333"></path><path d="M54,79.3a1,1,0,0,1-.7559-.3452l-.2529-.2827c-.1973-.2158-.3955-.4365-.5859-.6851a16.1753,16.1753,0,0,0-1.5147-1.5854c-2.5361-2.461-6.7812-6.58-7.8808-14.26A.972.972,0,0,1,43,62V56a1,1,0,0,1,1-1A11.0125,11.0125,0,0,1,55,66V78.3a1,1,0,0,1-1,1ZM45,61.9282c1.0176,6.9585,4.7871,10.6153,7.2842,13.0381.2519.2451.4931.4785.7158.7017V66a9.0129,9.0129,0,0,0-8-8.9448Z" fill="#333"></path><path d="M84,55.92v5.66c-1.22,9.62-7.58,13.5-9.24,15.76-.26.34-.54.62-.8.92V66a9.8,9.8,0,0,1,9.5129-10.079Q83.7363,55.9135,84,55.92Z" fill="#708eba"></path><path d="M83.8,61.44C82.58,71,76.22,75,74.56,77.2c-.18.24-.36.46-.56.68v-6.4A10,10,0,0,1,83.8,61.44Z" fill="#61a6c9"></path><path d="M74,79.3a1,1,0,0,1-1-1V66A11.0125,11.0125,0,0,1,84,55a1,1,0,0,1,1,1v6a.972.972,0,0,1-.01.1416c-1.1,7.68-5.3447,11.7988-7.8808,14.26a16.2349,16.2349,0,0,0-1.5088,1.5776c-.1963.2564-.3945.4771-.5918.6929l-.2529.2827A1,1,0,0,1,74,79.3Zm9-22.2446A9.0129,9.0129,0,0,0,75,66v9.668c.2227-.2232.4629-.4566.7158-.7017,2.4971-2.4228,6.2666-6.08,7.2842-13.0381Z" fill="#333"></path><path d="M41.14,38.72,34,46V57.84l9.56,4.3S44.32,45.46,41.14,38.72Z" fill="#708eba"></path><polygon points="38 41.52 34 46 34.02 57.84 38 59.62 38 41.52" fill="#89a5c6"></polygon><path d="M43.56,64.14a1.9914,1.9914,0,0,1-.82-.1762l-9.56-4.3A2,2,0,0,1,32,57.84V46a1.9978,1.9978,0,0,1,.5723-1.4l7.14-7.28a2,2,0,0,1,3.2363.5469C46.3027,44.9736,45.59,61.53,45.5576,62.2314A2,2,0,0,1,43.56,64.14ZM36,56.5464l5.6377,2.5361c.0459-4.644-.1758-11.8252-1.3477-16.64L36,46.8169Z" fill="#333"></path><rect x="38" y="51" width="4" height="2" fill="#333"></rect><path d="M86.86,38.72,94,46V57.84l-9.56,4.3S83.68,45.46,86.86,38.72Z" fill="#708eba"></path><polygon points="90 41.52 94 46 93.98 57.84 90 59.62 90 41.52" fill="#89a5c6"></polygon><path d="M84.44,64.14a2,2,0,0,1-1.998-1.9087c-.0322-.7016-.7451-17.2578,2.6094-24.3647a2,2,0,0,1,3.2363-.5469l7.14,7.28A1.9978,1.9978,0,0,1,96,46V57.84a2,2,0,0,1-1.18,1.8238l-9.56,4.3A1.9914,1.9914,0,0,1,84.44,64.14ZM87.709,42.4424c-1.1729,4.8159-1.3936,11.9975-1.3467,16.64L92,56.5464v-9.73Z" fill="#333"></path><rect x="94" y="50.5" width="6" height="3" fill="#333"></rect><circle cx="103" cy="52" r="3" fill="#6ad3b8"></circle><path d="M103,56.5a4.5,4.5,0,1,1,4.5-4.5A4.505,4.505,0,0,1,103,56.5Zm0-6a1.5,1.5,0,1,0,1.5,1.5A1.5017,1.5017,0,0,0,103,50.5Z" fill="#333"></path><rect x="28" y="50.5" width="6" height="3" fill="#333"></rect><circle cx="25" cy="52" r="3" fill="#6ad3b8"></circle><path d="M25,56.5A4.5,4.5,0,1,1,29.5,52,4.505,4.505,0,0,1,25,56.5Zm0-6A1.5,1.5,0,1,0,26.5,52,1.5017,1.5017,0,0,0,25,50.5Z" fill="#333"></path><rect x="86" y="51" width="4" height="2" fill="#333"></rect><rect x="57" y="66" width="2" height="4" fill="#333"></rect><rect x="61" y="66" width="2" height="4" fill="#333"></rect><rect x="65" y="66" width="2" height="4" fill="#333"></rect><rect x="69" y="66" width="2" height="4" fill="#333"></rect><path d="M64,32h0a4,4,0,0,1-4-4V13a4,4,0,0,1,4-4h0a4,4,0,0,1,4,4V28A4,4,0,0,1,64,32Z" fill="#61a6c9"></path><path d="M65,12a2,2,0,0,1,2,2V28a4,4,0,0,1-4,4h0V14a2,2,0,0,1,2-2" fill="#6d9dc9"></path><path d="M64,33.5A5.5066,5.5066,0,0,1,58.5,28V13a5.5,5.5,0,0,1,11,0V28A5.5066,5.5066,0,0,1,64,33.5Zm0-23A2.5026,2.5026,0,0,0,61.5,13V28a2.5,2.5,0,0,0,5,0V13A2.5026,2.5026,0,0,0,64,10.5Z" fill="#333"></path><path d="M50,96H36V90a6,6,0,0,1,6-6h8Z" fill="#61a6c9"></path><path d="M42,84a6,6,0,0,0-6,6v3.86A6.2,6.2,0,0,1,42,88h8V84Z" fill="#7cbdd6"></path><path d="M52,96H48V86H42a4.0042,4.0042,0,0,0-4,4v6H34V90a8.0092,8.0092,0,0,1,8-8h8a2,2,0,0,1,2,2Z" fill="#333"></path><rect x="40" y="89.5" width="6" height="1" fill="#333"></rect><rect x="40" y="91.5" width="6" height="1" fill="#333"></rect><rect x="40" y="93.5" width="6" height="1" fill="#333"></rect><path d="M78,96H92V90a6,6,0,0,0-6-6H78Z" fill="#61a6c9"></path><path d="M86,84a6,6,0,0,1,6,6v3.86A6.2,6.2,0,0,0,86,88H78V84Z" fill="#7cbdd6"></path><path d="M94,96H90V90a4.0042,4.0042,0,0,0-4-4H80V96H76V84a2,2,0,0,1,2-2h8a8.0092,8.0092,0,0,1,8,8Z" fill="#333"></path><rect x="82" y="89.5" width="6" height="1" fill="#333"></rect><rect x="82" y="91.5" width="6" height="1" fill="#333"></rect><rect x="82" y="93.5" width="6" height="1" fill="#333"></rect><path d="M56.001,119a1,1,0,0,1-.8418-.4585l-3.3-5.12a9.2965,9.2965,0,0,0-5.84-3.8613l-2.2226-.461a15.353,15.353,0,0,1-10.6934-8.1953l-4.0078-8.4766a1,1,0,0,1,1.8086-.8544l4,8.46a13.3351,13.3351,0,0,0,9.291,7.1065l2.2276.4619a11.3,11.3,0,0,1,7.1025,4.7138l3.3154,5.1436A1,1,0,0,1,56.001,119Z" fill="#333"></path><path d="M71.999,119a1,1,0,0,1-.84-1.5415l3.3-5.12A11.3192,11.3192,0,0,1,81.58,107.6l2.2168-.459a13.3474,13.3474,0,0,0,9.3066-7.125l3.9922-8.4433a1,1,0,0,1,1.8086.8544l-4,8.46a15.3658,15.3658,0,0,1-10.709,8.2139l-2.2119.458a9.3154,9.3154,0,0,0-5.8584,3.8857l-3.2842,5.0967A1,1,0,0,1,71.999,119Z" fill="#333"></path></g></g></g></g></svg>