<?xml version="1.0" encoding="UTF-8"?>
<!DOCTYPE svg PUBLIC "-//W3C//DTD SVG 1.1//EN" "http://www.w3.org/Graphics/SVG/1.1/DTD/svg11.dtd">
<svg xmlns="http://www.w3.org/2000/svg" version="1.1" width="5000px" height="1780px" style="shape-rendering:geometricPrecision; text-rendering:geometricPrecision; image-rendering:optimizeQuality; fill-rule:evenodd; clip-rule:evenodd" xmlns:xlink="http://www.w3.org/1999/xlink">
<g><path style="opacity:0.993" fill="#0377cc" d="M 2147.5,476.5 C 2172.17,476.5 2196.83,476.5 2221.5,476.5C 2221.33,543.167 2221.5,609.834 2222,676.5C 2253.81,647.691 2291.31,632.191 2334.5,630C 2376.74,626.034 2416.08,634.701 2452.5,656C 2489.45,682.688 2510.95,718.855 2517,764.5C 2517.85,770.814 2518.51,777.147 2519,783.5C 2519.5,867.499 2519.67,951.499 2519.5,1035.5C 2494.83,1035.5 2470.17,1035.5 2445.5,1035.5C 2445.67,959.499 2445.5,883.499 2445,807.5C 2445.81,780.717 2439.14,756.05 2425,733.5C 2412.6,718.121 2396.77,707.955 2377.5,703C 2339.31,694.106 2303.31,699.439 2269.5,719C 2245.46,736.554 2230.63,760.054 2225,789.5C 2223.44,797.766 2222.44,806.099 2222,814.5C 2221.5,888.166 2221.33,961.833 2221.5,1035.5C 2196.59,1035.83 2171.76,1035.49 2147,1034.5C 2146.81,844.508 2146.98,658.508 2147.5,476.5 Z"/></g>
<g><path style="opacity:0.988" fill="#0377cc" d="M 3353.5,476.5 C 3378.5,476.5 3403.5,476.5 3428.5,476.5C 3428.33,544.834 3428.5,613.167 3429,681.5C 3465.58,646.307 3509.42,628.974 3560.5,629.5C 3633.3,629.309 3690.13,658.976 3731,718.5C 3757.18,763.744 3766.85,812.41 3760,864.5C 3749.8,939.671 3710.3,992.837 3641.5,1024C 3605.95,1037.38 3569.28,1041.72 3531.5,1037C 3490.57,1031.29 3455.74,1013.79 3427,984.5C 3426.5,1001.5 3426.33,1018.5 3426.5,1035.5C 3402.17,1035.5 3377.83,1035.5 3353.5,1035.5C 3353.5,849.167 3353.5,662.833 3353.5,476.5 Z M 3547.5,697.5 C 3604.93,695.284 3647.1,719.284 3674,769.5C 3689.74,808.372 3691.07,847.705 3678,887.5C 3655.68,941.115 3615.35,968.782 3557,970.5C 3507.71,969.536 3470.38,948.203 3445,906.5C 3424.5,863.853 3422.17,820.186 3438,775.5C 3459.09,727.921 3495.59,701.921 3547.5,697.5 Z"/></g>
<g><path style="opacity:0.989" fill="#0377cc" d="M 1856.5,502.5 C 1910.16,499.066 1961.16,508.9 2009.5,532C 2036.38,545.876 2059.38,564.543 2078.5,588C 2062.37,605.126 2045.87,621.959 2029,638.5C 1989.3,594.496 1939.64,572.83 1880,573.5C 1801.73,573.951 1742.39,607.284 1702,673.5C 1672.87,731.095 1669.87,790.095 1693,850.5C 1727.55,922.224 1784.71,961.39 1864.5,968C 1929.73,972.658 1984.4,951.158 2028.5,903.5C 2045.15,919.653 2061.65,935.986 2078,952.5C 2077.25,954.976 2075.92,957.309 2074,959.5C 2035.63,1000.77 1988.46,1025.94 1932.5,1035C 1856.84,1048.25 1786.18,1035.25 1720.5,996C 1642.03,942.079 1602.36,867.079 1601.5,771C 1602.92,670.773 1645.59,594.106 1729.5,541C 1769.02,518.548 1811.35,505.714 1856.5,502.5 Z"/></g>
<g><path style="opacity:0.989" fill="#0277cc" d="M 441.5,506.5 C 585.5,506.5 729.5,506.5 873.5,506.5C 873.5,529.833 873.5,553.167 873.5,576.5C 814.5,576.5 755.5,576.5 696.5,576.5C 696.5,729.5 696.5,882.5 696.5,1035.5C 670.833,1035.5 645.167,1035.5 619.5,1035.5C 619.5,882.5 619.5,729.5 619.5,576.5C 560.167,576.5 500.833,576.5 441.5,576.5C 441.5,553.167 441.5,529.833 441.5,506.5 Z"/></g>
<g><path style="opacity:0.987" fill="#0377cc" d="M 935.5,506.5 C 1006.17,506.333 1076.83,506.5 1147.5,507C 1193.27,507.106 1235.93,518.44 1275.5,541C 1328.71,576.234 1355.04,626.068 1354.5,690.5C 1353.81,769.439 1317.47,824.605 1245.5,856C 1288.2,915.236 1330.54,974.736 1372.5,1034.5C 1343.51,1035.67 1314.51,1035.83 1285.5,1035C 1247.5,981.333 1209.5,927.667 1171.5,874C 1118.53,875.357 1065.53,875.857 1012.5,875.5C 1012.5,928.833 1012.5,982.167 1012.5,1035.5C 986.833,1035.5 961.167,1035.5 935.5,1035.5C 935.5,859.167 935.5,682.833 935.5,506.5 Z M 1012.5,576.5 C 1058.83,576.333 1105.17,576.5 1151.5,577C 1174.8,577.743 1197.14,582.743 1218.5,592C 1258.74,612.599 1278.4,645.766 1277.5,691.5C 1278,737.368 1258,770.535 1217.5,791C 1198.32,799.129 1178.32,803.795 1157.5,805C 1109.18,806.417 1060.85,806.917 1012.5,806.5C 1012.5,729.833 1012.5,653.167 1012.5,576.5 Z"/></g>
<g><path style="opacity:0.994" fill="#0378cc" d="M 3069.5,549.5 C 3094.5,549.5 3119.5,549.5 3144.5,549.5C 3144.5,577.5 3144.5,605.5 3144.5,633.5C 3182.83,633.5 3221.17,633.5 3259.5,633.5C 3259.5,655.167 3259.5,676.833 3259.5,698.5C 3221.17,698.5 3182.83,698.5 3144.5,698.5C 3144.33,774.834 3144.5,851.167 3145,927.5C 3150.22,957.198 3168.05,971.865 3198.5,971.5C 3214.01,971.273 3228.34,967.106 3241.5,959C 3246.69,954.312 3252.02,949.812 3257.5,945.5C 3267.75,964.286 3277.42,983.453 3286.5,1003C 3267.51,1022 3244.51,1033.33 3217.5,1037C 3189.46,1041.06 3162.13,1038.39 3135.5,1029C 3094.73,1010.02 3072.89,977.853 3070,932.5C 3069.5,854.501 3069.33,776.501 3069.5,698.5C 3046.83,698.5 3024.17,698.5 3001.5,698.5C 3001.5,676.833 3001.5,655.167 3001.5,633.5C 3024.17,633.5 3046.83,633.5 3069.5,633.5C 3069.5,605.5 3069.5,577.5 3069.5,549.5 Z"/></g>
<g><path style="opacity:0.994" fill="#0377cc" d="M 4304.5,549.5 C 4329.17,549.5 4353.83,549.5 4378.5,549.5C 4378.5,577.5 4378.5,605.5 4378.5,633.5C 4417.17,633.5 4455.83,633.5 4494.5,633.5C 4494.5,655.167 4494.5,676.833 4494.5,698.5C 4455.83,698.5 4417.17,698.5 4378.5,698.5C 4378.33,772.167 4378.5,845.834 4379,919.5C 4380.7,953.871 4398.7,971.204 4433,971.5C 4449.23,971.421 4464.07,966.921 4477.5,958C 4482.35,953.645 4487.35,949.478 4492.5,945.5C 4502.54,964.415 4512.21,983.581 4521.5,1003C 4502.45,1022.02 4479.45,1033.36 4452.5,1037C 4417.08,1042.89 4383.75,1037.22 4352.5,1020C 4323.33,999.17 4307.49,970.67 4305,934.5C 4304.5,855.834 4304.33,777.167 4304.5,698.5C 4281.83,698.5 4259.17,698.5 4236.5,698.5C 4236.5,676.833 4236.5,655.167 4236.5,633.5C 4259.17,633.5 4281.83,633.5 4304.5,633.5C 4304.5,605.5 4304.5,577.5 4304.5,549.5 Z"/></g>
<g><path style="opacity:0.989" fill="#0377cc" d="M 2756.5,629.5 C 2784.15,627.915 2811.48,630.082 2838.5,636C 2904.39,654.848 2939.56,698.681 2944,767.5C 2944.5,856.833 2944.67,946.166 2944.5,1035.5C 2920.5,1035.5 2896.5,1035.5 2872.5,1035.5C 2872.67,1022.83 2872.5,1010.16 2872,997.5C 2838.51,1027.21 2799.18,1040.88 2754,1038.5C 2714.07,1040.48 2677.91,1029.98 2645.5,1007C 2613.06,979.389 2599.23,944.222 2604,901.5C 2609.58,859.493 2631.75,829.993 2670.5,813C 2689.39,805.155 2709.06,800.488 2729.5,799C 2776.48,797.574 2823.48,797.074 2870.5,797.5C 2873.17,732.339 2842,699.006 2777,697.5C 2726.66,697.275 2683.16,714.108 2646.5,748C 2644.89,748.089 2643.72,747.255 2643,745.5C 2632.58,727.667 2621.92,710.001 2611,692.5C 2610.33,691.167 2610.33,689.833 2611,688.5C 2641.55,662.141 2676.72,644.641 2716.5,636C 2729.91,633.397 2743.24,631.23 2756.5,629.5 Z M 2742.5,859.5 C 2785.17,859.5 2827.83,859.5 2870.5,859.5C 2878.28,901.764 2864.28,934.598 2828.5,958C 2797.52,974.609 2764.85,979.275 2730.5,972C 2711.76,968.569 2696.6,959.402 2685,944.5C 2671.72,918.066 2675.55,894.566 2696.5,874C 2704.39,868.59 2713.05,864.924 2722.5,863C 2729.29,861.703 2735.96,860.536 2742.5,859.5 Z"/></g>
<g><path style="opacity:0.99" fill="#0377cc" d="M 3992.5,629.5 C 4062.3,624.586 4120.8,647.586 4168,698.5C 4204.75,745.47 4219.75,798.803 4213,858.5C 4202.9,941.567 4158.9,997.9 4081,1027.5C 4038.59,1040.4 3995.76,1041.9 3952.5,1032C 3883.47,1011.64 3837.31,967.472 3814,899.5C 3799.88,849.169 3801.88,799.503 3820,750.5C 3853.93,676.769 3911.43,636.435 3992.5,629.5 Z M 4000.5,697.5 C 4057.89,695.095 4099.73,719.095 4126,769.5C 4139.49,803.628 4142.16,838.628 4134,874.5C 4115.27,936.215 4073.6,968.215 4009,970.5C 3948.78,967.409 3908.11,937.742 3887,881.5C 3876.94,844.591 3878.6,808.257 3892,772.5C 3914.13,727.206 3950.3,702.206 4000.5,697.5 Z"/></g>
</svg>
