<svg xmlns="http://www.w3.org/2000/svg" viewBox="0 0 128 128"><title>vol-08$set-030@robot-1</title><g id="vol-08_set-030_robot-1" data-name="vol-08$set-030@robot-1"><g id="robot-1"><g id="robot-1-2"><g id="Icons"><path d="M86,83.0345c-2.56,6-12,10-22,10s-19.42-4-22-10a202.2489,202.2489,0,0,0-22,4c-9.78,2.46-9.74,14.5-10,16a145.64,145.64,0,0,0,54,10,147.1617,147.1617,0,0,0,54-10c-.14-1.12,0-13.5-10-16A203.5494,203.5494,0,0,0,86,83.0345Z" fill="#87b5d8"></path><path d="M107.78,93.4945l-10-2.48a139.6607,139.6607,0,0,0-33.68-4.14H64a139.536,139.536,0,0,0-33.7,4.16l-10,2.48a12.88,12.88,0,0,0-9.22,8.88A132.601,132.601,0,0,0,64,113.3145a132.54,132.54,0,0,0,53-10.94A12.88,12.88,0,0,0,107.78,93.4945Z" fill="#6d9dc9"></path><path d="M64,93.0345a32.98,32.98,0,0,0,16-3.84v-20.16H48v20.14A32.98,32.98,0,0,0,64,93.0345Z" fill="#6d9dc9"></path><rect x="48" y="85.0347" width="32" height="4" fill="#3c6782"></rect><rect x="48" y="77.0347" width="32" height="4" fill="#3c6782"></rect><rect x="78" y="69.0347" width="4" height="20" fill="#333"></rect><rect x="46" y="69.0347" width="4" height="20" fill="#333"></rect><rect x="34" y="94.0347" width="10" height="2" fill="#333"></rect><rect x="34" y="98.0347" width="10" height="2" fill="#333"></rect><rect x="84" y="94.0347" width="10" height="2" fill="#333"></rect><rect x="84" y="98.0347" width="10" height="2" fill="#333"></rect><circle cx="64" cy="103.0345" r="4" fill="#fcaa06"></circle><path d="M64,108.5347a5.5,5.5,0,1,1,5.5-5.5A5.5066,5.5066,0,0,1,64,108.5347Zm0-8a2.5,2.5,0,1,0,2.5,2.5A2.5026,2.5026,0,0,0,64,100.5347Z" fill="#333"></path><path d="M63.0078,115.0381A146.9641,146.9641,0,0,1,9.2715,104.8975a2.0007,2.0007,0,0,1-1.2422-2.2041c.0205-.1255.0361-.3374.0605-.6163.8457-9.5747,4.6885-15.2885,11.4219-16.9819A204.864,204.864,0,0,1,41.752,81.05a2.002,2.002,0,0,1,2.0849,1.1943c2.1553,5.0113,10.8233,8.79,20.1631,8.79,9.3564,0,18.0244-3.7769,20.16-8.7847a1.9961,1.9961,0,0,1,2.0888-1.2,206.3824,206.3824,0,0,1,22.2158,4.0391c4.8672,1.2168,10.794,5.21,11.4981,17.3544.01.1587.0156.2789.0234.3541a2.04,2.04,0,0,1-1.2617,2.101,148.5405,148.5405,0,0,1-54.04,10.1372c-.2325,0-.4619-.0005-.6934-.0014C63.6641,115.0366,63.335,115.0381,63.0078,115.0381ZM12.1406,101.7158a143.3517,143.3517,0,0,0,51.8467,9.3189,144.6561,144.6561,0,0,0,51.9121-9.3369c-.6279-7.21-3.4463-11.4883-8.3848-12.7227a202.2019,202.2019,0,0,0-20.3808-3.7773C83.62,91.0557,74.4209,95.0347,64,95.0347c-10.4033,0-19.6025-3.98-23.1309-9.8379A200.9611,200.9611,0,0,0,20.4658,88.98C13.6338,90.6982,12.4746,98.3286,12.1406,101.7158Z" fill="#333"></path><path d="M64,15.0345c-17.64,0-23.6,9.38-23.48,21.58a46.5692,46.5692,0,0,0,.22,4.74l2.18,16.26c.2,12.2,8,16.74,9.84,19.3A12.8,12.8,0,0,0,64,81.6545a12.8,12.8,0,0,0,11.24-4.74c2-2.56,9.64-7.1,9.84-19.3l2.18-16.26a45.9988,45.9988,0,0,0,.22-4.74C87.6,24.4145,81.64,15.0345,64,15.0345Z" fill="#87b5d8"></path><path d="M64,15.0345c-17.64,0-23.6,9.38-23.48,21.58a46.5692,46.5692,0,0,0,.22,4.74l2.18,16.26a27.3517,27.3517,0,0,0,.34,3.76,80.4585,80.4585,0,0,0,20.74,2,79.6636,79.6636,0,0,0,20.74-2,26.7815,26.7815,0,0,0,.34-3.76l2.18-16.26a45.9988,45.9988,0,0,0,.22-4.74C87.6,24.4145,81.64,15.0345,64,15.0345Z" fill="#dadbc8"></path><path d="M47.54,61.0345l-2.18-16.26a45.9988,45.9988,0,0,1-.22-4.74c-.14-14.8,5.88-21.58,23.48-21.58a32.52,32.52,0,0,1,14.4,3.5c-3.62-4.04-9.7-6.92-19.02-6.92-17.64,0-23.6,9.38-23.48,21.58a46.5692,46.5692,0,0,0,.22,4.74l2.18,16.26c.2,12.2,8,16.74,9.84,19.3a8.9205,8.9205,0,0,0,4.58,3.32C55.38,77.6545,47.76,73.0345,47.54,61.0345Z" fill="#9fc8e2"></path><path d="M43.26,61.3545h0l4.32.2v-.6l-2.18-16.26a45.9988,45.9988,0,0,1-.22-4.74c-.14-14.8,5.88-21.58,23.48-21.58a32.5194,32.5194,0,0,1,14.32,3.46c-.22-.26-.46-.52-.7-.76-3.74-3.54-9.6-6.04-18.28-6.04a27.9994,27.9994,0,0,0-15.22,3.62,16.9978,16.9978,0,0,0-3.18,2.6,14.7979,14.7979,0,0,0-1.84,2.34,17.28,17.28,0,0,0-1.4,2.62c-.14.3-.26.62-.38.94a26.22,26.22,0,0,0-1.46,9.48,41.41,41.41,0,0,0,.2,4.38v.34l2.18,16.26a16.4432,16.4432,0,0,0,.12,2A12.813,12.813,0,0,0,43.26,61.3545Z" fill="#efefe1"></path><path d="M62.8691,83.3032c-3.1269,0-8.1377-.3506-11.7187-5.2007a15.3684,15.3684,0,0,0-1.52-1.5966c-2.9727-2.89-8.4952-8.26-8.708-18.74L38.7578,41.62a48.8625,48.8625,0,0,1-.2383-5.0146c-.07-7.1656,1.878-12.8159,5.79-16.7671,4.3008-4.3423,10.9248-6.544,19.69-6.544s15.39,2.2017,19.69,6.544c3.9121,3.9512,5.86,9.6015,5.79,16.7954a48.0855,48.0855,0,0,1-.2305,4.917L87.0771,57.7661c-.2158,10.6607-5.8056,16.0181-8.8144,18.9009a17.4529,17.4529,0,0,0-1.4463,1.479c-3.7978,5.1455-9.3252,5.1465-12.2949,5.147l-.8555.0049C63.418,83.3,63.1514,83.3032,62.8691,83.3032ZM64,17.2944c-7.6582,0-13.3271,1.8028-16.8477,5.3589C44.0186,25.8174,42.46,30.5078,42.52,36.5947a44.8981,44.8981,0,0,0,.211,4.565l2.1718,16.1889a2.29,2.29,0,0,1,.0176.2329c.1455,8.9073,4.57,13.2095,7.499,16.0562a17.4776,17.4776,0,0,1,1.9649,2.11c2.6728,3.62,6.6221,3.58,9.24,3.55l.8965-.0049c2.7344-.0005,6.4785-.001,9.11-3.5664a19.3662,19.3662,0,0,1,1.8642-1.9478c2.9619-2.8369,7.4365-7.125,7.585-16.1973a2.29,2.29,0,0,1,.0176-.2329l2.18-16.26a44.0588,44.0588,0,0,0,.2032-4.4649c.0595-6.1162-1.4991-10.8066-4.6328-13.9707C77.3271,19.0972,71.6582,17.2944,64,17.2944Z" fill="#333"></path><path d="M75.44,34.6345a11.44,11.44,0,1,0-19.5,8,11.22,11.22,0,0,1,3,7.68H69.06a11.22,11.22,0,0,1,2.94-7.62A10.98,10.98,0,0,0,75.44,34.6345Z" fill="#f29f1c"></path><path d="M59,45.0345a11.4,11.4,0,0,1,8-19.5,11.5794,11.5794,0,0,1,5.34,1.3A11.44,11.44,0,1,0,56,42.6945a11.22,11.22,0,0,1,3,7.68h2.8A11.48,11.48,0,0,0,59,45.0345Z" fill="#f9bf08"></path><path d="M59.88,50.3945v3.18a3.74,3.74,0,0,0,3.74,3.74h.74a3.74,3.74,0,0,0,3.74-3.74v-3.18Z" fill="#7f8587"></path><path d="M62.48,55.7145v-.42a2.76,2.76,0,0,1,2.76-2.76h2.88v-2.14H59.88v3.18a3.76,3.76,0,0,0,2.94,3.66A3.6007,3.6007,0,0,1,62.48,55.7145Z" fill="#929799"></path><path d="M69.06,51.3145H58.94a1.0012,1.0012,0,0,1-1-1.004,10.19,10.19,0,0,0-2.7324-6.9956A12.4383,12.4383,0,0,1,55.2949,25.63a12.2864,12.2864,0,0,1,8.834-3.5533A12.4548,12.4548,0,0,1,76.44,34.6357a12.02,12.02,0,0,1-3.7539,8.7857A10.1667,10.1667,0,0,0,70.06,50.31a1,1,0,0,1-1,1.0044Zm-9.1563-2h8.1934a12.1855,12.1855,0,0,1,3.165-7.295A10.0643,10.0643,0,0,0,74.44,34.6411V34.624a10.4527,10.4527,0,0,0-10.333-10.5469,10.2673,10.2673,0,0,0-7.4131,2.9815,10.3735,10.3735,0,0,0-3.1328,7.3506,10.4955,10.4955,0,0,0,3.083,7.5156A12.2082,12.2082,0,0,1,59.9033,49.3145Z" fill="#333"></path><path d="M64.36,58.3145h-.74a4.7452,4.7452,0,0,1-4.74-4.74v-3.18a1,1,0,0,1,1-1H68.1a1,1,0,0,1,1,1v3.18A4.745,4.745,0,0,1,64.36,58.3145Zm-3.48-6.92v2.18a2.7433,2.7433,0,0,0,2.74,2.74h.74a2.7424,2.7424,0,0,0,2.7392-2.74v-2.18Z" fill="#333"></path><path d="M66.06,38.6943H61.94a.5.5,0,0,1,0-1H66.06a.5.5,0,0,1,0,1Z" fill="#333"></path><path d="M66.06,36.3345H61.94a.5.5,0,0,1,0-1H66.06a.5.5,0,0,1,0,1Z" fill="#333"></path><path d="M66.06,33.9946H61.94a.5.5,0,0,1,0-1H66.06a.5.5,0,0,1,0,1Z" fill="#333"></path><rect x="63.5" y="38.6343" width="1" height="12.2603" fill="#333"></rect><rect x="60" y="68.3145" width="8" height="2" fill="#333"></rect><path d="M60.8711,64.3818A71.1756,71.1756,0,0,1,43.76,62.2852l.48-1.9414a69.3177,69.3177,0,0,0,19.7159,1.9716A69.5431,69.5431,0,0,0,83.76,60.3438l.48,1.9414a71.4048,71.4048,0,0,1-20.2841,2.0283Q62.4165,64.3816,60.8711,64.3818Z" fill="#333"></path></g></g></g></g></svg>