<svg xmlns="http://www.w3.org/2000/svg" viewBox="0 0 128 128"><title>vol-03$set-010@celebrity-musician-amy-winehouse-rockstar-singer</title><g id="vol-03_set-010_celebrity-musician-amy-winehouse-rockstar-singer" data-name="vol-03$set-010@celebrity-musician-amy-winehouse-rockstar-singer"><path d="M112.84,104.1019a8,8,0,0,0-5.7-6.38l-26.56-4a5.38,5.38,0,0,1-4.58-5.24v-9.28H52v9.28a5.38,5.38,0,0,1-4.58,5.32l-26.56,4a8,8,0,0,0-5.7,6.38l-1.16,6.9a123.4008,123.4008,0,0,0,50,10,123.4008,123.4008,0,0,0,50-10Z" fill="#f3cac2"></path><path d="M82.72,99.0819a5.68,5.68,0,0,1-5-5.56v-1.5a5.66,5.66,0,0,0,4.28,3.42l26.34,4a8,8,0,0,1,5.62,6,8.4806,8.4806,0,0,0-3.96-2.36Z" fill="#f7deda"></path><path d="M52,79.2019v5.88l18.3,17.62a9.1,9.1,0,0,0,12.28.58c1.68-1.4,5.36-4.72,8.76-7.86l-10.76-1.62a5.38,5.38,0,0,1-4.58-5.32v-9.28Z" fill="#e8bfba"></path><path d="M46.52,98.4419a5.68,5.68,0,0,0,5-5.56v-2.42a5.6,5.6,0,0,1-4.32,3.34l-26.34,4c-3.56,0-5,4-5.62,6.92a8.74,8.74,0,0,1,4-2.38Z" fill="#f9d7d2"></path><path d="M82.72,99.0819a5.68,5.68,0,0,1-5-5.56v-3.02a5.66,5.66,0,0,0,4.28,3.34l26.34,4c2.84.82,5,4.72,5.62,7.6a8.4806,8.4806,0,0,0-3.96-2.36Z" fill="#e8bfba"></path><path d="M65.3535,122.5894c-.457,0-.9121-.0025-1.3691-.0074A124.1951,124.1951,0,0,1,13.4082,112.46l-1.083-.4648,1.3555-8.062a9.5419,9.5419,0,0,1,6.7685-7.5747l.1875-.0405,26.56-4A3.8556,3.8556,0,0,0,50.5,88.4819v-10.78h27v10.78a3.8611,3.8611,0,0,0,3.3027,3.7564l26.7481,4.041a9.5425,9.5425,0,0,1,6.7685,7.5762v0l1.3536,8.1406-1.0811.4638A124.1071,124.1071,0,0,1,65.3535,122.5894Zm-1.3691-3.0074a121.4583,121.4583,0,0,0,48.3418-9.42l-.9658-5.8135a6.5311,6.5311,0,0,0-4.544-5.1587l-26.46-3.9848A6.8577,6.8577,0,0,1,74.5,88.5044V80.7017h-21v7.78a6.8375,6.8375,0,0,1-5.8574,6.8033L21.1836,99.27a6.53,6.53,0,0,0-4.544,5.1587l-.9638,5.7344A120.8107,120.8107,0,0,0,63.9844,119.582Z" fill="#333"></path><path d="M64,25.9619c16,0,21,9.18,21,20v4c3.46,0,4.56,3.42,4,8-.48,3.9-2,8-6,8v5c0,6-4.78,8.72-10.36,14.52a9.6,9.6,0,0,1-8.64,3.48,9.6,9.6,0,0,1-8.64-3.5c-5.58-5.8-10.36-8.52-10.36-14.52v-5c-4,0-5.52-4.1-6-8-.56-4.58.54-8,4-8v-4C43,35.0819,48,25.9619,64,25.9619Z" fill="#fbd3ca"></path><path d="M85,49.9619v-4c0-10.82-4.92-20-21-20a31.7011,31.7011,0,0,0-5.5.42v20.7a7.78,7.78,0,0,1-2.5,5.78.92.92,0,0,0,0,1.28.96.96,0,0,0,.46.26,5.2,5.2,0,0,1,3.74,3.76,1,1,0,0,0,1.16.76,1.3194,1.3194,0,0,0,.38-.18,3.18,3.18,0,0,1,1.18-.62.96.96,0,0,1,1.18.66,1.363,1.363,0,0,1-.1.3v6.14a2.18,2.18,0,0,0,1.24,1.88c1.16.62.34,3.38-1.24,3.38-.62,0-1.04-.46-1.58-.78-1.48-.74-2,1.1-2,1.1,1.5.38,1.76,1.58,3.68,1.58v7.1a.72.72,0,0,0,.58.76c2.62.6,4,4.98-.62,6a2.5,2.5,0,0,0-2,2.42v.42h2a9.6,9.6,0,0,0,8.52-3.66c5.58-5.8,10.36-8.52,10.36-14.52v-5c4,0,5.52-4.1,6-8C89.56,53.4619,88.46,49.9619,85,49.9619Z" fill="#f3cac2"></path><path d="M64.16,74.7319a.75.75,0,0,1-.75-.75v-1.28a.75.75,0,1,1,1.5,0v1.28A.75.75,0,0,1,64.16,74.7319Z" fill="#eabdb7"></path><path d="M57.22,79.4121a.75.75,0,0,1-.68-1.0674l.7-1.5A.75.75,0,1,1,58.6,77.48l-.7,1.5A.7492.7492,0,0,1,57.22,79.4121Z" fill="#eabdb7"></path><path d="M70.92,79.4121a.7494.7494,0,0,1-.68-.4326l-.7-1.5a.75.75,0,1,1,1.3594-.6348l.7,1.5a.75.75,0,0,1-.68,1.0674Z" fill="#eabdb7"></path><path d="M65.84,75.2819a4.0008,4.0008,0,0,1-1.68.42c-.42,0-.46,0-1.42-.42-1.72-.68-1.82,1.4-5,2.56l2,2a4.7,4.7,0,0,0,3.32,1.2H65.2a5.3,5.3,0,0,0,3.56-1.32l1.84-1.9C67.56,76.7819,67.54,74.6219,65.84,75.2819Z" fill="#c97388"></path><path d="M64.1592,78.3887l-.1572-.0528a7.1223,7.1223,0,0,0-4.2569-.2192,9.8487,9.8487,0,0,1-2.0049.2451.5.5,0,0,1,0-1,8.9522,8.9522,0,0,0,1.8125-.2261,8.0155,8.0155,0,0,1,4.6084.2007,8.0368,8.0368,0,0,1,4.6162-.2007,8.8127,8.8127,0,0,0,1.8028.2261.5.5,0,0,1,0,1,9.7351,9.7351,0,0,1-1.9971-.2451,7.1529,7.1529,0,0,0-4.2666.22Z" fill="#743f40"></path><circle cx="72.94" cy="58.3019" r="1.56" fill="#333"></circle><path d="M69.16,59.0819c1.22-.7,4.32-4.7,8.36-.7a3.34,3.34,0,0,0,1.46-4.36c-1.36,1.62-3.5,1.84-6.4,2.84" fill="#333"></path><path d="M69.1611,59.6074a.5256.5256,0,0,1-.2627-.9809,6.5858,6.5858,0,0,0,.6963-.5279,9.4159,9.4159,0,0,1,2.7647-1.7133.45.45,0,0,1,.05-.02c.7441-.2563,1.4385-.4624,2.083-.6533,1.8418-.5454,3.1728-.94,4.0859-2.0278l.53-.6314.3477.7476a3.8635,3.8635,0,0,1-1.69,5.0454l-.3408.1812-.2744-.272c-1.5811-1.5654-2.9717-1.7964-4.1572-1.479-.08.0268-.16.0542-.2422.0825a.5469.5469,0,0,1-.0928.0229A8.5248,8.5248,0,0,0,70.26,58.9121a7.1084,7.1084,0,0,1-.8379.6255A.5249.5249,0,0,1,69.1611,59.6074Zm6.5-3.15a6.6646,6.6646,0,0,1,1.9278,1.2656,2.817,2.817,0,0,0,1.1465-2.7211A8.7187,8.7187,0,0,1,75.6611,56.4575Z" fill="#333"></path><path d="M77.84,52.5619a4.8988,4.8988,0,0,0-1.76-.4,3.14,3.14,0,0,0-1.64.32h0c-.3.2-.8.68-1.24,1.04a12.97,12.97,0,0,1-1.42,1.12,10.5215,10.5215,0,0,1-3.36,1.64.8.8,0,0,1-.9774-.57l-.0026-.01a.82.82,0,0,1,.58-.98h0a9.02,9.02,0,0,0,3.02-1.14,15.3779,15.3779,0,0,0,1.42-.9,12.7323,12.7323,0,0,1,1.58-1.04h0a4,4,0,0,1,2.12-.24,6.1984,6.1984,0,0,1,2,.64.3413.3413,0,0,1-.32.52Z" fill="#333"></path><circle cx="55.22" cy="58.3019" r="1.56" fill="#333"></circle><path d="M59,59.0819c-1.22-.7-4.32-4.7-8.36-.7a3.34,3.34,0,0,1-1.46-4.36c1.36,1.62,3.5,1.84,6.4,2.84" fill="#333"></path><path d="M58.999,59.6074a.5246.5246,0,0,1-.2607-.07,7.0265,7.0265,0,0,1-.8369-.6255,8.5376,8.5376,0,0,0-2.4-1.5308.56.56,0,0,1-.0918-.0229c-.0811-.0278-.1621-.0552-.2412-.082-1.1885-.3179-2.5782-.0874-4.1592,1.4785l-.2744.272-.3408-.1812a3.863,3.863,0,0,1-1.69-5.0454l.3477-.7476.53.6314c.9131,1.0879,2.2442,1.4824,4.086,2.0278.6445.1909,1.3388.397,2.083.6533a.45.45,0,0,1,.05.02,9.4165,9.4165,0,0,1,2.7646,1.7133,6.5858,6.5858,0,0,0,.6963.5279.5256.5256,0,0,1-.2627.9809ZM49.4248,55.002a2.815,2.815,0,0,0,1.1465,2.7211,6.6642,6.6642,0,0,1,1.9277-1.2656A8.7107,8.7107,0,0,1,49.4248,55.002Z" fill="#333"></path><path d="M50.1,52.0819a6.2008,6.2008,0,0,1,2-.64,4,4,0,0,1,2.12.24h0a12.7436,12.7436,0,0,1,1.58,1.04,15.3645,15.3645,0,0,0,1.42.9,9.02,9.02,0,0,0,3.02,1.14.8.8,0,0,1,.68.9.82.82,0,0,1-.92.68h0a10.5215,10.5215,0,0,1-3.36-1.64,12.97,12.97,0,0,1-1.42-1.12c-.44-.36-.94-.84-1.24-1.04h0a3.14,3.14,0,0,0-1.64-.32,4.8988,4.8988,0,0,0-1.76.4.5081.5081,0,0,1-.4977-.5032A.2766.2766,0,0,1,50.1,52.0819Z" fill="#333"></path><path d="M64.2627,73.1118H64a3.1316,3.1316,0,0,1-2.0586-.79,5.2116,5.2116,0,0,0-1.5742-.8946.75.75,0,0,1,.5058-1.4121,6.7408,6.7408,0,0,1,2.0479,1.17,1.6408,1.6408,0,0,0,1.0859.4263h.253a2.0119,2.0119,0,0,0,1.2939-.4809,6.771,6.771,0,0,1,1.9717-1.1148.75.75,0,0,1,.51,1.4111,5.25,5.25,0,0,0-1.5235.858A3.5,3.5,0,0,1,64.2627,73.1118Z" fill="#ba8d86"></path><path d="M63.9932,90.4746a14.01,14.01,0,0,1-9.7325-3.9307l-.02-.019c-1.0293-1.0259-2.0488-1.9438-3.0351-2.8315C47.42,80.2852,44.15,77.3418,43.5078,71.2183a26.9376,26.9376,0,0,1-.1045-3.8467c-2.3086-.5689-5.1133-2.6411-5.8926-9.1309-.4384-3.5854.1006-6.3525,1.5586-7.999A4.8587,4.8587,0,0,1,41.5,48.75V46.062c0-9.8081,3.9033-21.5,22.5-21.5s22.5,11.6919,22.5,21.5V48.75a4.8587,4.8587,0,0,1,2.4307,1.4922c1.458,1.6465,1.997,4.4136,1.5586,8.0024-.7989,6.4815-3.5938,8.5552-5.8926,9.126a26.6748,26.6748,0,0,1-.1045,3.84c-.6426,6.1318-3.9121,9.0752-7.6983,12.4834-.9863.8877-2.0058,1.8056-3.0351,2.8315A14.0606,14.0606,0,0,1,63.9932,90.4746Zm-7.6446-6.0854A11.0319,11.0319,0,0,0,71.6611,84.38c1.0635-1.06,2.1123-2.0034,3.126-2.916,3.5986-3.24,6.1992-5.5811,6.7207-10.5581a23.8756,23.8756,0,0,0,0-4.6958A1.5,1.5,0,0,1,83,64.562c3.0479,0,4.1357-3.6343,4.5117-6.6836.3213-2.6323.0195-4.6914-.8271-5.6484A2.0871,2.0871,0,0,0,85,51.562a1.5,1.5,0,0,1-1.5-1.5v-4c0-12.2759-6.5605-18.5-19.5-18.5s-19.5,6.2241-19.5,18.5v4a1.5,1.5,0,0,1-1.5,1.5,2.0871,2.0871,0,0,0-1.6846.668c-.8466.957-1.1484,3.0161-.8261,5.65.5322,4.435,2.05,6.6821,4.5107,6.6821a1.5,1.5,0,0,1,1.4922,1.648,23.96,23.96,0,0,0,0,4.7041c.5215,4.9687,3.1221,7.31,6.7207,10.55C54.2236,82.3735,55.2686,83.3145,56.3486,84.3892Z" fill="#333"></path><path d="M48,50.8419v2H60a8.72,8.72,0,0,0,8-6c2-6,12-4,12-4v-8H48Z" fill="#eabdb7"></path><path d="M97.8,116.8419a19.56,19.56,0,0,0-16.38-8,20.5,20.5,0,0,0-14.22,5.36,4.66,4.66,0,0,1-6.4,0,20.5,20.5,0,0,0-14.22-5.36,19.56,19.56,0,0,0-16.38,8,130.3208,130.3208,0,0,0,33.8,4.24A130.2209,130.2209,0,0,0,97.8,116.8419Z" fill="#333"></path><rect x="21.7533" y="104.3118" width="22.6936" height="3" transform="translate(-77.6569 110.7744) rotate(-75.1947)" fill="#333"></rect><rect x="93.6001" y="94.465" width="3" height="22.6936" transform="translate(-23.8841 27.8187) rotate(-14.8074)" fill="#333"></rect><circle cx="86" cy="26.8419" r="6" fill="#333"></circle><circle cx="88" cy="32.8419" r="6" fill="#333"></circle><path d="M93.34,29.5819a3.84,3.84,0,0,1-1.08-3.28,7.76,7.76,0,0,0-5.82-8.8,1.6628,1.6628,0,0,1-.44-.16c-.58-.32-1.04-1.48-1.44-2a12.8574,12.8574,0,0,0-1.76-2,6.72,6.72,0,0,0-4.7-2,7.2387,7.2387,0,0,0-2.9.6,3.1,3.1,0,0,1-3.5-.86,13.3,13.3,0,0,0-11.06-4,14.64,14.64,0,0,0-12.36,12.56,15.2362,15.2362,0,0,0-.28,2.94,4.66,4.66,0,0,1-1.68,3.72c-3.74,3.08-6.32,9.16-6.32,16.18,0,10.14,6,9.88,6,16.36,0,0,2-6.64,6-6.64h4a7.56,7.56,0,0,0,5.04-2.36,13.3993,13.3993,0,0,0,2.72-5.3c1-2.8,2.5-4.94,5.48-5.02,1.04,0,2.1.1,3.14,0a9.5,9.5,0,0,0,7.18-4.28c0,.44.34.9.42,1.36a11.2171,11.2171,0,0,1,.14,2,26.4233,26.4233,0,0,1-.44,3.76,13.06,13.06,0,0,0,.32,7.68,27.7422,27.7422,0,0,1,2,8.8c0-3.1,1.38-3.12,2.8-5.48a4.26,4.26,0,0,0,2.98,1,4.5,4.5,0,0,0,3.82-2.86,4.88,4.88,0,0,0-2.5-6.42l-.54-.2h-.68a23.3176,23.3176,0,0,0,.12-2.4,26.76,26.76,0,0,0-.6-5.64,4.18,4.18,0,0,0,3.4,1.34,4.54,4.54,0,0,0,3.8-2.88A5.26,5.26,0,0,0,93.34,29.5819Z" fill="#333"></path><path d="M46.001,59.8418a.9882.9882,0,0,1-.1465-.0107A1,1,0,0,1,45,58.8418c0-2.54-1.0127-3.8643-2.2949-5.541A15.5169,15.5169,0,0,1,39,42.4819c0-7.061,2.5615-13.5566,6.6846-16.9521A3.6346,3.6346,0,0,0,47,22.6113a16.3532,16.3532,0,0,1,.2988-3.16A15.6864,15.6864,0,0,1,60.4922,6.0928a14.405,14.405,0,0,1,11.9287,4.2959,2.1229,2.1229,0,0,0,2.4092.6245,8.1368,8.1368,0,0,1,3.2549-.6714h.0166a7.6782,7.6782,0,0,1,5.41,2.2978,13.71,13.71,0,0,1,1.8633,2.1231,7.622,7.622,0,0,1,.4814.772,4.32,4.32,0,0,0,.6338.9355.6493.6493,0,0,0,.1543.0527,8.8046,8.8046,0,0,1,6.6016,9.9415,2.8489,2.8489,0,0,0,.7949,2.4043A6.2367,6.2367,0,0,1,95.53,35.667a5.5092,5.5092,0,0,1-4.6348,3.5107,5.2315,5.2315,0,0,1-2.1269-.271A27.72,27.72,0,0,1,89,42.4819c.001.4917-.0137.9869-.043,1.48l.49.1821a5.9,5.9,0,0,1,3.0683,7.7583,5.5129,5.5129,0,0,1-4.6513,3.4556,5.31,5.31,0,0,1-2.793-.61c-.3135.4195-.6123.7564-.8721,1.0489A3.6493,3.6493,0,0,0,83,58.8418a1,1,0,0,1-1.998.06,26.6932,26.6932,0,0,0-1.9278-8.4825,14.0235,14.0235,0,0,1-.3613-8.312,25.5636,25.5636,0,0,0,.4082-3.55,10.14,10.14,0,0,0-.044-1.1347,10.579,10.579,0,0,1-6.6152,3.0962,16.93,16.93,0,0,1-2.2109.0249c-.3379-.0108-.6758-.0215-1.0108-.0215-2.1035.0566-3.4687,1.36-4.539,4.3564a14.296,14.296,0,0,1-2.8955,5.6065A8.5529,8.5529,0,0,1,56.0605,53.2l-4.06.002c-3.168,0-5.0244,5.8691-5.043,5.9287A.9989.9989,0,0,1,46.001,59.8418Zm16.0908-51.84a12.1291,12.1291,0,0,0-1.3418.0742A13.6908,13.6908,0,0,0,49.2715,19.7734,14.5321,14.5321,0,0,0,49,22.58a5.6107,5.6107,0,0,1-2.04,4.4907C43.2822,30.0991,41,36.0029,41,42.4819a13.4693,13.4693,0,0,0,3.2939,9.604,13.9965,13.9965,0,0,1,2.0909,3.3711c1.123-2.01,2.97-4.2553,5.6152-4.2553h4a6.51,6.51,0,0,0,4.3125-2.0459,12.4259,12.4259,0,0,0,2.4785-4.8609c.88-2.478,2.4717-5.6665,6.4219-5.7724.4316-.0122.7422.0107,1.1025.0219a15.2964,15.2964,0,0,0,1.9688-.018,8.5605,8.5605,0,0,0,6.4375-3.8306,1,1,0,0,1,1.8379.5459,2.3711,2.3711,0,0,0,.1357.3657,3.6582,3.6582,0,0,1,.27.8233,12.3746,12.3746,0,0,1,.1543,2.19,27.5706,27.5706,0,0,1-.458,3.9277,12.0935,12.0935,0,0,0,.28,7.1592,28.3611,28.3611,0,0,1,1.5244,5.03c.0781-.09.1572-.1787.2363-.2681a10.3405,10.3405,0,0,0,1.24-1.6235.9987.9987,0,0,1,.6933-.4712,1.01,1.01,0,0,1,.8086.2227,3.2459,3.2459,0,0,0,2.2813.7656,3.5107,3.5107,0,0,0,2.94-2.2222,3.897,3.897,0,0,0-1.9717-5.144l-.3135-.1153H87.88a1,1,0,0,1-.9951-1.101A22.56,22.56,0,0,0,87,42.4829a25.906,25.906,0,0,0-.5771-5.4311,1,1,0,0,1,1.7138-.8863,3.1623,3.1623,0,0,0,2.586,1.02,3.5151,3.5151,0,0,0,2.9443-2.2442,4.2446,4.2446,0,0,0-1.0186-4.6362l-.0166-.0166a4.866,4.866,0,0,1-1.3613-4.1343,6.7926,6.7926,0,0,0-5.0664-7.68,2.5791,2.5791,0,0,1-.6738-.249,4.1922,4.1922,0,0,1-1.41-1.6977,5.56,5.56,0,0,0-.3525-.5752,12.0325,12.0325,0,0,0-1.6465-1.875,5.7177,5.7177,0,0,0-4.0342-1.7349h-.0117a6.1926,6.1926,0,0,0-2.4766.5171,4.1115,4.1115,0,0,1-4.6572-1.125A12.3526,12.3526,0,0,0,62.0918,8.0015Z" fill="#333"></path><path d="M87.5,33.4019c0,3.34-1.58,6-3.5,6s-3.48-2.68-3.48-6,1.48-4.56,3.48-4.56S87.5,30.1019,87.5,33.4019Z" fill="#f7d2df"></path><path d="M84,40.4019c-2.5127,0-4.4805-3.0748-4.4805-7,0-5.0181,3.1338-5.56,4.4805-5.56,1.3525,0,4.5.542,4.5,5.56C88.5,37.3271,86.5234,40.4019,84,40.4019Zm0-10.56c-.6787,0-2.4805,0-2.4805,3.56,0,2.9467,1.3076,5,2.4805,5,1.1826,0,2.5-2.0533,2.5-5C86.5,29.8418,84.6182,29.8418,84,29.8418Z" fill="#333"></path><path d="M80.52,46.2819c0-3.34,1.54-6,3.48-6s3.5,2.68,3.5,6-1.5,4.56-3.5,4.56S80.52,49.5819,80.52,46.2819Z" fill="#f7d2df"></path><path d="M84,51.8418c-1.3467,0-4.4805-.542-4.4805-5.56,0-3.9907,1.9258-7,4.4805-7,2.5234,0,4.5,3.0747,4.5,7C88.5,51.3,85.3525,51.8418,84,51.8418Zm0-10.56c-1.1729,0-2.4805,2.0533-2.4805,5,0,3.56,1.8672,3.56,2.4805,3.56,1.0732,0,2.5-.3691,2.5-3.56C86.5,43.335,85.1826,41.2817,84,41.2817Z" fill="#333"></path><path d="M80.26,33.5819c2.88,1.66,4.42,4.36,3.46,6s-4,1.7-6.92,0-3.26-3.58-2.34-5.26S77.34,31.9419,80.26,33.5819Z" fill="#f7d2df"></path><path d="M80.9482,41.8228a9.4589,9.4589,0,0,1-4.6513-1.3765c-4.3321-2.5225-3.3408-5.4595-2.7139-6.605a4.059,4.059,0,0,1,2.4619-2.0273,6.1612,6.1612,0,0,1,4.7041.896l.01.0058a8.4607,8.4607,0,0,1,4.1045,4.7212,3.4158,3.4158,0,0,1-.28,2.65A3.999,3.999,0,0,1,80.9482,41.8228Zm-3.7-8.1729a2.3629,2.3629,0,0,0-.6523.0864,2.0785,2.0785,0,0,0-1.2588,1.0659c-.3144.5743-1.15,2.1011,1.9658,3.9156,2.5332,1.4746,4.961,1.3725,5.5537.3589A1.45,1.45,0,0,0,82.93,37.95a6.6634,6.6634,0,0,0-3.1641-3.4985A5.3614,5.3614,0,0,0,77.248,33.65Z" fill="#333"></path><path d="M87.8,46.0819c-2.86-1.66-4.4-4.36-3.42-6s4-1.7,6.92,0,3.18,3.64,2.2,5.32S90.68,47.7419,87.8,46.0819Z" fill="#f7d2df"></path><path d="M90.7988,48.0522a7.0818,7.0818,0,0,1-3.498-1.104l-.0029-.0014A8.4173,8.4173,0,0,1,83.22,42.2163a3.3991,3.3991,0,0,1,.3018-2.647c1.3086-2.1875,4.87-2.3383,8.2812-.3515a6.024,6.024,0,0,1,3.085,3.4707,4.183,4.183,0,0,1-.5244,3.2173A4.0853,4.0853,0,0,1,90.7988,48.0522Zm-2.498-2.8354c3.1045,1.7876,4.0322.2026,4.3359-.3189a2.213,2.213,0,0,0,.3174-1.7,4.2509,4.2509,0,0,0-2.1572-2.2519c-2.5606-1.4907-4.9414-1.3858-5.5586-.3511a1.439,1.439,0,0,0-.083,1.12A6.6278,6.6278,0,0,0,88.3008,45.2168Z" fill="#333"></path><path d="M76.72,40.0219c2.84-1.66,6-1.64,6.92,0s-.58,4.36-3.46,6-4.72.94-5.68-.74S73.86,41.6819,76.72,40.0219Z" fill="#f7d2df"></path><path d="M77.2578,47.9482a4.1654,4.1654,0,0,1-3.626-2.17c-.66-1.1557-1.73-4.1142,2.585-6.6206A8.5092,8.5092,0,0,1,82.3691,37.97a3.3711,3.3711,0,0,1,2.1426,1.563c1.2334,2.1983-.4521,5.4307-3.8369,7.3584A6.9687,6.9687,0,0,1,77.2578,47.9482Zm3.6309-8.165a7.6169,7.6169,0,0,0-3.6641,1.1021l-.0029.0014c-3.0645,1.7793-2.1533,3.3745-1.8535,3.8989.3017.5274,1.2187,2.1324,4.3164.3672,2.4668-1.4048,3.6621-3.6089,3.083-4.6416a1.48,1.48,0,0,0-.9229-.6118A3.6757,3.6757,0,0,0,80.8887,39.7832Z" fill="#333"></path><path d="M91.3,39.6619c-2.88,1.66-6,1.64-6.92,0s.56-4.36,3.42-6,4.76-.94,5.7.74S94.16,38.0019,91.3,39.6619Z" fill="#f7d2df"></path><path d="M87.127,41.9014a5.6346,5.6346,0,0,1-1.4942-.19,3.3662,3.3662,0,0,1-2.125-1.56c-1.2334-2.1983.4336-5.43,3.7949-7.357A6.0043,6.0043,0,0,1,91.88,31.88a4.1,4.1,0,0,1,2.4931,2.0337c.65,1.1621,1.7022,4.1333-2.5712,6.6133l-.003.0014A9.6144,9.6144,0,0,1,87.127,41.9014Zm3.621-8.1709a5.15,5.15,0,0,0-2.4511.7993c-2.4463,1.4028-3.625,3.6084-3.0449,4.6431a1.4122,1.4122,0,0,0,.9111.6108A6.6767,6.6767,0,0,0,90.8,38.7964c3.0293-1.7593,2.125-3.375,1.8272-3.9063a2.1183,2.1183,0,0,0-1.28-1.083A2.2472,2.2472,0,0,0,90.748,33.7305Z" fill="#333"></path><path d="M86.72,39.8419a2.74,2.74,0,1,1,0-.04h0Z" fill="#d17196"></path><path d="M87.56,39.8419a2.72,2.72,0,1,1-2.72-2.76h0a2.68,2.68,0,0,1,2.7,2.66q0,.02,0,.04Z" fill="#d17196"></path><path d="M84.001,43.522l-.0557,0a3.72,3.72,0,1,1,3.7744-3.72v.0542a3.72,3.72,0,0,1-3.7187,3.666ZM84,38.082a1.72,1.72,0,0,0-.0254,3.44,1.6234,1.6234,0,0,0,1.2236-.4859,1.7057,1.7057,0,0,0,.5215-1.2021v-.0317A1.7217,1.7217,0,0,0,84,38.082Z" fill="#333"></path><path d="M84,68.8419s-.82,11.28-10.4,16.64-9.6,19.36-9.6,19.36a7.08,7.08,0,0,1,4-2s-4,8,2,14l18-2s-6-6-4-10c.78,1.56,2,3.74,4,4a10,10,0,0,1,.7-7.54,29.2207,29.2207,0,0,0,3.1-10.34,32.24,32.24,0,0,0-3.8-16.32,28.1933,28.1933,0,0,0-1.84-3.2C85.84,71.0819,84,69.2219,84,68.8419Z" fill="#333"></path><path d="M70,117.8418a1,1,0,0,1-.707-.293c-4.5664-4.5664-3.7754-10.2387-2.9151-13.18a6.0858,6.0858,0,0,0-1.6709,1.18A1,1,0,0,1,63,104.84c.001-.5957.1348-14.6494,10.1113-20.2309,9.0059-5.0386,9.8838-15.7329,9.8916-15.84a1.03,1.03,0,0,1,1.0332-.9267,1.0019,1.0019,0,0,1,.9307.7412,20.8234,20.8234,0,0,0,1.6,1.8276c.1553.1646.2764.294.3408.3658a.9556.9556,0,0,1,.085.1108,29.1883,29.1883,0,0,1,1.9053,3.3135,33.237,33.237,0,0,1,3.9013,16.7949,30.1491,30.1491,0,0,1-3.21,10.7646,8.9464,8.9464,0,0,0-.6319,6.79,1.003,1.003,0,0,1-.1933.9375,1.0145,1.0145,0,0,1-.8926.3457,4.9231,4.9231,0,0,1-3.0869-1.8438,16.485,16.485,0,0,0,3.9228,6.1451,1,1,0,0,1-.5966,1.7006l-18,2A.93.93,0,0,1,70,117.8418Zm-2-16a1.0011,1.0011,0,0,1,.8955,1.4453c-.1465.2954-3.4492,7.1475,1.4844,12.5064l15.5947-1.733c-1.7754-2.19-4.5176-6.3681-2.8691-9.666a1.0412,1.0412,0,0,1,1.789,0,10.2272,10.2272,0,0,0,1.7237,2.6319,10.9339,10.9339,0,0,1,1.1953-6.187,28.115,28.115,0,0,0,2.9922-9.9825,31.2465,31.2465,0,0,0-3.6875-15.7426,27.635,27.635,0,0,0-1.7491-3.0567c-.0615-.0659-.15-.16-.2578-.2734q-.2592-.2754-.48-.5127c-.7929,3.7378-3.2314,10.9922-10.5439,15.083-6.81,3.81-8.5176,12.4219-8.9453,16.4014a8.1,8.1,0,0,1,2.7158-.9038A.9776.9776,0,0,1,68,101.8418ZM85,68.8394v0Z" fill="#333"></path><path d="M46,46.8419a13.36,13.36,0,0,0,6.34-1.4,10.62,10.62,0,0,0,4.34-4.36,34.5411,34.5411,0,0,1,1.82-2.96,10.9,10.9,0,0,1,2.64-2.52,7.08,7.08,0,0,1,6.86-.8,8,8,0,0,0-6,2,10.8167,10.8167,0,0,0-2,2.38c-.64.9-1,1.78-1.66,2.88a12.0026,12.0026,0,0,1-2.34,2.88A10,10,0,0,1,46,46.8419Z" fill="#666"></path><path d="M84,78.8419a16.52,16.52,0,0,1-.7,10.7,15.5611,15.5611,0,0,1-3.1,4.66c-.64.64-1.5,1.28-2,1.8l-.92.82-.8.94a15.08,15.08,0,0,0-3.12,9.32,18.0987,18.0987,0,0,0,.64,5.02,12.88,12.88,0,0,0,2,4.74,14.18,14.18,0,0,1-4.26-9.76,17.2391,17.2391,0,0,1,.54-5.54,15.02,15.02,0,0,1,2.6-5.02l.94-1.06c.34-.34.72-.62,1.08-.94l2-1.66a14.68,14.68,0,0,0,3-4A19.9994,19.9994,0,0,0,84,78.8419Z" fill="#666"></path></g></svg>