<svg xmlns="http://www.w3.org/2000/svg" viewBox="0 0 128 128"><title>vol-01$set-004@average-people-2-asian-female</title><g id="vol-01_set-004_average-people-2-asian-female" data-name="vol-01$set-004@average-people-2-asian-female"><g id="average-people-2-asian-female"><g id="average-people-2-asian-female-2"><g id="Icons"><path d="M64.04,64.5234c-14.6074,0-26.4912-10.6279-26.4912-23.6914S49.4326,17.1406,64.04,17.1406,90.5312,27.7686,90.5312,40.832,78.6475,64.5234,64.04,64.5234Zm0-44.16c-12.83,0-23.2685,9.1826-23.2685,20.4687S51.21,61.3008,64.04,61.3008,87.3086,52.1182,87.3086,40.832,76.87,20.3633,64.04,20.3633Z" fill="#333"></path><path d="M64.0986,105.1055a13.7352,13.7352,0,0,1-8.7754-3.1582A53.9468,53.9468,0,0,1,42.7344,86.89l2.6113-1.4746A50.9911,50.9911,0,0,0,57.2373,99.6377a10.7724,10.7724,0,0,0,13.7256-.001A50.5031,50.5031,0,0,0,82.7314,85.4785l2.6172,1.4668A53.487,53.487,0,0,1,72.88,101.9443,13.7421,13.7421,0,0,1,64.0986,105.1055Z" fill="#333"></path><path d="M109.04,97.912a10.34,10.34,0,0,0-8-8l-18.68-4c-2-.46-4.2-.82-6.32-1.12v-9.8h-24v9.78c-2.22.3-4.44.7-6.64,1.18l-18.36,4a10.34,10.34,0,0,0-8,8l-1,4c.56.44,19.3,10,46,10s45.44-9.58,46-10Z" fill="#d8ab8d"></path><path d="M64.04,97.812v14.12c26.7,0,45.44-9.58,46-10l-1-4a10.34,10.34,0,0,0-8-8l-18.68-4c-2-.46-4.2-.82-6.32-1.12v-9.8h-24v7l9.6,9.84A8.94,8.94,0,0,1,64.04,97.812Z" fill="#d0a183"></path><path d="M80.98,90.972c1.02.2,11.48,2,11.48,2a60.6341,60.6341,0,0,0,7.3-3.32l-17.4-3.78c-2-.46-4.2-.82-6.32-1.12A6,6,0,0,0,80.98,90.972Z" fill="#d8ab8d"></path><path d="M109.04,97.912a10.34,10.34,0,0,0-8-8l-17-3.72a52.2,52.2,0,0,1-12.12,14.58,12.26,12.26,0,0,1-15.64,0,52.66,52.66,0,0,1-12.24-14.64c-7.18,1.56-13.86,3.04-17.04,3.76a10.34,10.34,0,0,0-8,8l-1,4c.56.44,19.3,10,46,10s45.44-9.58,46-10Z" fill="#5d8987"></path><path d="M110.04,101.912l-.36-1.46a10.92,10.92,0,0,0-7.42-5.64s-15.6-2.94-21.28-3.86a52.2369,52.2369,0,0,1-9.08,9.82,12.26,12.26,0,0,1-15.64,0,51.7973,51.7973,0,0,1-9.1-9.84c-2,.28-4.12.6-6.16.98-7.22,1.34-13.58,2.52-15.14,2.86a10.88,10.88,0,0,0-7.42,5.64l-.4,1.5c.56.44,19.3,10,46,10S109.48,102.352,110.04,101.912Z" fill="#4e7574"></path><path d="M64.0986,105.1055a13.7352,13.7352,0,0,1-8.7754-3.1582A53.9468,53.9468,0,0,1,42.7344,86.89l2.6113-1.4746A50.9911,50.9911,0,0,0,57.2373,99.6377a10.7724,10.7724,0,0,0,13.7256-.001A50.5031,50.5031,0,0,0,82.7314,85.4785l2.6172,1.4668A53.487,53.487,0,0,1,72.88,101.9443,13.7421,13.7421,0,0,1,64.0986,105.1055Z" fill="#333"></path><path d="M64.04,113.4121c-28.07,0-46.7949-10.2168-46.9267-10.32a1.5,1.5,0,0,1-.5283-1.5439l1-4a11.8185,11.8185,0,0,1,9.1474-9.1036c8.4805-1.8789,24.85-5.15,25.0137-5.1826a1.5,1.5,0,0,1,.5879,2.9414c-.1641.0332-16.5029,3.2979-24.97,5.1739A8.8451,8.8451,0,0,0,20.5078,98.22l-.7285,2.92c3.7969,1.8389,20.6045,9.2725,44.2607,9.2725,23.3379,0,40.2461-7.3623,44.2559-9.29l-.7109-2.8457a8.8635,8.8635,0,0,0-6.8526-6.8965C82.293,87.4316,75.8281,86.2188,75.7646,86.207a1.5,1.5,0,1,1,.5508-2.9492c.0635.0117,6.5537,1.23,25.0391,5.1875a11.84,11.84,0,0,1,9.1533,9.1592l.9873,3.9434a1.5008,1.5008,0,0,1-.5547,1.5644C110.8027,103.2148,92.127,113.4121,64.04,113.4121Z" fill="#333"></path><rect x="74.54" y="76.9717" width="3" height="11.9805" fill="#333"></rect><rect x="50.54" y="78.9316" width="3" height="10.0205" fill="#333"></rect><path d="M50.52,69.512a8,8,0,0,0,.4675-11.304q-.0727-.0791-.1475-.156a8.3615,8.3615,0,0,0-2.42-1.76h0a8.12,8.12,0,0,0-3.86,10.78,8.2782,8.2782,0,0,0,1.74,2.42h0a8,8,0,0,0-.3882,11.3071q.0438.0468.0882.0929l.32.32a8.12,8.12,0,0,0-2.28,8.38,4.56,4.56,0,0,0,4.62,3.3,4.38,4.38,0,0,0,3.72-2.76,8.1,8.1,0,0,0-2-8.86h0a8,8,0,0,0,.3882-11.307q-.0438-.0468-.0882-.093l-.32-.32Z" fill="#333"></path><path d="M47.68,90.872a10.22,10.22,0,0,1,1.72-9.54c-2-2.74-3.56-5.72-.96-9.66a2.56,2.56,0,0,0,0-2.86,8,8,0,0,1-1.34-4.44,8.14,8.14,0,0,1,3.4-6.6,8.2414,8.2414,0,0,0-2.12-1.48,8,8,0,0,0-3.9785,10.5911q.0478.1051.0985.2089a7.9983,7.9983,0,0,0,1.78,2.44A8,8,0,0,0,45.933,80.84q.053.0564.107.1116l.32.32a8.1,8.1,0,0,0-2,8.88,4.36,4.36,0,0,0,4.88,2.7A4.68,4.68,0,0,1,47.68,90.872Z" fill="#454749"></path><path d="M48.3477,94.4434A5.8547,5.8547,0,0,1,42.9131,90.68a9.433,9.433,0,0,1,1.333-9.3838,9.5188,9.5188,0,0,1,.0117-11.7832,9.978,9.978,0,0,1-1.09-1.77A9.6369,9.6369,0,0,1,47.76,54.9355a1.5007,1.5007,0,0,1,1.2685-.0058,9.2944,9.2944,0,0,1,2.9053,2.0957l.165.1748A9.5024,9.5024,0,0,1,52.52,69.5635,9.48,9.48,0,0,1,52.62,81.0918a.3537.3537,0,0,0,.0088.4121,9.7136,9.7136,0,0,1,1.1211,9.38,5.8585,5.8585,0,0,1-4.9531,3.543C48.6455,94.4375,48.4961,94.4434,48.3477,94.4434Zm.0585-36.4522a6.6322,6.6322,0,0,0-2.5292,8.4619,7.0135,7.0135,0,0,0,1.4462,2.001,1.4993,1.4993,0,0,1-.0263,2.1807,6.509,6.509,0,0,0-.37,9.1855c.1162.126.24.249.3691.3672a1.5,1.5,0,0,1,.0107,2.1982,6.4909,6.4909,0,0,0-1.6445,7.0928,2.9184,2.9184,0,0,0,2.9111,1.957,2.8272,2.8272,0,0,0,2.4493-1.8007,6.6864,6.6864,0,0,0-.8106-6.3545,3.3433,3.3433,0,0,1-.001-3.9756,6.49,6.49,0,0,0-.7714-8.6729,1.5,1.5,0,0,1,.2089-2.3613,6.5074,6.5074,0,0,0,.2354-9.0469l-.125-.1318A6.38,6.38,0,0,0,48.4062,57.9912Z" fill="#333"></path><path d="M48.4,93.572a13.04,13.04,0,0,0-6.22,6.26,3.86,3.86,0,0,0,3.46,5.52h5.58a3.8,3.8,0,0,0,3.84-3.76v0a3.661,3.661,0,0,0-.28-1.46A13.14,13.14,0,0,0,48.4,93.572Z" fill="#333"></path><path d="M45.5,103.112a13.12,13.12,0,0,1,6.22-6.26,11.1435,11.1435,0,0,1,1.7,1,12.98,12.98,0,0,0-5-4.24,13.04,13.04,0,0,0-6.22,6.26,3.86,3.86,0,0,0,1.8393,5.14l.0007,0a3.62,3.62,0,0,0,1.18.34A3.9994,3.9994,0,0,1,45.5,103.112Z" fill="#454749"></path><path d="M45.64,106.8516a5.36,5.36,0,0,1-4.8144-7.6651,14.5693,14.5693,0,0,1,6.9316-6.97,1.5005,1.5005,0,0,1,1.2266-.0264,13.3114,13.3114,0,0,1,7.1943,7.3975,5.6337,5.6337,0,0,1,.2852,1.4277,5.5006,5.5006,0,0,1-5.1514,5.833Zm2.795-11.6123a11.5651,11.5651,0,0,0-4.8955,5.2275,2.3606,2.3606,0,0,0,2.1084,3.3848H51.22a2.45,2.45,0,0,0,1.627-.837,2.4846,2.4846,0,0,0,.6221-1.8105,2.5616,2.5616,0,0,0-.1163-.6123A10.2494,10.2494,0,0,0,48.4346,95.2393Z" fill="#333"></path><path d="M50.94,95.9717h-4.9a2.5023,2.5023,0,0,1-2.5-2.5v-.58a2.5023,2.5023,0,0,1,2.5-2.5h4.9a2.5023,2.5023,0,0,1,2.5,2.5v.58A2.5023,2.5023,0,0,1,50.94,95.9717Zm0-2.58h0Z" fill="#333"></path><path d="M64.04,22.932c16,0,21,9.18,21,20v4c3.46,0,4.56,3.42,4,8-.48,3.9-2,8-6,8v3c0,6-4.78,8.7-10.36,14.5a9.64,9.64,0,0,1-8.64,3.5,9.58,9.58,0,0,1-8.64-3.5c-5.58-5.8-10.36-8.5-10.36-14.5v-3c-4,0-5.52-4.1-6-8-.56-4.58.54-8,4-8v-4C43.04,32.112,48.04,22.932,64.04,22.932Z" fill="#d8ab8d"></path><path d="M85.04,46.932v-4c0-10.82-4.92-20-21-20a33.246,33.246,0,0,0-5.5.42v20.72a7.8,7.8,0,0,1-2.5,5.76.9.9,0,0,0,.4,1.54,5.16,5.16,0,0,1,3.72,3.86.98.98,0,0,0,1.54.58,3.5016,3.5016,0,0,1,1.16-.64.98.98,0,0,1,1.22.96v4.14a2.22,2.22,0,0,0,1.24,1.88c1.14.64.32,2.8-1.24,2.8h0a3.3794,3.3794,0,0,1-1.78-.46c-1.48-.74-2.86.78-2.54,1.36s.78-.1,2.22.6a4.7792,4.7792,0,0,0,2.18.64v7.36a.72.72,0,0,0,.58.76c2.62.62,4,4.98-.62,6h0a2.48,2.48,0,0,0-2,2.4v.48h2a9.58,9.58,0,0,0,8.64-3.5c5.58-5.8,10.36-8.5,10.36-14.5v-3c4,0,5.52-4.1,6-8C89.6,50.332,88.5,46.932,85.04,46.932Z" fill="#d0a183"></path><path d="M66.04,53.932a20.82,20.82,0,0,0,2,6,18.86,18.86,0,0,0,11-1,31.2533,31.2533,0,0,0,1-6.14A28.1407,28.1407,0,0,0,66.04,53.932Z" fill="#e4c4af"></path><path d="M69.76,60.232c-.88-2.12-1.82-4.6-2-5.28a38.5023,38.5023,0,0,1,12.12-.72,5.8424,5.8424,0,0,1,.12-1.44,28.7614,28.7614,0,0,0-14,1.14,20.82,20.82,0,0,0,2,6A17.555,17.555,0,0,0,69.76,60.232Z" fill="#d8ab8d"></path><path d="M62.04,53.932a20.82,20.82,0,0,1-2,6,18.86,18.86,0,0,1-11-1,31.2608,31.2608,0,0,1-1-6.14A28.1407,28.1407,0,0,1,62.04,53.932Z" fill="#e4c4af"></path><path d="M48.04,52.772a31.2593,31.2593,0,0,0,.98,6.14,10.7728,10.7728,0,0,0,1.76.64,50.6554,50.6554,0,0,1-1.04-5.44,28.1417,28.1417,0,0,1,11.64,1.16l.36.1a8.8835,8.8835,0,0,0,.3-1.46A28.86,28.86,0,0,0,48.04,52.772Z" fill="#d8ab8d"></path><path d="M47.18,50.172a9.3406,9.3406,0,0,1,6.4-1.02c1.08.14,2.12.34,3.16.58a24.5743,24.5743,0,0,0,2.98.6h0a1.02,1.02,0,1,1-.26,2h-.12c-1.14-.3-2-.68-3.08-1.02s-2-.66-2.94-.9a12.6058,12.6058,0,0,0-2.98-.42,4.36,4.36,0,0,0-2.78.78.36.36,0,1,1-.44-.56Z" fill="#333"></path><path d="M58.66,55.512c-1.16-.66-3.86-3.84-7.72-.66a8.3159,8.3159,0,0,1-1.52-.5,9.78,9.78,0,0,1,6.62-.52" fill="#7f7f7f"></path><path d="M58.66,56.0156a.4992.4992,0,0,1-.2491-.0664,7.6791,7.6791,0,0,1-.7187-.5019,9.0786,9.0786,0,0,0-1.7862-1.13,9.2733,9.2733,0,0,0-2.0751-.3223,5.1487,5.1487,0,0,0-2.57,1.2451l-.19.1563-.24-.0537a8.7423,8.7423,0,0,1-1.6133-.53l-1.0322-.4551,1.0283-.4648a10.2417,10.2417,0,0,1,4.6318-.9053,4.8664,4.8664,0,0,1,2.292.3486l.0371.0108a.5111.5111,0,0,1,.1446.0654,9.7323,9.7323,0,0,1,1.98,1.23,6.642,6.642,0,0,0,.61.4316.5038.5038,0,0,1-.249.9414Z" fill="#7f7f7f"></path><path d="M80.34,50.752a4.3,4.3,0,0,0-2.78-.76,13.7609,13.7609,0,0,0-2.98.44,29.38,29.38,0,0,0-2.94.9,27.3429,27.3429,0,0,1-3.12.98,1.0261,1.0261,0,1,1-.46-2h.16a29.6227,29.6227,0,0,0,2.96-.58,29.9406,29.9406,0,0,1,3.16-.58,9.22,9.22,0,0,1,6.4,1,.3606.3606,0,0,1-.4.6Z" fill="#333"></path><path d="M64.04,68.7217a4.5277,4.5277,0,0,1-2.3408-.5918,3.0782,3.0782,0,0,0-1.6592-.4278.75.75,0,1,1,0-1.5,4.5279,4.5279,0,0,1,2.3409.5918,3.4313,3.4313,0,0,0,3.3183,0,4.5277,4.5277,0,0,1,2.3408-.5918.75.75,0,0,1,0,1.5,3.0781,3.0781,0,0,0-1.6591.4278A4.5279,4.5279,0,0,1,64.04,68.7217Z" fill="#c6977d"></path><path d="M64.12,69.9023a.75.75,0,0,1-.75-.75v-1.5a.75.75,0,0,1,1.5,0v1.5A.75.75,0,0,1,64.12,69.9023Z" fill="#c6977d"></path><path d="M57.6992,74.3223a.7406.7406,0,0,1-.3183-.0713.75.75,0,0,1-.3594-.9981l.66-1.4a.75.75,0,0,1,1.3575.6387l-.66,1.4A.75.75,0,0,1,57.6992,74.3223Z" fill="#c6977d"></path><path d="M70.5205,74.3223a.75.75,0,0,1-.68-.4307l-.6592-1.4a.75.75,0,0,1,1.3575-.6387l.6591,1.4a.75.75,0,0,1-.6777,1.0694Z" fill="#c6977d"></path><path d="M65.76,70.432a3.6792,3.6792,0,0,1-1.56.4c-.4,0-.44,0-1.36-.4-1.6-.64-1.7,1.32-4.66,2.4l1.86,1.88a4.3,4.3,0,0,0,3.1,1.12h2a5,5,0,0,0,3.34-1.2l1.72-1.8C67.38,71.812,67.36,69.812,65.76,70.432Z" fill="#a56659"></path><path d="M64.1973,73.3584l-.1573-.0527a6.5559,6.5559,0,0,0-3.956-.2051A9.2578,9.2578,0,0,1,58.2,73.332a.5.5,0,1,1,0-1,8.2971,8.2971,0,0,0,1.6894-.2129,7.4513,7.4513,0,0,1,4.3135.1875,7.6,7.6,0,0,1,4.32-.1826,8.3124,8.3124,0,0,0,1.6768.208.5.5,0,0,1,0,1,9.1408,9.1408,0,0,1-1.87-.2275,6.73,6.73,0,0,0-3.9756.2031Z" fill="#743f40"></path><path d="M64.2,67.7217a4.583,4.583,0,0,1-2.335-.5791,3.1376,3.1376,0,0,0-1.665-.4209.75.75,0,1,1,0-1.5,4.583,4.583,0,0,1,2.335.5791,3.5037,3.5037,0,0,0,3.33,0,4.583,4.583,0,0,1,2.335-.5791.75.75,0,0,1,0,1.5,3.1376,3.1376,0,0,0-1.665.4209A4.583,4.583,0,0,1,64.2,67.7217Z" fill="#af7558"></path><ellipse cx="55.06" cy="55.132" rx="1.62" ry="1.14" style="fill:#7f7f7f"></ellipse><path d="M69.42,55.512c1.16-.66,3.86-3.84,7.72-.66a8.3159,8.3159,0,0,0,1.52-.5,9.78,9.78,0,0,0-6.62-.52" fill="#7f7f7f"></path><path d="M69.42,56.0156a.5038.5038,0,0,1-.249-.9414,6.6425,6.6425,0,0,0,.61-.4316,9.8206,9.8206,0,0,1,1.9805-1.23.5118.5118,0,0,1,.1445-.0654l.0381-.0108a4.8781,4.8781,0,0,1,2.292-.3476,10.2606,10.2606,0,0,1,4.6309.9043l1.0283.4648-1.0322.4551a8.7458,8.7458,0,0,1-1.6133.53l-.24.0537-.1905-.1563A5.1547,5.1547,0,0,0,74.25,53.9951a9.2837,9.2837,0,0,0-2.0762.3223h0a9.0777,9.0777,0,0,0-1.7861,1.13,7.6655,7.6655,0,0,1-.7188.5019A.4985.4985,0,0,1,69.42,56.0156Z" fill="#7f7f7f"></path><ellipse cx="73.02" cy="55.132" rx="1.62" ry="1.14" style="fill:#7f7f7f"></ellipse><path d="M62.9932,85.4863a11.2862,11.2862,0,0,1-8.7784-4.18c-1.27-1.3173-2.4775-2.45-3.6464-3.5459C46.6416,74.0781,43.54,71.17,43.54,65.9316V64.2627c-2.3173-.5361-5.1806-2.5752-5.9892-9.1484-.4385-3.59.1006-6.3565,1.5586-8.003A4.8545,4.8545,0,0,1,41.54,45.6191V42.9316c0-13.8642,7.99-21.5,22.5-21.5s22.5,7.6358,22.5,21.5v2.6875a4.8552,4.8552,0,0,1,2.4307,1.4922c1.458,1.6465,1.9971,4.4131,1.5586,8.002-.81,6.5732-3.6729,8.6133-5.9893,9.1494v1.6689c0,5.2-3.1025,8.084-7.0312,11.7354-1.207,1.1221-2.4551,2.2822-3.7608,3.6367a11.1942,11.1942,0,0,1-9.7041,4.1348C63.6924,85.4707,63.3408,85.4863,62.9932,85.4863ZM64.04,24.4316c-12.9394,0-19.5,6.2246-19.5,18.5v4a1.5,1.5,0,0,1-1.5,1.5,2.0855,2.0855,0,0,0-1.6845.668c-.8467.957-1.1485,3.0166-.8262,5.65.374,3.0479,1.4609,6.6816,4.5107,6.6816a1.5,1.5,0,0,1,1.5,1.5v3c0,3.9385,2.419,6.2071,6.08,9.6407,1.1533,1.082,2.461,2.3076,3.8008,3.7q.0454.0483.0879.1a8.3079,8.3079,0,0,0,7.374,3.0674,1.6128,1.6128,0,0,1,.3076,0,8.1866,8.1866,0,0,0,7.2559-3.0606c.0293-.0371.0605-.0723.0928-.1064,1.3808-1.4356,2.7343-2.6934,3.9277-3.8028C79.124,72.07,81.54,69.8242,81.54,65.9316v-3a1.5,1.5,0,0,1,1.5-1.5c3.0479,0,4.1358-3.6347,4.5118-6.6836.3212-2.6318.0195-4.6914-.8272-5.6484a2.0857,2.0857,0,0,0-1.6846-.668,1.5,1.5,0,0,1-1.5-1.5v-4C83.54,30.6562,76.98,24.4316,64.04,24.4316Z" fill="#333"></path><path d="M65.7969,55.3486a2.754,2.754,0,0,0-3.3125,0l-1.209-1.5937a4.7578,4.7578,0,0,1,5.7285,0Z" fill="#333"></path><path d="M64.04,18.752c-17.22,0-24.88,14.22-24.88,22,0,5.06,5.88,6.54,5.88,11.82,0-13.88,7.46-15.62,19-21.86,11.54,6.24,19,7.2,19,21.86,0-4.4,5.86-6.76,5.88-11.82C88.92,32.972,81.26,18.752,64.04,18.752Z" fill="#333"></path><path d="M56.16,61.3359a19.7961,19.7961,0,0,1-7.4981-1.4785,1,1,0,0,1-.584-.6533,28.3861,28.3861,0,0,1-.7715-3.5918l-.9736-.9736a.9993.9993,0,0,1-.293-.7071v-1a.9989.9989,0,0,1,.8057-.98,30.0269,30.0269,0,0,1,15.5176,1.0342.999.999,0,0,1,.6621,1.1152A21.7614,21.7614,0,0,1,60.93,60.3887a.9988.9988,0,0,1-.6846.5215A19.8939,19.8939,0,0,1,56.16,61.3359Zm-6.2881-3.1513a17.7654,17.7654,0,0,0,9.4931.86A19.7448,19.7448,0,0,0,60.8906,54.61a28.0335,28.0335,0,0,0-11.8017-1.001A26.5417,26.5417,0,0,0,49.8721,58.1846Z" fill="#333"></path><path d="M64.04,18.752c-17.22,0-24.88,14.22-24.88,22,0,6.88,5.88,8.66,5.88,14v-6.1c15.64-.1,20.82-2.46,24.82-7.54a1.28,1.28,0,0,1,2,0c2,2.82,5.14,5.28,11.12,7.28v6.38c0-4.4,5.88-7.04,5.88-14C88.92,32.972,81.26,18.752,64.04,18.752Z" fill="#333"></path><path d="M64.04,18.752c-17.22,0-24.88,14.22-24.88,22,0,5.3,3.46,7.58,5.08,10.74v-1.7c-5.56-21.1,16-31.06,31.2-28.7A26.12,26.12,0,0,0,64.04,18.752Z" fill="#4c4a4a"></path><path d="M82.36,54.772a7,7,0,0,1,.94-3.54,32.3032,32.3032,0,0,1,1.78-2.82,15.5188,15.5188,0,0,0,2.62-5.52,17.44,17.44,0,0,0-2.9-11.62,23.2007,23.2007,0,0,0-8.88-8.38,26.68,26.68,0,0,0-23.72,0,23.3409,23.3409,0,0,0-8.86,8.34,17.44,17.44,0,0,0-2.94,11.58,14.36,14.36,0,0,0,2.78,5.4,10.48,10.48,0,0,1,2.56,6.38h0a.7.7,0,0,1-1.38,0c0-4-4.84-6.44-5.9-11.32a15.12,15.12,0,0,1,.2-6.96,25.54,25.54,0,0,1,12.14-16,28,28,0,0,1,26.42,0,25.46,25.46,0,0,1,9.6,9.56,24.4427,24.4427,0,0,1,2.58,6.3,15.02,15.02,0,0,1,.24,6.94,16.74,16.74,0,0,1-3.18,6,10.5006,10.5006,0,0,0-2.74,5.32.66.66,0,0,1-.6588.6612c-.0137,0-.0275,0-.0412-.0012A.64.64,0,0,1,82.36,54.772Z" fill="#333"></path><path d="M44.36,54.772l-.32-6.12a.92.92,0,0,1,.86-.96h0c2.38-.12,4.76-.24,7.1-.5a48.6509,48.6509,0,0,0,6.9-1.12,18.4779,18.4779,0,0,0,6.1-2.58,19.0583,19.0583,0,0,0,4.6-4.7h0a1.44,1.44,0,0,1,2-.28,1.6619,1.6619,0,0,1,.4.44,16,16,0,0,0,4.64,5.24,26.7366,26.7366,0,0,0,6.52,3.34h0a.92.92,0,0,1,.6.9c0,2.12-.18,4.26-.28,6.38a.7.7,0,0,1-1.38,0c0-2.12-.22-4.26-.3-6.38l.66.92a30.0019,30.0019,0,0,1-7.28-3.14,17.7394,17.7394,0,0,1-5.76-5.8h2.44a18.12,18.12,0,0,1-5.34,5.56,20.2586,20.2586,0,0,1-7.16,2.74,67.8753,67.8753,0,0,1-14.6.86l1.28-.94-.28,6.12a.7.7,0,0,1-.72.66.66.66,0,0,1-.68-.6394Z" fill="#333"></path><path d="M71.92,61.3359A19.8867,19.8867,0,0,1,67.835,60.91a.9986.9986,0,0,1-.6846-.5215,21.7614,21.7614,0,0,1-2.0957-6.2881.999.999,0,0,1,.6621-1.1152,30.0262,30.0262,0,0,1,15.5176-1.0342.9988.9988,0,0,1,.8056.98v1a.9992.9992,0,0,1-.2929.7071l-.9737.9736a28.3858,28.3858,0,0,1-.7714,3.5918,1,1,0,0,1-.584.6533A19.7961,19.7961,0,0,1,71.92,61.3359Zm-3.2051-2.291a17.7453,17.7453,0,0,0,9.4932-.86,26.5417,26.5417,0,0,0,.7832-4.5752A28.063,28.063,0,0,0,67.19,54.61,19.75,19.75,0,0,0,68.7148,59.0449Z" fill="#333"></path></g></g></g></g></svg>