<svg xmlns="http://www.w3.org/2000/svg" viewBox="0 0 128 128"><title>vol-03$set-012@superhero-black-panther-comics</title><g id="vol-03_set-012_superhero-black-panther-comics" data-name="vol-03$set-012@superhero-black-panther-comics"><path d="M64.36,62.66a25.5,25.5,0,1,1,25.5-25.5A25.5291,25.5291,0,0,1,64.36,62.66Zm0-48a22.5,22.5,0,1,0,22.5,22.5A22.5255,22.5255,0,0,0,64.36,14.66Z" fill="#333"></path><path d="M101.36,88.08a87.9973,87.9973,0,0,0-20-8.96v-8.4h-34v7.36a95.2361,95.2361,0,0,0-20.54,10C16.36,90.58,11.18,91.34,9,104.94a135.2591,135.2591,0,0,0,54.78,11.64h.36a137.659,137.659,0,0,0,55.22-11.42C117.14,91.56,111.82,90.72,101.36,88.08Z" fill="#3e4142"></path><path d="M26.82,94.08a73.362,73.362,0,0,1,14.58-7.1c4.94-1.76,5.06-6.24,5.06-8.62a95.48,95.48,0,0,0-19.64,9.72C16.36,90.58,11.18,91.34,9,104.94c.42.2.86.36,1.28.54C13,97.96,18.3,96.08,26.82,94.08Z" fill="#4a4e4f"></path><path d="M64.36,116.58a137.7,137.7,0,0,0,55-11.42c-2.22-13.6-7.54-14.44-18-17a87.9973,87.9973,0,0,0-20-8.96V70.8h-34v7.14l14,16.22a10.86,10.86,0,0,1,3,7.02Z" fill="#37393a"></path><path d="M101.36,88.08a86.3165,86.3165,0,0,0-20-8.96A7.84,7.84,0,0,0,86.56,87a72.517,72.517,0,0,1,14.62,7.08C111,96.54,115,98.34,117.84,105.8l1.52-.64C117.14,91.56,111.82,90.72,101.36,88.08Z" fill="#3e4142"></path><path d="M64.4663,118.08H63.78A135.9267,135.9267,0,0,1,8.3911,106.3115a1.5,1.5,0,0,1-.8721-1.6084C9.7822,90.584,15.6626,89.1875,25.4043,86.875l.8188-.1953A96.9052,96.9052,0,0,1,45.86,77.0176V70.8h3v7.28a1.5,1.5,0,0,1-1.01,1.4179A93.88,93.88,0,0,0,27.6333,89.34a1.4762,1.4762,0,0,1-.4648.1993l-1.0713.2548c-9.357,2.2207-13.4063,3.1817-15.4214,14.2442A132.9177,132.9177,0,0,0,63.7812,115.08h.6817a135.3277,135.3277,0,0,0,53.2163-10.83c-2.0547-11.0762-6.1587-12.0742-15.6367-14.38l-1.0391-.2529a1.5013,1.5013,0,0,1-.4223-.1748,86.5426,86.5426,0,0,0-19.6592-8.8076A1.4994,1.4994,0,0,1,79.86,79.2V70.8h3v7.2969a89.5355,89.5355,0,0,1,19.08,8.6611l.8115.1973c9.8428,2.3935,15.7842,3.8388,18.0893,17.9638a1.5012,1.5012,0,0,1-.8823,1.6172A138.3438,138.3438,0,0,1,64.4663,118.08Z" fill="#333"></path><path d="M88.36,37.16l-.84,21.62a13.44,13.44,0,0,1-2.88,7.82L76.4,77.08a13.48,13.48,0,0,1-10.6,5H63a13.5,13.5,0,0,1-10.62-5.16L44.14,66.44a13.58,13.58,0,0,1-2.88-7.82l-.9-21.54c0-8-3-13,0-25,4.9,2.94,7.06,2,10.94,4.86a24,24,0,0,1,26.18,0c2.44-2,5.88-2,10.88-4.9C91.36,24.08,88.36,29.02,88.36,37.16Z" fill="#3e4142"></path><path d="M77.48,17.06a24,24,0,0,0-13.12-3.9h0c-6,18-7.72,48-6.96,68a13.7591,13.7591,0,0,0,5.6.92h2.8a13.46,13.46,0,0,0,10.6-5.16l8.24-10.48a13.44,13.44,0,0,0,2.88-7.82L88.36,37c0-8.14,3-13,0-25C83.36,15.16,79.92,15.02,77.48,17.06Z" fill="#37393a"></path><path d="M57.14,46.76l2-1.1-.34.42-.2-5,.58.74a14.801,14.801,0,0,1-7.06-3.38,14.32,14.32,0,0,1-4-6.7,20.6822,20.6822,0,0,1-.78-3.8,15.0586,15.0586,0,0,0-.68-3.5A18,18,0,0,0,43,18.3h0a.44.44,0,0,1,0-.62h0a.44.44,0,0,1,.6,0,17.4806,17.4806,0,0,1,4.3,6.4A16.3813,16.3813,0,0,1,49,27.76a20.4621,20.4621,0,0,0,.9,3.46,14.64,14.64,0,0,0,3.54,6,13.8007,13.8007,0,0,0,6.1,3.3h0a.7.7,0,0,1,.52.72l-.14,4.84h0a.56.56,0,0,1-.32.46l-2,.9a.4442.4442,0,1,1-.46-.76h0Z" fill="#666"></path><path d="M61.9,45.16c-.14-2-.26-4-.32-6l.48.72a26.5577,26.5577,0,0,1-4.92-2.38A14.86,14.86,0,0,1,53,33.74a12.8209,12.8209,0,0,1-2.28-5.14,14.14,14.14,0,0,1,0-5.5.46.46,0,0,1,.5767-.3011L51.3,22.8a.46.46,0,0,1,.32.42h0a14.7206,14.7206,0,0,0,.54,4.86,12.56,12.56,0,0,0,2.36,4.3,21.0009,21.0009,0,0,0,3.68,3.36,31.4436,31.4436,0,0,0,4.44,2.54h.1a.8.8,0,0,1,.4.68c0,2-.2,4-.34,6a.42.42,0,0,1-.42.42h0A.46.46,0,0,1,61.9,45.16Z" fill="#666"></path><path d="M59.66,52.08a16.5608,16.5608,0,0,1,1.08,3.64c0,1.3,0,2.48.1,3.74l.16,7.4c0,2.52.16,4.86,0,7.52a10,10,0,0,1-1.12,3.7L58.3,81.44l-1.8-.9,1.74-3.28a8.5812,8.5812,0,0,0,1.24-3.18c.14-2.28.14-4.88.22-7.32l.16-7.42v-3.6A16.0993,16.0993,0,0,0,59,52.26Z" fill="#333"></path><path d="M69.66,52.26a15.9993,15.9993,0,0,0-.88,3.5v3.68L69,66.86c0,2.44,0,5.04.2,7.32a8.64,8.64,0,0,0,1.24,3.16l1.74,3.28-1.78.9-1.56-3.44a10,10,0,0,1-1.26-3.78c0-2.66,0-5,.12-7.52l.16-7.42c0-1.26,0-2.44.12-3.74A15.6032,15.6032,0,0,1,69,52.08Z" fill="#333"></path><path d="M43.8,38.08a7.44,7.44,0,0,0,1.2,2,4.7187,4.7187,0,0,0,1.78,1.28h-.66a9.76,9.76,0,0,1,6-.22,7.4,7.4,0,0,1,4.62,3.82.48.48,0,0,1-.22.62.46.46,0,0,1-.54-.12h0a7.34,7.34,0,0,0-2-1.68,7.18,7.18,0,0,0-2.36-.8A15.4746,15.4746,0,0,0,49,42.9a10.8382,10.8382,0,0,0-2.54.24h0a.68.68,0,0,1-.56,0,5.5591,5.5591,0,0,1-2.14-2A7.18,7.18,0,0,1,43,38.28a.4133.4133,0,1,1,.8-.2Z" fill="#666"></path><polygon points="65.86 13.16 64.84 24.16 63.86 24.16 62.86 13.16 65.86 13.16" fill="#666"></polygon><path d="M62.7773,83.582a14.8524,14.8524,0,0,1-11.6479-5.6035L42.8809,67.4863a14.9863,14.9863,0,0,1-3.1993-8.6845l-.8208-21.625a48.9486,48.9486,0,0,0-.64-7.1221,41.922,41.922,0,0,1,.6836-18.2988,1.5,1.5,0,0,1,2.2065-.9336,22.88,22.88,0,0,0,5.3194,2.2363A17.768,17.768,0,0,1,51.3394,15.19a25.5158,25.5158,0,0,1,26.0776-.0147,17.561,17.561,0,0,1,3.956-1.67,28.66,28.66,0,0,0,6.2149-2.711,1.5,1.5,0,0,1,2.227.9219,41.6916,41.6916,0,0,1,.6836,18.2471A48.2905,48.2905,0,0,0,89.86,37L89.019,58.6787a14.8462,14.8462,0,0,1-3.2011,8.69L77.5791,77.8467A14.8708,14.8708,0,0,1,65.8032,83.58H63C62.9258,83.5811,62.8516,83.582,62.7773,83.582ZM41.3833,14.36a39.4213,39.4213,0,0,0-.1914,15.2763A51.8347,51.8347,0,0,1,41.86,37.12l.8193,21.5635a12,12,0,0,0,2.5615,6.95l8.2383,10.48A11.8661,11.8661,0,0,0,62.978,80.58h2.8247a11.8894,11.8894,0,0,0,9.4165-4.585l8.2417-10.4814a11.876,11.876,0,0,0,2.56-6.95l.84-21.6221a51.2666,51.2666,0,0,1,.667-7.3984,39.1533,39.1533,0,0,0-.185-15.1914,35.1286,35.1286,0,0,1-5.024,2,11.6719,11.6719,0,0,0-3.8769,1.7793,1.4984,1.4984,0,0,1-1.78.1064,22.5167,22.5167,0,0,0-24.5434,0,1.4992,1.4992,0,0,1-1.7-.0439,14.3219,14.3219,0,0,0-4.8711-2.2686A27.68,27.68,0,0,1,41.3833,14.36Z" fill="#333"></path><path d="M69.18,50.58c-.88-.18-1.74-.4-2.6-.66l-1.28-.4a2.9582,2.9582,0,0,0-.94,0,4.8379,4.8379,0,0,0-.94.14l-1.28.38c-.88.22-1.72.48-2.62.64a.46.46,0,0,1-.519-.3922L59,50.28h0a.46.46,0,0,1,.2-.48c.76-.5,1.56-.9,2.34-1.34l1.18-.62a3.4206,3.4206,0,0,1,1.66-.38,4.3006,4.3006,0,0,1,1.64.4l1.18.6c.8.42,1.58.86,2.34,1.34a.48.48,0,0,1,.16.64A.5.5,0,0,1,69.18,50.58Z" fill="#666"></path><path d="M51.56,45.16a6,6,0,0,0-4.7,1.38.24.24,0,0,0,0,.28,4.221,4.221,0,0,0,.84,1.12c3.28,3.3,7,.82,8.7.36a.24.24,0,0,0,.18-.28.18.18,0,0,0,0-.12A7.78,7.78,0,0,0,51.56,45.16Z" fill="#333"></path><path d="M65.9,45.16c-.14-2-.26-4-.32-6a.7.7,0,0,1,.4-.68h0a31.438,31.438,0,0,0,4.44-2.54,21.0009,21.0009,0,0,0,3.68-3.36,12.6209,12.6209,0,0,0,2.44-4.5A15.2,15.2,0,0,0,77,23.22h0a.44.44,0,0,1,.3964-.48l.0036,0h0a.44.44,0,0,1,.46.36,13.42,13.42,0,0,1,0,5.5,12.8209,12.8209,0,0,1-2.28,5.14,14.86,14.86,0,0,1-4.14,3.76,26.7446,26.7446,0,0,1-4.94,2.38l.5-.72c0,2-.2,4-.34,6a.42.42,0,0,1-.42.42h0A.46.46,0,0,1,65.9,45.16Z" fill="#666"></path><path d="M77.16,45.16a6,6,0,0,1,4.68,1.38.24.24,0,0,1,0,.28,5.0391,5.0391,0,0,1-.82,1.12c-3.3,3.3-7.02.82-8.72.36a.24.24,0,0,1-.18-.28.18.18,0,0,1,0-.12A7.88,7.88,0,0,1,77.16,45.16Z" fill="#333"></path><path d="M86.86,37.16a22.96,22.96,0,0,0-1.12-9.8.4833.4833,0,1,1,.88-.4,25.14,25.14,0,0,1,3.24,10.2h0A1.54,1.54,0,0,1,88.5,38.8a1.5,1.5,0,0,1-1.64-1.34h0A.665.665,0,0,1,86.86,37.16Z" fill="#333"></path><path d="M43,27.36a22.64,22.64,0,0,0-1.1,9.8,1.5085,1.5085,0,0,1-3,.32.7612.7612,0,0,1,0-.3h0a24.5389,24.5389,0,0,1,3.24-10.2.46.46,0,0,1,.6188-.2006l.0012.0006h0A.48.48,0,0,1,43,27.36Z" fill="#333"></path><path d="M71.14,47.56l-2-.9a.5.5,0,0,1-.34-.58h0l-.2-5a.7.7,0,0,1,.52-.72h0a13.66,13.66,0,0,0,6-3.3,14.46,14.46,0,0,0,3.56-6,22.4767,22.4767,0,0,0,.88-3.46A17.7006,17.7006,0,0,1,85,17.6a.44.44,0,0,1,.62,0h0a.44.44,0,0,1,0,.6h0a18,18,0,0,0-3.5,6.22,14.0021,14.0021,0,0,0-.7,3.5,22.446,22.446,0,0,1-.76,3.8,14.2,14.2,0,0,1-4.12,6.7,14.62,14.62,0,0,1-7.06,3.38l.58-.74-.14,5.02-.32-.5,2,1.1a.46.46,0,0,1,.18.62.48.48,0,0,1-.6243.2666Z" fill="#666"></path><path d="M57.62,51.56,55,53.4a7.9991,7.9991,0,0,0-2,2,6.66,6.66,0,0,0-1.04,2.56c-.14.86-.16,2-.26,3.02l-.86,12.5-3-.32,1.9-12.4c.18-1.06.24-2,.52-3.18a8.3794,8.3794,0,0,1,1.56-3.06,8.98,8.98,0,0,1,2.6-2.14L57,50.76Z" fill="#333"></path><path d="M71.62,50.76l2.68,1.62a9.1,9.1,0,0,1,2.58,2.12,8.4588,8.4588,0,0,1,1.56,3.08c.28,1.2.36,2.12.54,3.18l1.88,12.38-2.98.34L77,60.98a23.3936,23.3936,0,0,0-.24-3.02A7.0188,7.0188,0,0,0,75.7,55.4a7.9991,7.9991,0,0,0-2-2L71,51.56Z" fill="#333"></path><path d="M83.72,48.44a9.9994,9.9994,0,0,1-4.52,3.82,9.539,9.539,0,0,1-2.98.62l-2.86.1.72-.46-2,4a.9.9,0,0,1-1.18.42h0a13.28,13.28,0,0,0-6.5-1.76,12.7612,12.7612,0,0,0-3.4.5,13.36,13.36,0,0,0-3.12,1.3h0a.92.92,0,0,1-1.24-.32h0l-2-4,.74.46-2.86-.1a9.12,9.12,0,0,1-3-.62,9.66,9.66,0,0,1-4.56-4h0a.46.46,0,0,1,.16-.62.44.44,0,0,1,.6.1,8.86,8.86,0,0,0,4.24,3.14,8.0007,8.0007,0,0,0,2.58.38H55.4a.78.78,0,0,1,.7.42h0l2.1,4-1.34-.36a14.14,14.14,0,0,1,7.52-2.24,13.5821,13.5821,0,0,1,4,.62,14.3156,14.3156,0,0,1,3.6,1.66l-1.32.34,2-4h0a.82.82,0,0,1,.72-.42H76.2a7.9976,7.9976,0,0,0,2.56-.4A8.52,8.52,0,0,0,83,47.88a.5.5,0,0,1,.76.6Z" fill="#666"></path><polygon points="64.36 93.16 61.36 98.18 64.36 109.16 67.36 98.18 64.36 93.16" fill="#666"></polygon><path d="M64.36,109.66a.5.5,0,0,1-.4825-.3682l-3-10.9805a.502.502,0,0,1,.0533-.3886l3-5.02a.5211.5211,0,0,1,.8584,0l3,5.02a.5024.5024,0,0,1,.0532.3886l-3,10.9805A.5.5,0,0,1,64.36,109.66ZM61.8984,98.2529l2.4615,9.01,2.4614-9.01L64.36,94.1348Z" fill="#666"></path><polygon points="55.34 91.78 50.96 95.64 50.52 107.04 56.68 97.46 55.34 91.78" fill="#666"></polygon><path d="M50.52,107.54a.5007.5007,0,0,1-.5-.52l.44-11.4a.5012.5012,0,0,1,.169-.3555l4.38-3.8593a.5.5,0,0,1,.8174.26l1.34,5.68a.5013.5013,0,0,1-.0664.3858l-6.16,9.58A.5.5,0,0,1,50.52,107.54Zm.9312-11.667-.3609,9.3555,5.0542-7.86-1.1-4.6612Z" fill="#666"></path><polygon points="47.14 87.74 41.82 90.12 37.96 100.84 46.72 93.56 47.14 87.74" fill="#666"></polygon><path d="M37.96,101.34a.5.5,0,0,1-.47-.6689l3.86-10.72a.497.497,0,0,1,.2661-.2871l5.32-2.38a.5.5,0,0,1,.7027.4922l-.42,5.8193a.4991.4991,0,0,1-.1792.3486l-8.76,7.28A.5.5,0,0,1,37.96,101.34Zm4.2583-10.85-3.1661,8.7929,7.1846-5.9707.3443-4.7734Z" fill="#666"></path><polygon points="40.56 81.42 34.74 82.1 27.86 91.16 38.4 86.86 40.56 81.42" fill="#666"></polygon><path d="M27.86,91.66a.5.5,0,0,1-.3985-.8028l6.88-9.0605a.5046.5046,0,0,1,.34-.1944l5.82-.68a.5063.5063,0,0,1,.4545.1923.5.5,0,0,1,.0684.4893l-2.16,5.44a.5023.5023,0,0,1-.2758.2783l-10.54,4.3A.4933.4933,0,0,1,27.86,91.66Zm7.15-9.0889-5.646,7.4355,8.65-3.5293,1.7724-4.4638Z" fill="#666"></path><polygon points="73.38 91.78 77.74 95.64 78.18 107.04 72.02 97.46 73.38 91.78" fill="#666"></polygon><path d="M78.18,107.54a.5.5,0,0,1-.42-.23l-6.16-9.58a.5.5,0,0,1-.0659-.3867l1.36-5.68a.5.5,0,0,1,.8178-.2579l4.36,3.8594a.4994.4994,0,0,1,.1679.3545l.44,11.4a.5007.5007,0,0,1-.4995.52Zm-5.624-10.1709,5.0537,7.8594-.3609-9.3564L73.6724,92.707Z" fill="#666"></path><polygon points="81.56 87.74 86.9 90.12 90.74 100.84 81.98 93.56 81.56 87.74" fill="#666"></polygon><path d="M90.74,101.34a.5.5,0,0,1-.3193-.1152l-8.76-7.28a.4991.4991,0,0,1-.1792-.3486l-.42-5.8193a.4985.4985,0,0,1,.2114-.4453.5039.5039,0,0,1,.4908-.0479l5.34,2.38a.5018.5018,0,0,1,.2671.2881l3.84,10.72a.5006.5006,0,0,1-.4707.6689Zm-8.2768-8.0283,7.1889,5.9737L86.5015,90.49l-4.3828-1.9531Z" fill="#666"></path><polygon points="88.16 81.42 93.96 82.1 100.84 91.16 90.3 86.86 88.16 81.42" fill="#666"></polygon><path d="M100.84,91.66a.4933.4933,0,0,1-.1889-.0372l-10.54-4.3a.498.498,0,0,1-.2763-.28l-2.14-5.44a.4977.4977,0,0,1,.0694-.4873.5045.5045,0,0,1,.4541-.1923l5.8.68a.5035.5035,0,0,1,.34.1944l6.88,9.0605a.5.5,0,0,1-.3985.8028ZM90.687,86.4785l8.6494,3.5283L93.69,82.5713l-4.7592-.5576Z" fill="#666"></path><path d="M64.2817,99.6621a36.5545,36.5545,0,0,1-29.705-15.3935l2.4462-1.7364a33.5207,33.5207,0,0,0,54.5777.1338l2.4385,1.7481A36.2852,36.2852,0,0,1,70.2983,99.168,36.9957,36.9957,0,0,1,64.2817,99.6621Z" fill="#666"></path><path d="M85.8,38.28a7.839,7.839,0,0,1-.92,2.64,5.82,5.82,0,0,1-2.12,2,.96.96,0,0,1-.58,0h0a10.8382,10.8382,0,0,0-2.54-.24,15.4727,15.4727,0,0,0-2.54.16,6.92,6.92,0,0,0-2.34.8,7.34,7.34,0,0,0-2,1.68h0a.52.52,0,0,1-.66,0,.46.46,0,0,1-.12-.54,7.4,7.4,0,0,1,4.62-3.82,9.76,9.76,0,0,1,6,.22h-.64a4.66,4.66,0,0,0,1.76-1.28,7.8212,7.8212,0,0,0,1.2-2,.42.42,0,0,1,.52-.28h0a.48.48,0,0,1,.32.5984l0,.0016Z" fill="#666"></path></g></svg>