<svg xmlns="http://www.w3.org/2000/svg" viewBox="0 0 128 128"><title>vol-03$set-010@celebrity-kurt-cobain-musician-rocker-grunge</title><g id="vol-03_set-010_celebrity-kurt-cobain-musician-rocker-grunge" data-name="vol-03$set-010@celebrity-kurt-cobain-musician-rocker-grunge"><path d="M88.64,73.9416a12.1211,12.1211,0,0,0,6.98-1.68c-2.78-2.14-3.7-7.76-4.1-12.66,3.52-12.72-.9-24.96-2.54-29.22C78.9,4.2616,58.26,14.8016,56,16.7016c0,0-8.94-3.72-14.26,8.82-3.48,7.26-7.54,27.62-6.7,36a34.4607,34.4607,0,0,0,4.16,12.96c.36,3.1-2,6.42-4.46,6a8.46,8.46,0,0,0,8.64,5.44,14.82,14.82,0,0,1,.8,9.88l40.48-2c3.08-3.8.8-9.86.8-9.86,3.62.4,5.9-.58,9.12-3.78A13.72,13.72,0,0,1,88.64,73.9416Z" fill="#c1b393"></path><path d="M88.64,73.9416a12.1211,12.1211,0,0,0,6.98-1.68c-2.78-2.14-3.7-7.76-4.1-12.66l-1.12-1.48s-2,5.34-6.5,5.82c0,0-1.46,7.02-4.48,10.52a9.34,9.34,0,0,0-1.42,8.24l6.22,1.8a17.06,17.06,0,0,0,10.4-4.32A13.72,13.72,0,0,1,88.64,73.9416Z" fill="#a59576"></path><path d="M111.4,96.7616a8,8,0,0,0-6-6.7c-3.08-.9-27.4-7.36-27.4-7.36v-9.7H50.72v9.62s-24.4,6.54-27.5,7.44a8,8,0,0,0-6,6.7l-1.22,7.36a110.4618,110.4618,0,0,0,48.32,10.5,110.4413,110.4413,0,0,0,48.3-10.5Z" fill="#d6b3b0"></path><path d="M63.0166,116.1289a112.6028,112.6028,0,0,1-47.6553-10.65l-1.0263-.4829,1.4052-8.48a9.4322,9.4322,0,0,1,7.1182-7.9106c2.6865-.7808,21.5-5.8311,26.3613-7.1353V71.5015H79.5V81.5483c4.8584,1.2915,23.6016,6.2788,26.3213,7.0733a9.425,9.425,0,0,1,7.0625,7.917l1.4014,8.457-1.0264.4834a112.83,112.83,0,0,1-48.9561,10.6426C63.875,116.1265,63.4453,116.1289,63.0166,116.1289ZM17.666,103.2412a109.6428,109.6428,0,0,0,46.6367,9.88,109.5047,109.5047,0,0,0,46.6514-9.88l-1.04-6.28a6.4671,6.4671,0,0,0-4.875-5.4443c-3.087-.9-27.1807-7.3013-27.4239-7.3657L76.5,83.8555v-9.354H52.22v9.271l-1.1113.2978c-.2441.0654-24.42,6.5464-27.4707,7.4317a6.49,6.49,0,0,0-4.9316,5.4594Z" fill="#d6b3b0"></path><path d="M111.4,96.7616a8,8,0,0,0-6-6.7c-2-.58-12.64-4-20-6a40.4608,40.4608,0,0,1-21.08,6.4,32.52,32.52,0,0,1-21-6.3c-7.46,2-18,5.32-20,6a8,8,0,0,0-6,6.7l-1.22,7.36a110.2817,110.2817,0,0,0,48.22,10.4,110.4413,110.4413,0,0,0,48.3-10.5Z" fill="#3c3d3d"></path><path d="M91,86.6616s11.3,2.5,14.42,3.4a8,8,0,0,1,6,6.7l1.22,7.36a110.4618,110.4618,0,0,1-48.32,10.5,110.4412,110.4412,0,0,1-48.32-10.5l1.22-7.36a8,8,0,0,1,6-6.7c3.12-.9,14.86-3.82,14.86-3.82l26.24,23.06Z" fill="#63725e"></path><path d="M64.32,114.6216a110.7211,110.7211,0,0,0,48.3-10.5l-.84-5.12a8.14,8.14,0,0,0-4.24-2.74c-2-.58-12.64-4-20-6l-2.52,1.38-20.7,17.66-20.86-18.3c-7.24,2-16.28,4.82-18.12,5.36a8,8,0,0,0-6,6.68l-.38,2.34A109.2618,109.2618,0,0,0,64.32,114.6216Z" fill="#51604c"></path><path d="M67.48,93.0016a16.8807,16.8807,0,0,0,11.74,4.9l10.74-12-5.26-1.4a39.8407,39.8407,0,0,1-19.78,6Z" fill="#333"></path><path d="M63.0771,116.1294a112.8646,112.8646,0,0,1-47.7148-10.65,1.4977,1.4977,0,0,1-.8418-1.6025l1.22-7.36a9.4322,9.4322,0,0,1,7.1182-7.9106c2.668-.7808,21.4736-5.7686,26.3418-7.0586V73.7817h3v8.92a1.5,1.5,0,0,1-1.1162,1.45c-.2442.0644-24.417,6.4653-27.4434,7.35a6.49,6.49,0,0,0-4.9345,5.46l-1.04,6.2793a109.8071,109.8071,0,0,0,46.7168,9.8809,109.77,109.77,0,0,0,46.6709-9.8809l-1.0332-6.2339a6.4847,6.4847,0,0,0-4.8818-5.49c-3.1045-.9-27.2783-7.3008-27.5225-7.3652a1.5,1.5,0,0,1-1.1162-1.45v-9.04h3v7.8858c4.8691,1.29,23.6816,6.2788,26.418,7.0737a9.4271,9.4271,0,0,1,7.0683,7.9409l1.2129,7.3145a1.4986,1.4986,0,0,1-.8418,1.603,113.0433,113.0433,0,0,1-48.9736,10.6421Q63.73,116.129,63.0771,116.1294Z" fill="#333"></path><path d="M64.32,110.8018a1.494,1.494,0,0,1-.9805-.3653l-26.6806-23.06,1.9609-2.27,25.709,22.22,25.7-21.8086,1.9414,2.2871-26.68,22.64A1.4981,1.4981,0,0,1,64.32,110.8018Z" fill="#333"></path><path d="M62.5957,92.0073a34.0928,34.0928,0,0,1-20.165-6.6382l1.7793-2.415a31.0608,31.0608,0,0,0,20.0322,6.0093A38.8546,38.8546,0,0,0,84.5146,82.896l1.6114,2.5312a41.8031,41.8031,0,0,1-21.7813,6.5342C63.7617,91.9917,63.1777,92.0073,62.5957,92.0073Z" fill="#333"></path><path d="M64.42,83.9216c3.74,0,7.2.3,10-3.3,6.66-8.58,9.48-10,9.48-16.68a8.4,8.4,0,0,0,6.48-6.5c2.18-10.82-4.14-10.82-4.32-10.82v-4.32c0-11.82-4-23.82-21.64-23.82s-21.64,12-21.64,23.82v4.32c-.18,0-6.5,0-4.32,10.82a8.4,8.4,0,0,0,6.48,6.5c0,6.62,2.82,8.1,9.48,16.68C57.22,84.2216,60.68,83.9216,64.42,83.9216Z" fill="#eed1c9"></path><path d="M88.98,30.3816C78.9,4.2616,58.26,14.8016,56,16.7016c0,0-8.94-3.72-14.26,8.82-3.48,7.26-7.78,27.64-6.7,36,1.22,9.4,4.16,12.96,4.16,12.96,0,3.32-1.4,5.82-4.46,6a8.46,8.46,0,0,0,8.64,5.44s2.3,3.38.8,9.88a19.16,19.16,0,0,0,7.62-7.22c1.78-2.66.44-8.82-1.04-10.24,0-2.9.36-6.3.42-9.56h0v-3.3a6.9,6.9,0,0,1,3.52-5.28.52.52,0,0,0-.16-.96,3.68,3.68,0,0,1-3.18-3.52v-2.3h0c0-.82.28-2,1.24-2a13.9991,13.9991,0,0,1,6,.62.56.56,0,0,1,.3.4.6.6,0,0,1-.16.48,9.4888,9.4888,0,0,1-1.34,1.02.5.5,0,0,0-.18.58.48.48,0,0,0,.52.32c2.94-.44,4.14-1.32,4.14-1.74v-2.48a2.38,2.38,0,0,1,.28-1.12l.14-.26a.34.34,0,0,0,0-.36.3.3,0,0,0-.32-.16c-3.24.18-7.32-1.46-9.78-1.74a.82.82,0,0,1-.72-.84v-3.66c0-10,7.66-11.54,9.8-11.12a30.3,30.3,0,0,0,24.84,15.82,7.64,7.64,0,0,1,6.24,2.94A65.017,65.017,0,0,0,88.98,30.3816Z" fill="#e5c2ba"></path><path d="M86,46.6216v-4.32c0-11.82-4-23.82-21.64-23.82a30.1955,30.1955,0,0,0-6.48.66v20.28a4.68,4.68,0,0,1-2.54,3.8.46.46,0,0,0,0,.88,15.7581,15.7581,0,0,1,6.26,3.48.88.88,0,0,0,1.12,0l.52-.36a.66.66,0,0,1,1.04.54v10a.36.36,0,0,0,.3594.3605c.0069,0,.0138,0,.0206-.0005.26,0,.6,0,.72.36l.82,2.86a.48.48,0,0,1-.16.52c-.7.56-.62.82-1.74.82a1.76,1.76,0,0,1-1.52-.56,6.3577,6.3577,0,0,0-.66-.54,5.0578,5.0578,0,0,0-2.1-.2.98.98,0,0,0-.9808.9791c0,.0137,0,.0273.0008.0409,0,.54.52.64,1.02.66a2.2594,2.2594,0,0,1,.96.18l.42.36a3.68,3.68,0,0,0,2.8,1.06v8.88a2,2,0,0,0,1.5,1.88c1.22.28,2.8.84,2.84,2,.26,7.12-9.36,2.48-10.64,5.82a19.3364,19.3364,0,0,0,6.34.6c3.74,0,7.2.3,10-3.3,6.66-8.58,9.48-10,9.48-16.68a8.4,8.4,0,0,0,6.48-6.5C92.56,46.6216,86.24,46.6216,86,46.6216Z" fill="#e5c2ba"></path><path d="M86.12,47.1216,84,51.5416v12.4a8.4,8.4,0,0,0,6.48-6.5C92.62,46.6216,86.3,47.1216,86.12,47.1216Z" fill="#d6b3b0"></path><path d="M82.5,65.7925V51.2l2.6758-5.5786h.9219A5.8309,5.8309,0,0,1,90.667,47.62c1.7695,2.0742,2.2021,5.4766,1.2851,10.1123a9.9107,9.9107,0,0,1-7.6416,7.6763Zm3-13.91v9.9321a6.91,6.91,0,0,0,3.5127-4.6806c.9053-4.5806.1582-6.645-.6279-7.5674a2.6693,2.6693,0,0,0-1.3653-.8511Z" fill="#d6b3b0"></path><path d="M54.42,80.6216c2.8,3.6,6.26,3.3,10,3.3s7.2.3,10-3.3c.9-1.16,1.74-2.2,2.5-3.12v-8.5a4.5,4.5,0,0,0-4.5-4.5h-16a4.5,4.5,0,0,0-4.42,4.5v8.56C52.68,78.4216,53.52,79.4416,54.42,80.6216Zm1.02-12.1a1.06,1.06,0,0,1,1.0185-1.1H61.58a3.56,3.56,0,0,0,2.84-1.58,3.62,3.62,0,0,0,2.84,1.58h5.12A1.06,1.06,0,0,1,73.4,68.52v4.8815c-2,2.28-2.3,3.06-3.54,3.06a2.48,2.48,0,0,1-2.22-1.46.84.84,0,0,0-.78-.54H62a.84.84,0,0,0-.78.54,2.46,2.46,0,0,1-2.14,1.48c-1.24,0-1.64-.8-3.54-3.06Z" fill="#d6b3b0"></path><path d="M83.02,40.8416v13.58s0-5.62,4.48-7.82Z" fill="#333"></path><path d="M83.02,55.4214a1,1,0,0,1-1-1v-13.58a1,1,0,0,1,1.7891-.6138l4.4805,5.76A.9989.9989,0,0,1,87.94,47.499c-3.8759,1.9038-3.9209,6.8726-3.9209,6.9224A1,1,0,0,1,83.02,55.4214Zm1-11.6655v4.5063a8.2392,8.2392,0,0,1,1.9912-1.9458Z" fill="#333"></path><path d="M64.5195,80.3613h-.5a1,1,0,1,1,0-2h.5a1,1,0,0,1,0,2Z" fill="#c6a7a7"></path><path d="M67.16,68.8816a5.6985,5.6985,0,0,0-2.36.26,1.5,1.5,0,0,1-.84,0,5.7391,5.7391,0,0,0-2.36-.26c-1.34.2-1.48,1.04-4.18,2.5l2.38,1.48a4.56,4.56,0,0,0,2.54.8h4.12a4.56,4.56,0,0,0,2.54-.8l2.46-1.42C68.76,69.9816,68.5,69.0016,67.16,68.8816Z" fill="#d6b3b0"></path><path d="M58.35,71.6851a4.3649,4.3649,0,0,1-1.0771-.1622.6.6,0,1,1,.2949-1.163,2.2268,2.2268,0,0,0,1.5088-.0137,11.3486,11.3486,0,0,1,2.1006-.4014,12.8573,12.8573,0,0,1,3.2275.3545,8,8,0,0,1,2.6-.3174l.1484.0249a10.8617,10.8617,0,0,0,4.2461.398.6.6,0,1,1,.1231,1.1933,12.033,12.033,0,0,1-4.6377-.4194,6.8517,6.8517,0,0,0-2.2842.3154l-.1621.0508-.165-.042a11.9075,11.9075,0,0,0-3.0254-.3613,10.0886,10.0886,0,0,0-1.8477.36A3.6825,3.6825,0,0,1,58.35,71.6851Z" fill="#af8582"></path><path d="M64.62,65.2593c-.0742,0-.1474-.002-.2217-.0064a3.969,3.969,0,0,1-2.913-1.0659.8732.8732,0,0,0-.5577-.1953H58.92a.75.75,0,0,1,0-1.5h2a2.2645,2.2645,0,0,1,1.5713.583,2.4693,2.4693,0,0,0,1.8584.6787l.0527-.0039.0528.0039a2.3494,2.3494,0,0,0,1.7236-.59,2.9223,2.9223,0,0,1,1.8106-.6719H69.82a.75.75,0,0,1,0,1.5H68a1.387,1.387,0,0,0-.8467.312A3.8193,3.8193,0,0,1,64.62,65.2593Z" fill="#b58985"></path><path d="M62.875,85.5508c-3.2754,0-6.8682-.2446-9.7363-3.9326-1.48-1.9073-2.7578-3.4463-3.8848-4.8047-3.6553-4.4043-5.6269-6.78-5.9033-11.6358a10.0278,10.0278,0,0,1-6.48-7.4043c-.9551-4.74-.5107-8.271,1.3193-10.5058a6.134,6.134,0,0,1,2.9668-2.003V42.3018c0-16.6456,8.044-25.4434,23.2627-25.4434s23.2627,8.7978,23.2627,25.4434v2.9628a6.134,6.134,0,0,1,2.9668,2.003c1.83,2.2348,2.2744,5.7656,1.3213,10.4946a10.0317,10.0317,0,0,1-6.48,7.415c-.2724,4.879-2.23,7.2305-5.86,11.5914-1.1387,1.3676-2.4287,2.9179-3.9278,4.8481-3.0908,3.9746-7.0273,3.9561-10.4892,3.9312l-.793-.0035-.7929.0035C63.3789,85.5493,63.127,85.5508,62.875,85.5508ZM64.42,20.1045c-13.4687,0-20.0166,7.2607-20.0166,22.1973v4.32a1.6228,1.6228,0,0,1-1.623,1.623,2.9044,2.9044,0,0,0-2.086,1.0894c-.8086.9951-1.5761,3.1543-.6435,7.7866a6.7758,6.7758,0,0,0,5.2265,5.2329,1.6228,1.6228,0,0,1,1.2862,1.5879c0,4.5479,1.4131,6.25,5.1885,10.7988,1.1425,1.3775,2.4384,2.9385,3.95,4.8863,2.1065,2.7085,4.5362,2.6953,7.9063,2.6748l.8115-.003.8115.003c3.38.02,5.8.0332,7.9073-2.6763,1.5312-1.9731,2.8408-3.5459,3.9961-4.9331,3.7422-4.4956,5.1425-6.1777,5.1425-10.7505a1.6232,1.6232,0,0,1,1.2862-1.5879,6.7776,6.7776,0,0,0,5.2275-5.2441c.9307-4.6211.1631-6.78-.6455-7.7754a2.9044,2.9044,0,0,0-2.085-1.0894,1.6344,1.6344,0,0,1-1.624-1.623v-4.32C84.4365,27.3652,77.8887,20.1045,64.42,20.1045Z" fill="#333"></path><path d="M80.32,48.5016a6.8793,6.8793,0,0,0-2.9-.54,20.3747,20.3747,0,0,0-3.12.16c-1.04.12-2,.18-3.14.34a8.8979,8.8979,0,0,0-2.9.84h0a.494.494,0,0,1-.6-.72,7.6588,7.6588,0,0,1,3.12-1.76,12.3157,12.3157,0,0,1,3.38-.74,16.8329,16.8329,0,0,1,3.46.2,6.58,6.58,0,0,1,3.3,1.48.4658.4658,0,0,1-.54.74Z" fill="#333"></path><path d="M48,47.8016a6.58,6.58,0,0,1,3.3-1.48,16.8329,16.8329,0,0,1,3.46-.2,12.3157,12.3157,0,0,1,3.38.74,7.6588,7.6588,0,0,1,3.12,1.76.4123.4123,0,0,1-.52.64h0a8.8979,8.8979,0,0,0-2.9-.84c-1.04-.16-2.1-.22-3.14-.34a20.3747,20.3747,0,0,0-3.12-.16,6.8793,6.8793,0,0,0-2.9.54h0a.48.48,0,0,1-.62-.2A.5.5,0,0,1,48,47.8016Z" fill="#333"></path><circle cx="55.04" cy="52.0216" r="1.58" fill="#333"></circle><circle cx="73.8" cy="52.0216" r="1.58" fill="#333"></circle><path d="M88.98,30.3816C80,8.1616,58.26,14.8016,56,16.7016c0,0-8.94-3.72-14.26,8.82-3.48,7.26-7.78,26-7,34.38a35.08,35.08,0,0,0,4.46,14.56c.48,2.94-2,6.56-4.46,6a8.46,8.46,0,0,0,8.64,5.44s2.3,3.38.8,9.88a12.76,12.76,0,0,0,7.62-7.22c2.84-5.76-1.64-11.48-3.34-13.1.24-12.16.58-29.58.58-35.7A10.72,10.72,0,0,1,59.093,28.4137q.5229-.0316,1.047-.0121c7.66,17.24,21.26,18,26,18.7,2.82.42,6.24,4.34,7.04,6.82A66.26,66.26,0,0,0,88.98,30.3816Z" fill="#c1b393"></path><path d="M60.14,28.2616l-2.22-6s-10.44,3-9,15.64A11.54,11.54,0,0,1,60.14,28.2616Z" fill="#a59576"></path><path d="M48.18,75.4816c.24-10.8.74-26.14.8-33.18v-.26c-2.32,14.2-3.4,19.32-3.76,22.54a114.961,114.961,0,0,1-.36-29.42q-2.32,10.74-4.64,21.46a155.2582,155.2582,0,0,1,2-32.66l-.14.22c-3.46,8.18-8.08,27.68-7.38,35.72.82,9.9,4.46,14.56,4.46,14.56.4,2.88-1.6,6.1-4.46,6a8.46,8.46,0,0,0,8.64,5.44s2.3,3.38.8,9.88a12.76,12.76,0,0,0,7.62-7.22C54.74,82.6016,49.28,75.7616,48.18,75.4816Z" fill="#a59576"></path><path d="M47.56,80.8216l.24-29.28v-10.96a20.0023,20.0023,0,0,1,.2-3.88,11.2794,11.2794,0,0,1,4-7.04,13.54,13.54,0,0,1,7.7-2.66,1.5021,1.5021,0,0,1,.16,3h-.18a10.6391,10.6391,0,0,0-6,2,8.58,8.58,0,0,0-3.22,5.32,16.7965,16.7965,0,0,0-.3,3.4l-.1,3.68-.28,7.32-1.32,29.26a.48.48,0,0,1-.96,0Z" fill="#333"></path><path d="M56.8,16.1416a41.9968,41.9968,0,0,0,1.2,6.16,42.9236,42.9236,0,0,0,2.18,6.18c7.66,17.24,19.74,17.24,26,18.7a8.6,8.6,0,0,1,6.22,6.24c2-9.84-2.52-20.22-3.4-23.04C83.02,11.3616,61.36,13.4016,56.8,16.1416Z" fill="#c1b393"></path><path d="M81.12,22.2216l7.86,16a112.5263,112.5263,0,0,1-14.84-13.78,56.0021,56.0021,0,0,0,11.26,17.76c-8-2.66-16.72-12.7-22.28-19.12,1.62,6.98,7.46,19.04,15.04,22,5.48,2.18,13.24,2,14.7,8.86C94.26,32.3016,83.58,24.4616,81.12,22.2216Z" fill="#a59576"></path><path d="M58.54,22.1216a50.1035,50.1035,0,0,0,5.18,11.02,23.7607,23.7607,0,0,0,8.38,8.12,42.3434,42.3434,0,0,0,11.32,4,22.1166,22.1166,0,0,1,6.14,2.3,7.7982,7.7982,0,0,1,2.44,2.48,9.2807,9.2807,0,0,1,1.04,3.26.6845.6845,0,0,1-1.34.28h0a6.46,6.46,0,0,0-3.18-4.3,19.8174,19.8174,0,0,0-5.66-1.6,34.6018,34.6018,0,0,1-12.3-3.76,25.4006,25.4006,0,0,1-8.96-9.46,44.0021,44.0021,0,0,1-4.4-12,.6927.6927,0,0,1,1.34-.34Z" fill="#333"></path><path d="M39.84,74.4016a7.32,7.32,0,0,1-.92,4.6,4.98,4.98,0,0,1-4.28,2.6l1.02-1.44a7.4,7.4,0,0,0,7.52,4.46,1.32,1.32,0,0,1,1.38.72h0a14.7752,14.7752,0,0,1,1,2.64,15.24,15.24,0,0,1,.54,2.72,13.24,13.24,0,0,1-.54,5.58,1.46,1.46,0,0,1-.78.9,1.3,1.3,0,0,1-.56.16H43.6c-1.42-.12-.76-3.3-.38-2.62l.2-.14h.14l.44-.38.64-.38c.4-.24.82-.52,1.22-.8a18.5623,18.5623,0,0,0,2.24-1.88,12.0012,12.0012,0,0,0,3.14-4.66,8,8,0,0,0-.14-5.48,16.2377,16.2377,0,0,0-3.1-4.98.7.7,0,0,1-.0305-.99L48,75.0016a.7.7,0,0,1,.94,0,16.1987,16.1987,0,0,1,4,5.24,10.22,10.22,0,0,1,.62,6.82,14.0005,14.0005,0,0,1-3.56,5.94,22.0025,22.0025,0,0,1-2.48,2.26c-.42.34-.88.68-1.34,1l-.7.46-.28.28-.18.12h-.1l.18-.12c.36.68,1.04-2.5-.4-2.62a1.5576,1.5576,0,0,0-.64,0,1.5376,1.5376,0,0,0-.52.14l-.78.9a12.002,12.002,0,0,0,.42-4.4,14.3327,14.3327,0,0,0-.34-2.26,12.2145,12.2145,0,0,0-.68-2.14l1.4.76a9.2007,9.2007,0,0,1-6-1.6,10.4607,10.4607,0,0,1-3.82-4.78h0a1.02,1.02,0,0,1,.58-1.32.8988.8988,0,0,1,.46,0,3.24,3.24,0,0,0,2.7-1.48,5.74,5.74,0,0,0,1.02-3.52h0a.68.68,0,0,1,.68-.68h0A.64.64,0,0,1,39.84,74.4016Z" fill="#333"></path><path d="M85.5,83.2816a8.3009,8.3009,0,0,0,4.5-.92,14.0008,14.0008,0,0,0,3.64-3.06l.22,2a21.5027,21.5027,0,0,1-3.76-2.74,12.42,12.42,0,0,1-2.88-4,1.5,1.5,0,0,1,.7571-1.9816l.0429-.0184a1.84,1.84,0,0,1,.66-.12h0a14.5643,14.5643,0,0,0,3.32-.28,8.9418,8.9418,0,0,0,2.86-1.02l-.12,2.14a12.76,12.76,0,0,1-3.66-7.46,20.6594,20.6594,0,0,1,.54-8,.68.68,0,0,1,.818-.5056l.022.0056a.68.68,0,0,1,.52.74h0a22.2374,22.2374,0,0,0,.24,7.3,10.82,10.82,0,0,0,3.4,5.82,1.34,1.34,0,0,1,.14,2l-.2.2h0a10.2421,10.2421,0,0,1-3.84,1.72,12.54,12.54,0,0,1-4,.34l1.52-2a12.8207,12.8207,0,0,0,5.16,5.78h0a1.18,1.18,0,0,1,.3217,1.6374l-.0017.0026a1.0407,1.0407,0,0,1-.2.22,15.82,15.82,0,0,1-4.52,3.12,9.6407,9.6407,0,0,1-5.54.44h0a.68.68,0,0,1-.5637-.7792l.0037-.0208A.68.68,0,0,1,85.5,83.2816Z" fill="#333"></path><path d="M55.7,17.3216a8.9,8.9,0,0,0-8.12,1.7,17.14,17.14,0,0,0-4.88,7.34,88.2371,88.2371,0,0,0-5.12,17.86,64.9576,64.9576,0,0,0-1.28,18.4c.74,6,2.64,12.26,7.46,16.22a.68.68,0,0,1,.1032.9561l-.0032.0039a.68.68,0,0,1-.94.12h0a19.48,19.48,0,0,1-6.12-7.6,36.54,36.54,0,0,1-2.8-9.32,56.7,56.7,0,0,1,.6-19.28,73.8567,73.8567,0,0,1,2.34-9.32,67.583,67.583,0,0,1,3.46-9.02,19.139,19.139,0,0,1,6-8,10.44,10.44,0,0,1,9.84-1.34.7.7,0,0,1-.46,1.3Z" fill="#333"></path><path d="M91.58,57.8616a44.52,44.52,0,0,0-.78-16.66,62.72,62.72,0,0,0-2.36-8,37.6821,37.6821,0,0,0-3.48-7.42,22.9591,22.9591,0,0,0-5.34-6,21.1989,21.1989,0,0,0-7.2-3.52,26.5983,26.5983,0,0,0-8.16-.8,31.77,31.77,0,0,0-4.12.52,13.8367,13.8367,0,0,0-3.76,1.22h-.12a.68.68,0,0,1-.94-.2.72.72,0,0,1,.2-.92,14.2,14.2,0,0,1,4.22-1.8,28.8919,28.8919,0,0,1,4.36-.82,28.2564,28.2564,0,0,1,8.88.42,22.8,22.8,0,0,1,14.54,10.14,32.799,32.799,0,0,1,3.66,8.12,65.1657,65.1657,0,0,1,2.12,8.5,42.2588,42.2588,0,0,1-.38,17.42.72.72,0,0,1-.84.5A.7.7,0,0,1,91.58,57.8616Z" fill="#333"></path></g></svg>