<svg xmlns="http://www.w3.org/2000/svg" viewBox="0 0 128 128"><title>vol-03$set-010@celebrity-musician-mick-jagger-rolling-stones</title><g id="vol-03_set-010_celebrity-musician-mick-jagger-rolling-stones" data-name="vol-03$set-010@celebrity-musician-mick-jagger-rolling-stones"><path d="M116.62,98.8156a14.34,14.34,0,0,0-11.02-10.5c-6.6-1.56-19.14-1.32-42-1.32s-35.3-.2-42,1.36a14.34,14.34,0,0,0-11.02,10.5L9,103.7956s21.7,12.6,54.6,12.6,54.6-12.6,54.6-12.6Z" fill="#378ca4"></path><path d="M103.94,95.1756H23.2a10.3191,10.3191,0,0,0-6.58,2.28c-3.02,2.54-7.62,6.18-7.62,6.34a124.46,124.46,0,0,0,54.6,12.6,124.46,124.46,0,0,0,54.6-12.6l-7.6-6.24A10.52,10.52,0,0,0,103.94,95.1756Z" fill="#2e7a90"></path><path d="M93.48,45.2156c-2.18-7.56-4-11.14-6.26-17.9-2.98-9.16-7.16-14-12.74-15.02a14.68,14.68,0,0,0-13.32,4.7s-10.16-12-19.38,5.14c-3.48,7.32-10.84,24.96-10,33.32.68,7.16,7.14,12,7.14,12a5.3,5.3,0,0,1-5.06,3.08,8.6,8.6,0,0,0,8.64,4.88,12.9,12.9,0,0,0,.8,8.86H83.94a12.9,12.9,0,0,0,.78-8.86c6.18.8,8.66-2,8.66-2a11.8415,11.8415,0,0,1-3.78-3.54A28.78,28.78,0,0,0,93.48,45.2156Z" fill="#6b4932"></path><path d="M83.9014,85.6963a1.5014,1.5014,0,0,1-1.4385-1.9292A38.4283,38.4283,0,0,0,83.9062,76.26l.1563-1.7227,1.6826.3979c4.6875,1.11,6.4863-1.7749,6.5606-1.8979a1.5,1.5,0,0,1,2.5976,1.5005A8.29,8.29,0,0,1,86.7168,78.14a41.4746,41.4746,0,0,1-1.3789,6.4849A1.5011,1.5011,0,0,1,83.9014,85.6963Z" fill="#333"></path><path d="M49,74.4356v8.4c0,12.58,5.48,13.14,14.64,23.06,9.18-10,14.66-10.48,14.66-23.06v-8.4Z" fill="#edccc3"></path><path d="M78.2,82.8356v-8.4H49v2l21.4,23.2C75.38,94.0356,78.2,91.8556,78.2,82.8356Z" fill="#e5c4bd"></path><path d="M63.6,82.7956c2.6,0,7.26.9,10.56-3.48,4.46-6,9.04-4.58,9.24-17.1a7.04,7.04,0,0,0,6.66-6.26c.6-3.78,1-7.16-1.1-8.96-1.58-1.48-2.28-1.58-3.58-1.1,0,0,.2-5.76.2-8.34,0-11.04-5.52-20-22-20s-22,9.14-22,20.18c0,2.58.2,8.34.2,8.34-1.3-.48-2-.38-3.58,1.1-2,1.8-1.6,5.18-1.1,8.96a7.04,7.04,0,0,0,6.66,6.26c.2,12.42,4.68,10.94,9.24,17.1C56.3,83.6956,61,82.7956,63.6,82.7956Z" fill="#edccc3"></path><path d="M89,46.9956c-1.58-1.48-2.28-1.58-3.58-1.1,0,0,.2-5.76.2-8.34,0-11.04-5.52-20-22-20a34.1917,34.1917,0,0,0-6.54.6v25.2c-.1,1.52-.94,1.82-2.14,2.6a.58.58,0,0,0,.22,1.04c2,.4,4.84,1.18,6,3.06a.4.4,0,0,0,.5655.0145l.0145-.0145c1.04-1.2,2-.9,2-.24v7.9s1.02.1,1.24,1.66c.18,1.2,0,2-1.24,2-1.62,0-2.48-1.14-4.68-1.14-1.3,0-.72,2-.76,2,.76,0,1.44-.62,2-.26a6.82,6.82,0,0,0,3.3.86v6.62a3.1359,3.1359,0,0,0,.1.6H56l1.52,3.48a2.14,2.14,0,0,0,2.38,1.28,20.3724,20.3724,0,0,1,3.7-.32,21.7341,21.7341,0,0,1,4,.34h.24a4.24,4.24,0,0,1,.24,1.44c0,6-10.84-.58-10.88,6v.22a19.5212,19.5212,0,0,0,6.44.42c2.6,0,7.26.9,10.56-3.48,4.46-6,9.04-4.58,9.24-17.1a7.04,7.04,0,0,0,6.66-6.26C90.66,52.1756,91,48.7956,89,46.9956Z" fill="#e5c2ba"></path><path d="M57.56,60.1956a5.4392,5.4392,0,0,0-2.76,1.2,7.06,7.06,0,0,0-2.66,4.68h0a13.52,13.52,0,0,0-4.94-7.28,7.28,7.28,0,0,1-3-6.5v-2a6,6,0,0,0-2.16-4.34l-.24-.12h0c-1.3-.48-2-.38-3.58,1.1-2,1.8-1.6,5.18-1.1,8.96a7.04,7.04,0,0,0,6.66,6.26c.2,12.42,4.68,10.94,9.24,17.1a8.6831,8.6831,0,0,0,1.66,1.66c-1.02-2.66-2.86-8.54-1.34-13.54a18.2825,18.2825,0,0,1,1.38-2.98,19.2839,19.2839,0,0,1,2.98-4.2h-.14Z" fill="#e5c2ba"></path><path d="M69.74,60.1956a5.3,5.3,0,0,1,2.74,1.2,7.5588,7.5588,0,0,1,1.84,2.16,7.78,7.78,0,0,1,.82,2.52h0a13.66,13.66,0,0,1,4.92-7.28,7.28,7.28,0,0,0,2.94-6.5v-2a6,6,0,0,1,2.16-4.34,1.5046,1.5046,0,0,0,.26-.12h0c1.3-.48,2-.38,3.58,1.1,2,1.8,1.6,5.18,1.1,8.96a7.04,7.04,0,0,1-6.66,6.26c-.2,12.42-4.68,10.94-9.24,17.1a9.2213,9.2213,0,0,1-1.64,1.66c1.02-2.66,2.84-8.54,1.34-13.54a22.4064,22.4064,0,0,0-1.38-2.98,20.7419,20.7419,0,0,0-2.98-4.2h.2Z" fill="#ddb9b3"></path><path d="M63.56,66.0557a1,1,0,0,1-1-1v-1.4a1,1,0,0,1,2,0v1.4A1,1,0,0,1,63.56,66.0557Z" fill="#d8b3ad"></path><path d="M63.64,64.1265a5.06,5.06,0,0,1-2.7734-.9087,1.9394,1.9394,0,0,0-2.2324-.2852.7915.7915,0,0,1-.669-1.4346,3.4754,3.4754,0,0,1,3.7159.3628,3.1513,3.1513,0,0,0,3.9179.0015,3.5055,3.5055,0,0,1,3.7334-.3652.7913.7913,0,0,1-.664,1.4365,1.9686,1.9686,0,0,0-2.2569.2866A5.0664,5.0664,0,0,1,63.64,64.1265Z" fill="#b58985"></path><path d="M89,46.9956c-1.58-1.48-2.28-1.58-3.58-1.1,0,0,.2-5.76.2-8.34,0-11.04-5.52-20-22-20s-22,9.14-22,20.18c0,2.58.2,8.34.2,8.34-1.3-.48-2-.38-3.58,1.1-1.9,1.7-1.64,4.84-1.18,8.4h0c11.14-5.48,14.52-6.28,16-22,.3-2.68,2.9-3.88,5.68-4a35.6569,35.6569,0,0,1,5.66-.1,4.34,4.34,0,0,1,3.88,3.38c1.1,5.08,2.38,11.54,9.74,15.22,9.26,4.68,8.86,8,10.74,10.54a3.2234,3.2234,0,0,0,.26.3,7.2808,7.2808,0,0,0,.98-2.84C90.66,52.1756,91,48.7956,89,46.9956Z" fill="#e5c2ba"></path><path d="M89,46.9956c-1.58-1.48-2.28-1.58-3.58-1.1,0,0,.2-5.76.2-8.34,0-11.04-5.52-20-22-20a23.0789,23.0789,0,0,0-3.38.16H60a15.5468,15.5468,0,0,0-2.94.42v11.64a9.853,9.853,0,0,1,1.74-.24,35.6451,35.6451,0,0,1,5.66-.1,4.34,4.34,0,0,1,3.88,3.38c1.1,5.08,2.38,11.54,9.74,15.22,9.26,4.68,8.86,8,10.74,10.54a3.2234,3.2234,0,0,0,.26.3h0a6.8206,6.8206,0,0,0,.6-1.28v-.1a7.0638,7.0638,0,0,0,.34-1.46C90.66,52.1756,91,48.7956,89,46.9956Z" fill="#ddb9b3"></path><path d="M58.76,50.7356c-.96-.24-1.88-.5-2.8-.7a17.9954,17.9954,0,0,0-2.72-.46,16.3192,16.3192,0,0,0-2.7-.4,6.1192,6.1192,0,0,0-2.56.44h0a.46.46,0,0,1-.64-.26.5.5,0,0,1,.12-.54,6,6,0,0,1,2.98-1.3,9.8765,9.8765,0,0,1,3.16,0,11.9978,11.9978,0,0,1,2.96.92,17.8761,17.8761,0,0,1,2.64,1.48.48.48,0,0,1,.13.6663l-.01.0137A.48.48,0,0,1,58.76,50.7356Z" fill="#333"></path><path d="M43.76,53.1156l-.16-5.14a20.5736,20.5736,0,0,1,0-2.72,14.1764,14.1764,0,0,1,.56-2.74,19.1829,19.1829,0,0,0,.84-4.76v-3.74a7.6523,7.6523,0,0,1,.1-1.52,9.2593,9.2593,0,0,1,2.8-5.4,14.9384,14.9384,0,0,1,4.9-3.08,29.8186,29.8186,0,0,1,10.74-2,28.2977,28.2977,0,0,1,10.76,2,15.3786,15.3786,0,0,1,4.9,2.98,9.62,9.62,0,0,1,2.8,5.44,9.6417,9.6417,0,0,1,0,1.52v3.74a19.2022,19.2022,0,0,0,.86,4.76,15.8174,15.8174,0,0,1,.74,2.74,20.5736,20.5736,0,0,1,0,2.72l-.22,5.14a.9.9,0,0,1-.9382.86H82.44a.92.92,0,0,1-.88-.86l-.22-5.14a12.4416,12.4416,0,0,0-.78-4.68,21.7027,21.7027,0,0,1-1.26-5.26c-.12-.9-.18-1.78-.22-2.66v-1.3a4.48,4.48,0,0,0-.08-1.02,8.18,8.18,0,0,0-6-5.54,30.9555,30.9555,0,0,0-9.36-1.5,29.4969,29.4969,0,0,0-9.42,1.42,8.18,8.18,0,0,0-5.92,5.62,8.6682,8.6682,0,0,0-.14,1.04v1.3a12.001,12.001,0,0,1-.2,2.66,23.722,23.722,0,0,1-1.26,5.26,12,12,0,0,0-.82,4.68l-.28,5.14a.9.9,0,0,1-.9382.86H44.66a.9.9,0,0,1-.9-.86Z" fill="#333"></path><path d="M60.8242,84.375c-2.7119,0-6.2851-.4922-9.0039-3.9526a21.8229,21.8229,0,0,0-3.78-3.8633c-2.8759-2.4453-5.3789-4.5728-5.7421-12.8443A8.4984,8.4984,0,0,1,35.6084,56.3c-.51-3.854-1.041-7.8731,1.5889-10.24a5.4454,5.4454,0,0,1,3.0254-1.7182c-.06-1.918-.1426-4.9121-.1426-6.6069,0-13.98,8.3457-21.68,23.5-21.68s23.5,7.6357,23.5,21.5c0,1.6953-.083,4.69-.1426,6.6074a5.5114,5.5114,0,0,1,3.0479,1.7378c2.8085,2.4053,2.1142,6.7773,1.5556,10.29a8.4607,8.4607,0,0,1-6.6787,7.3438C84.4971,71.9092,81.958,74.0454,79.0391,76.5A20.9786,20.9786,0,0,0,75.3643,80.21c-3.335,4.4258-7.9268,4.2315-10.6729,4.1177-.7969-.0332-1.4131-.0317-2.2178.0015C61.9775,84.3511,61.4219,84.375,60.8242,84.375Zm-20.17-37.05c-.332,0-.6631.2285-1.4287.9458-1.4776,1.33-1.0508,4.5523-.6387,7.6685a5.5257,5.5257,0,0,0,5.2451,4.9585A1.4993,1.4993,0,0,1,45.26,62.3711c.1289,7.9961,1.957,9.55,4.7236,11.9023a24.6334,24.6334,0,0,1,4.2227,4.33c2.3408,2.98,5.5566,2.8394,8.1386,2.73.8955-.039,1.58-.0395,2.4737-.0019,2.5712.1089,5.7636.2422,8.1435-2.9175a23.78,23.78,0,0,1,4.1465-4.21c2.707-2.2759,4.6631-3.92,4.792-12.0117a1.5,1.5,0,0,1,1.4287-1.4741,5.5137,5.5137,0,0,0,5.2393-4.9258c.5507-3.4785.88-6.4014-.585-7.6572-1.2285-1.1489-1.375-1.0918-2.084-.8316a1.5,1.5,0,0,1-2.0185-1.4594c.0019-.0572.1992-5.7632.1992-8.2876,0-12.2759-6.8975-18.5-20.5-18.5s-20.5,6.2846-20.5,18.68c0,2.5244.1972,8.2309.1992,8.288a1.5,1.5,0,0,1-2.0186,1.4595A1.8276,1.8276,0,0,0,40.6543,47.3247Z" fill="#333"></path><path d="M93.88,64.5956a35.64,35.64,0,0,0-.4-19.38c-2.18-7.56-4-11.14-6.26-17.9-2.98-9.16-7.16-14-12.74-15.02a14.68,14.68,0,0,0-13.32,4.7s-10.16-12-19.38,5.14c-3.48,7.16-10.64,24.46-10,32.92l1.48,5.94,1.74-2.76c3.38-8.36,12.92-4.78,15.3-22,1.1-8.14,5.78-9.64,12.24-9.84,0,0,8.54-.7,10,9.64,1.88,14.32,19.38,10,18.2,29.84Z" fill="#6b4932"></path><path d="M60.1,26.1556a9.86,9.86,0,0,1,6.9.58,11.48,11.48,0,0,1,5.16,5.06,20.3281,20.3281,0,0,1,1.4,3.34,24.9212,24.9212,0,0,0,1.08,3.06,16.4207,16.4207,0,0,0,3.54,5.04c2.94,2.94,7.36,4.9,10.34,8.98a14.8387,14.8387,0,0,1,1.72,3.24,15.6,15.6,0,0,1,.76,3.54,21.0592,21.0592,0,0,1-.36,6.92c-.36-4.54-1.28-9.06-4-12.18s-7-4.88-10.52-8.34a16.5,16.5,0,0,1-4-6.14,28.0012,28.0012,0,0,1-.98-3.42,15.5562,15.5562,0,0,0-.94-3.02,10.8,10.8,0,0,0-3.84-4.86A10.56,10.56,0,0,0,60.1,26.1556Z" fill="#333"></path><path d="M58.28,14.9956a11.4986,11.4986,0,0,0-4.98-2c-3.48,0-7.64,1.78-11.62,9.24-3.48,7.06-10.68,24.36-10,32.76l1.32,5.42c1.4-13.82,8.16-31.12,10.94-36.78C49.14,14.3756,54.5,13.7956,58.28,14.9956Z" fill="#826149"></path><rect x="76.7402" y="74.4355" width="3" height="14.6201" fill="#333"></rect><path d="M61.96,16.6756a3.8,3.8,0,0,0,4.28,0,14.42,14.42,0,0,1,11.24-2.78,7.9972,7.9972,0,0,1,2.12.68,12.1991,12.1991,0,0,0-6.36-3.38,14.7,14.7,0,0,0-13.14,4.48C60.76,15.9756,61.36,16.3756,61.96,16.6756Z" fill="#826149"></path><path d="M38.9189,68.7554a1.4951,1.4951,0,0,1-.8984-.2993c-.2851-.2139-7-5.3272-7.7334-13.0591-1.0107-10.7012,10.0293-33.877,10.1406-34.11,3.3526-6.23,7.2393-9.5869,11.585-10.04,5.8447-.6055,10.1143,4.3486,10.293,4.56a1.5,1.5,0,0,1-2.2881,1.94h0c-.0342-.04-3.4414-3.9649-7.7129-3.5137-3.291.3521-6.3877,3.1831-9.2041,8.4136-4.1445,8.65-10.5147,25.186-9.8272,32.4678.61,6.4243,6.4864,10.896,6.5459,10.94a1.5,1.5,0,0,1-.9,2.7007Z" fill="#333"></path><circle cx="54.38" cy="52.4356" r="1.5" fill="#3a3a3a"></circle><path d="M68.16,49.8556a17.8761,17.8761,0,0,1,2.64-1.48,11.9991,11.9991,0,0,1,2.98-.92,9.7754,9.7754,0,0,1,3.14,0,5.9992,5.9992,0,0,1,2.98,1.3.48.48,0,0,1,.0012.6788l-.0012.0012a.5.5,0,0,1-.56.12h0a5.998,5.998,0,0,0-2.56-.44,16.6266,16.6266,0,0,0-2.7.4,18.39,18.39,0,0,0-2.72.46c-.92.2-1.84.46-2.8.7a.5.5,0,0,1-.6-.34A.54.54,0,0,1,68.16,49.8556Z" fill="#333"></path><circle cx="72.94" cy="52.4356" r="1.5" fill="#3a3a3a"></circle><path d="M89.6,71.3755a1.5,1.5,0,0,1-1.0254-2.5943h0c.3584-.3388,8.7315-8.4716,3.4922-23.2856-1.0019-2.897-1.8271-5.2173-2.5937-7.375-1.2276-3.4551-2.2881-6.4385-3.6778-10.6553-2.7685-8.5132-6.5576-13.0952-11.584-14.0141a13.1046,13.1046,0,0,0-11.9345,4.206,1.5,1.5,0,1,1-2.2325-2.0029,16.1147,16.1147,0,0,1,14.6807-5.1587c6.2363,1.14,10.7822,6.3838,13.9219,16.0361,1.3769,4.1783,2.4316,7.147,3.6533,10.584.7695,2.1651,1.5967,4.4927,2.5986,7.39,5.9151,16.7251-3.8574,26.0781-4.2763,26.4682A1.498,1.498,0,0,1,89.6,71.3755Z" fill="#333"></path><path d="M43.1807,84.896a1.5,1.5,0,0,1-1.378-.9063A14.1589,14.1589,0,0,1,40.76,76.6514a10.7479,10.7479,0,0,1-8.4619-5.3706,1.5,1.5,0,0,1,2.6035-1.49,7.7515,7.7515,0,0,0,7.5224,3.8535l2.1709-.227-.5664,2.1079a11.15,11.15,0,0,0,.5283,7.2764,1.5,1.5,0,0,1-1.3759,2.0947Z" fill="#333"></path><path d="M41.24,64.9956a5.78,5.78,0,0,1-2.12,4.64,11.6809,11.6809,0,0,1-4.92,2.34h0a1.5329,1.5329,0,0,1-.72-2.98h.46a9.261,9.261,0,0,0,4.36-.6A5,5,0,0,0,41.24,64.9956Z" fill="#333"></path><path d="M87,66.9956a5.2,5.2,0,0,0,2.58,3.8,11.1612,11.1612,0,0,0,4.34,1.52,1.52,1.52,0,0,1-.48,3l-.44-.32h0a13.6613,13.6613,0,0,1-4.42-3.26A6,6,0,0,1,87,66.9956Z" fill="#333"></path><path d="M63.6,117.8955c-32.9248,0-54.4521-12.28-55.3525-12.8027a1.5,1.5,0,0,1-.6768-1.751l1.58-4.98A17.0157,17.0157,0,0,1,21.2344,86.86c1.8027-.45,16.2851-1.3965,19.17-1.5821l.1914,2.9942c-6.5742.4218-17.4463,1.2016-18.6328,1.498a14.009,14.009,0,0,0-9.9473,9.48l-1.21,3.8125c4.6982,2.4272,24.72,11.8325,52.7939,11.8325,28.1192,0,48.1045-9.4033,52.7949-11.8315L115.19,99.269a14.0164,14.0164,0,0,0-9.956-9.4985c-.9756-.2417-5.999-.5581-10.0362-.8125-4.88-.3076-7.917-.5068-8.8388-.7217l.6816-2.9218c.7256.1694,4.95.4355,8.3457.6494,5.6367.3549,9.417.6093,10.5733.8955A17.0261,17.0261,0,0,1,118.0557,98.38l1.5742,4.9614a1.5,1.5,0,0,1-.6768,1.751C118.0527,105.6152,96.5254,117.8955,63.6,117.8955Z" fill="#333"></path><rect x="62.0996" y="103.7954" width="3" height="12.6001" fill="#333"></rect><path d="M40.5,86.7756v17.02l14.7-6.34c-6.32-6.3-6.2-8.62-6.2-17.02Z" fill="#378ca4"></path><path d="M86.7,86.7756v17.02l-14.76-6.34c6.34-6.3,6.36-8.62,6.36-17.02Z" fill="#378ca4"></path><path d="M63.54,107.3955a1.4949,1.4949,0,0,1-1.0312-.4106c-.8594-.8135-1.6758-1.58-2.4512-2.3067-2.1094-1.977-3.9414-3.6958-5.51-5.3359l-13.5762,5.8315a1.5,1.5,0,0,1-2.0918-1.3784v-17.02a1.5018,1.5018,0,0,1,.6-1.2l8.4-6.3a1.5,1.5,0,0,1,2.4,1.2c0,10.9233,3.2207,13.9429,11.8291,22.0141q.6943.65,1.4316,1.3443.71-.668,1.3809-1.294C73.5654,94.4478,76.8,91.42,76.8,80.4756a1.5,1.5,0,0,1,2.4-1.2l8.4,6.3a1.5021,1.5021,0,0,1,.6,1.2v16.98a1.5,1.5,0,0,1-2.0908,1.3789L72.5566,99.3262c-1.5859,1.6606-3.4443,3.4-5.5849,5.4038-.7608.7124-1.5606,1.4614-2.4014,2.2558A1.4975,1.4975,0,0,1,63.54,107.3955Zm-21.66-19.87v13.9932l10.5635-4.5372C49.3965,93.2539,47.749,89.479,47.3672,83.41Zm32.7783,9.4375L85.2,101.4805V87.5254L79.7129,83.41C79.332,89.4648,77.69,93.2427,74.6582,96.9629Z" fill="#333"></path><rect x="47.3398" y="74.3955" width="3" height="8.4399" fill="#333"></rect><path d="M65.66,66.9956c-.68,0-1.3.42-2,.44s-.52-.22-1.74-.44c-2.16-.4-4.44,2.2-6,2.62l2.32,2a5.88,5.88,0,0,0,3.74,1.5h2.58a8.1611,8.1611,0,0,0,4.62-1.5l2.18-2C68.2,68.5556,68.2,66.7156,65.66,66.9956Z" fill="#d8b3ad"></path><path d="M56,71.6055a.75.75,0,0,1-.75-.75v-1.68a.75.75,0,0,1,1.5,0v1.68A.75.75,0,0,1,56,71.6055Z" fill="#d8b3ad"></path><path d="M71,71.6055a.75.75,0,0,1-.75-.75v-1.68a.75.75,0,1,1,1.5,0v1.68A.75.75,0,0,1,71,71.6055Z" fill="#d8b3ad"></path><path d="M71,70.6558a8.8764,8.8764,0,0,1-2.5859-.4151A7.6258,7.6258,0,0,0,66.2,69.8755a15.4109,15.4109,0,0,0-2.458.3076l-.1211.0254-.1221-.0249a15.6987,15.6987,0,0,0-2.5234-.3086,8.98,8.98,0,0,0-2.1856.3267,11.2164,11.2164,0,0,1-2.83.394.6.6,0,0,1,0-1.2,10.0732,10.0732,0,0,0,2.5517-.3613A10.1035,10.1035,0,0,1,61,68.6753a16.9228,16.9228,0,0,1,2.6191.3081,16.6263,16.6263,0,0,1,2.5557-.3076h.0039a8.7422,8.7422,0,0,1,2.5557.4087A7.78,7.78,0,0,0,71,69.4556a.6.6,0,0,1,0,1.2Z" fill="#af8582"></path><path d="M55.18,27.5156a22,22,0,0,1,9.82-3.8,11.0186,11.0186,0,0,1,5.66.9,13.1989,13.1989,0,0,1,4.34,3.68c2.22,2.94,3.62,6,5.52,8.68a17.44,17.44,0,0,0,7.58,6.18,13.68,13.68,0,0,1-9.4-4.7c-2.48-2.66-4-5.82-6-8.3a10.9394,10.9394,0,0,0-3.32-3,9.5986,9.5986,0,0,0-4.38-1.1A38.8967,38.8967,0,0,0,55.18,27.5156Z" fill="#333"></path><path d="M67.92,28.4156a36.7785,36.7785,0,0,0-9.78-.76,9.12,9.12,0,0,0-7.14,4.6c-1.68,2.58-2.76,5.8-4.54,8.82a14.9241,14.9241,0,0,1-3.4,4.12,8.3808,8.3808,0,0,1-4.88,1.88,12,12,0,0,0,6.18-7.06,64.0021,64.0021,0,0,1,4.12-9.38,12.0013,12.0013,0,0,1,4-4,10.64,10.64,0,0,1,5.48-1.34A20.681,20.681,0,0,1,67.92,28.4156Z" fill="#333"></path><path d="M35,58.2356a10.32,10.32,0,0,1,2.8-5.1c1.42-1.4,2.98-2.5,4.26-3.72a21.7817,21.7817,0,0,0,5.42-8.98c.66-1.7,1.1-3.42,1.64-5.28a19.36,19.36,0,0,1,2.44-5.48,7.66,7.66,0,0,1,5.18-3.44,19.9987,19.9987,0,0,1,5.8.16,33.9967,33.9967,0,0,0-5.42,1.26,6.28,6.28,0,0,0-3.62,3.34,20.7184,20.7184,0,0,0-1.68,5,56.8563,56.8563,0,0,1-1.56,5.56,27.0231,27.0231,0,0,1-2.6,5.36,17.0027,17.0027,0,0,1-4.14,4.4c-1.6,1.22-3.32,2-4.8,3.04A12.379,12.379,0,0,0,35,58.2356Z" fill="#333"></path></g></svg>