<svg xmlns="http://www.w3.org/2000/svg" viewBox="0 0 128 128"><title>vol-03$set-010@celebrity-matrix-neo-man-white</title><g id="vol-03_set-010_celebrity-matrix-neo-man-white" data-name="vol-03$set-010@celebrity-matrix-neo-man-white"><g id="Men"><path d="M113.72,98.34a12,12,0,0,0-9-9.34L64.24,80.78,23.74,89a12.92,12.92,0,0,0-9,10L13,107.66a123.6,123.6,0,0,0,102.58,0Z" fill="#434242"></path><path d="M104.72,95.68,64.24,87.44l-40.5,8.18a13,13,0,0,0-9,10l-.52,2.56a123.1793,123.1793,0,0,0,100.14,0l-.64-3.18A12,12,0,0,0,104.72,95.68Z" fill="#333"></path><path d="M50.2,69.68h28v18a19.32,19.32,0,0,1-14,4.58,19.4992,19.4992,0,0,1-14-4.58Z" fill="#d8b3ad"></path><path d="M85,40.6V35.56c0-14.88-7.52-18.86-20.66-18.88S43.56,20.54,43.56,35.56V40.6c-6.96,0-3.08,19.1,1.88,18.5l1.32,8.92a10.5191,10.5191,0,0,0,2.56,4.78,75.2305,75.2305,0,0,0,6.4,6c2.4,2,6,1.76,8.5,1.76s6.12.14,8.56-1.76a74.5068,74.5068,0,0,0,6.38-6,10.779,10.779,0,0,0,2.54-4.78L83,59.16c2.12.26,4-3.2,5.16-7.36C89.4,47,88.66,40.6,85,40.6Z" fill="#edccc3"></path><path d="M85,40.6V35.56c0-14.88-7.52-18.86-20.66-18.88a48.2037,48.2037,0,0,0-5.82.32V38.64c0,4.2-4.2,4.2-4.2,6.3a23.0423,23.0423,0,0,1,7.74,1.38c.48.18,3.04-2,3.04,1.18v6.26c0,2.5,2.5,6-.58,6-1.54,0-.76-.44-2-.74-2.62-.56-3.22,2-2.46,2,3.36.12,1.84,1.08,4.62,1.12v7.72c0,.6.52,1.58,1.1,1.58,1.74,0,4.64.54,4.66,1.72a6.68,6.68,0,0,1-4.42,4.94h-3.3a3.5,3.5,0,0,0-2.42,1.24v1a32.9066,32.9066,0,0,0,3.88.12c2.44,0,6.12.14,8.56-1.76a74.491,74.491,0,0,0,6.38-6,10.779,10.779,0,0,0,2.54-4.78L83,59.16c2.12.26,4-3.2,5.16-7.36C89.4,47,88.66,40.6,85,40.6Z" fill="#e5c2ba"></path><path d="M64.62,64.39a.75.75,0,0,1-.75-.75V62.22a.75.75,0,0,1,1.5,0v1.42A.75.75,0,0,1,64.62,64.39Z" fill="#d8b3ad"></path><path d="M64.62,62.9414a3.4405,3.4405,0,0,1-2.0259-.7861,3.54,3.54,0,0,0-.6386-.3843l-.1192-.06a1.1661,1.1661,0,0,0-1.2324,0,.7214.7214,0,1,1-.7676-1.2216,2.6159,2.6159,0,0,1,2.71-.0347,4.8229,4.8229,0,0,1,.87.5156,1.6757,1.6757,0,0,0,2.459-.0166,5.93,5.93,0,0,1,.8091-.5019,2.7055,2.7055,0,0,1,2.6767.0239.7212.7212,0,0,1-.7216,1.249,1.2826,1.2826,0,0,0-1.2784,0,4.8063,4.8063,0,0,0-.6582.4107A3.4886,3.4886,0,0,1,64.62,62.9414Z" fill="#b58985"></path><path d="M57.02,69.05a.75.75,0,0,1-.75-.75V66.62a.75.75,0,0,1,1.5,0V68.3A.75.75,0,0,1,57.02,69.05Z" fill="#e5c2ba"></path><path d="M72.02,69.05a.75.75,0,0,1-.75-.75V66.62a.75.75,0,0,1,1.5,0V68.3A.75.75,0,0,1,72.02,69.05Z" fill="#d8b3ad"></path><path d="M45.44,59.16l1.32,7.72a14.7206,14.7206,0,0,0,2.56,6c1.02.98,2.72,2.9,3.84,3.76a12.1392,12.1392,0,0,1,.28-6.58c.44-4.96-1.1-7.2,1.68-10.72,0-1.12-4.52-1.04-6.78-3.02a4,4,0,0,1-1.16-2.82l.24-5.62c0-4-2.76-7.2-3.86-7.2C36.6,40.6,40.48,59.7,45.44,59.16Z" fill="#e5c2ba"></path><path d="M83,59.16l-1.32,7.72a14.7206,14.7206,0,0,1-2.56,6c-1.02.98-2.72,2.9-3.84,3.76A12.14,12.14,0,0,0,75,69.98c-.44-4.96.42-6.98-2.36-10.52,0-1.12,5.2-1.24,7.46-3.22a4,4,0,0,0,1.16-2.82L81,47.8c0-4,2.76-7.2,3.86-7.2C91.9,40.6,88.02,59.7,83,59.16Z" fill="#ddbab6"></path><rect x="62.46" y="46.7998" width="3.7998" height="2" fill="#333"></rect><path d="M47.34,44.32c4.6-2.3,13,.38,14.66,2,3.12,3.12-2,7.44-7.64,7.44S42.74,46.6,47.34,44.32Z" fill="#343433"></path><path d="M81.2,44.32c-4.6-2.3-13,.38-14.66,2-3.12,3.12,2,7.44,7.64,7.44S85.8,46.6,81.2,44.32Z" fill="#343433"></path><rect x="48.7002" y="73.7002" width="3" height="5.0801" fill="#343433"></rect><path d="M64.26,120.3286a124.748,124.748,0,0,1-51.8838-11.3042,1.5006,1.5006,0,0,1-.8453-1.6694l1.8-8.66A14.3539,14.3539,0,0,1,23.37,87.563c.041-.0122.082-.023.1236-.0313l24-5,.6123,2.9366L24.17,90.4551a11.3776,11.3776,0,0,0-7.896,8.8213l-1.5605,7.5112a121.714,121.714,0,0,0,99.1015-.0039l-1.5058-7.5293a11.34,11.34,0,0,0-7.898-8.8389L80.4736,85.4282l.6123-2.9365,24,5c.0406.0083.0806.0186.1206.03a14.3182,14.3182,0,0,1,10.0484,11.1645l1.7358,8.6792a1.5,1.5,0,0,1-.8471,1.6587A124.7481,124.7481,0,0,1,64.26,120.3286Z" fill="#343433"></path><path d="M79.22,77.54l2,7.18c-3.68,5.1-7.7,6.52-13,7.34v-5.2a3.8,3.8,0,0,1,2.64-3.58A21.0389,21.0389,0,0,0,79.22,77.54Z" fill="#444"></path><path d="M68.22,93.56a1.5007,1.5007,0,0,1-1.5-1.5v-5.2a5.296,5.296,0,0,1,3.6821-5.0083,19.5641,19.5641,0,0,0,7.6958-5.3072,1.5,1.5,0,0,1,2.5669.5933l2,7.18a1.4987,1.4987,0,0,1-.2285,1.28c-3.91,5.4185-8.251,7.0572-13.9868,7.9444A1.521,1.521,0,0,1,68.22,93.56ZM78.4639,80.4146a22.6317,22.6317,0,0,1-7.0782,4.2705,2.3235,2.3235,0,0,0-1.6655,2.19v3.4009c4.0781-.81,7.0391-2.2051,9.8574-5.8618Z" fill="#343433"></path><path d="M49.26,77.54l-2,7.18c3.68,5.1,7.7,6.52,13,7.34v-5.2a3.8,3.8,0,0,0-2.64-3.58A21.0389,21.0389,0,0,1,49.26,77.54Z" fill="#444"></path><path d="M60.26,93.56a1.52,1.52,0,0,1-.23-.0176c-5.7359-.8872-10.0767-2.5259-13.9868-7.9444a1.4991,1.4991,0,0,1-.2286-1.28l2-7.18a1.5,1.5,0,0,1,2.5669-.5933,19.614,19.614,0,0,0,7.7642,5.3311A5.2654,5.2654,0,0,1,61.76,86.8447V92.06a1.5008,1.5008,0,0,1-1.5,1.5Zm-11.3575-9.146c2.8184,3.6567,5.7793,5.0522,9.8575,5.8618V86.86a2.29,2.29,0,0,0-1.5972-2.1509,22.7783,22.7783,0,0,1-7.1465-4.2949Z" fill="#343433"></path><rect x="76.7598" y="73.7002" width="3" height="5.0801" fill="#343433"></rect><path d="M62.6611,82.0688c-2.4834,0-5.5747-.1777-7.9013-2.1167a76.9031,76.9031,0,0,1-6.5279-6.12A12.0473,12.0473,0,0,1,45.3,68.3638c-.01-.041-.0176-.0826-.0239-.1241L44.1221,60.44a5.5919,5.5919,0,0,1-2.7876-2.3276c-2.7036-3.9194-4.1577-12.2285-1.9995-16.3384A4.8136,4.8136,0,0,1,42.06,39.3369V35.56c0-6.9659,1.6045-11.9537,4.9047-15.2486,3.5669-3.562,8.9385-5.1128,17.3775-5.1313C83.8677,15.21,86.5,25.499,86.5,35.56v3.8037a4.502,4.502,0,0,1,1.9907,1.5078c2.0821,2.6885,2.041,7.7441,1.1216,11.3032-1.3193,4.7319-3.1616,7.6-5.292,8.32l-1.1362,7.7432c-.0064.0439-.0147.0879-.0249.1313a12.3214,12.3214,0,0,1-2.8936,5.4449,76.4076,76.4076,0,0,1-6.5244,6.1372c-2.7353,2.1308-6.38,2.1176-9.043,2.11L64.22,82.06l-.7163.0044C63.2329,82.0664,62.9512,82.0688,62.6611,82.0688ZM48.2339,67.7354a9.0344,9.0344,0,0,0,2.1807,4.039,73.8539,73.8539,0,0,0,6.2661,5.8731c1.7524,1.46,4.5488,1.4355,6.7973,1.417L64.22,79.06l.4883.0009c2.227.0059,5.272.0181,7.1494-1.4448A73.2373,73.2373,0,0,0,78.07,71.77a9.2872,9.2872,0,0,0,2.1558-4.0361l1.29-8.791a1.499,1.499,0,0,1,1.6665-1.271c.5362.0552,2.18-1.4229,3.5327-6.2744.8565-3.3179.5977-7.1465-.5966-8.6885A1.32,1.32,0,0,0,85,42.1a1.5,1.5,0,0,1-1.5-1.5V35.56c0-12.648-5.1934-17.3584-19.1626-17.38-7.5757-.0386-12.2949,1.3008-15.2529,4.2539C46.3765,25.1382,45.06,29.4316,45.06,35.56V40.6a1.5,1.5,0,0,1-1.5,1.5,1.6312,1.6312,0,0,0-1.5694,1.0688c-1.6,3.0469-.3139,10.1573,1.813,13.2408.6475.9384,1.1948,1.2368,1.4561,1.2011a1.4982,1.4982,0,0,1,1.664,1.27Z" fill="#343433"></path><path d="M54.14,12.8c-10.14,0-12.3,7.02-12.96,12.72s-.94,17.22-.94,17.22a8.62,8.62,0,0,1,3.72,5.12c.48,1.36,1.22,2.9,2.3,2.9,0,0-.9-9.34,1.24-13.38a3.16,3.16,0,0,0,.3-2.22c-3.1-4,7.02-11.56,10.46-10.26,2.88,1.04,3.64,2,6,2s3.12-.96,6-2c4-1.74,14,6.16,10.48,10.26a3.16,3.16,0,0,0,.26,2.3c2.14,4,1.3,13.38,1.24,13.38,1.08,0,1.82-1.54,2.3-2.9A8.14,8.14,0,0,1,88.14,43c-1.32-20.46-1.56-25.64-7.76-29.22C73.74,9.92,57,5.78,54.14,12.8Z" fill="#343433"></path><path d="M60.18,23.6a10,10,0,0,1-1.04-3.78,12.2216,12.2216,0,0,1,.3-4,9.8811,9.8811,0,0,1,1.74-3.64,7.1808,7.1808,0,0,1,3.2-2.34,23.61,23.61,0,0,0-1.88,3.32,18.86,18.86,0,0,0-1.12,3.3A71.8794,71.8794,0,0,0,60.18,23.6Z" fill="#444"></path><path d="M64.22,16.26a4.9,4.9,0,0,1,2-3.76,6.322,6.322,0,0,1,2-1.02,4.8411,4.8411,0,0,1,2.14-.22c-1.12.94-2.14,1.62-3.12,2.4A37.5616,37.5616,0,0,0,64.22,16.26Z" fill="#444"></path><path d="M60.18,23.6a7.6593,7.6593,0,0,1-2.86-2.44,7.9993,7.9993,0,0,1-1.46-3.6,6.4607,6.4607,0,0,1,.68-3.86A6.5607,6.5607,0,0,1,59,11a26.153,26.153,0,0,0-1.06,3.28,8.4,8.4,0,0,0-.16,3.08A17.7786,17.7786,0,0,0,60.18,23.6Z" fill="#444"></path><path d="M59.8,23.16c-1.7-1.54-3.14-2.98-4.72-4.24a23.8889,23.8889,0,0,0-2.46-1.76c-.84-.6-1.76-1.06-2.76-1.7a6.921,6.921,0,0,1,3.44.28,9.8428,9.8428,0,0,1,3.04,1.68,11.2635,11.2635,0,0,1,2.26,2.6A8.1411,8.1411,0,0,1,59.8,23.16Z" fill="#444"></path><path d="M59.8,23.16c-2.44-.82-4.6-1.8-6.82-2.54a33.2069,33.2069,0,0,0-3.34-.94,24.1949,24.1949,0,0,0-3.6-.4,7.28,7.28,0,0,1,3.72-1.16,12.0046,12.0046,0,0,1,3.86.6,14.0038,14.0038,0,0,1,3.44,1.76A10.9011,10.9011,0,0,1,59.8,23.16Z" fill="#444"></path><path d="M59.8,23.16a43.4073,43.4073,0,0,0-8-1.34,20.9457,20.9457,0,0,0-3.88.16,39.3242,39.3242,0,0,0-4,.8,9.46,9.46,0,0,1,3.64-2.32,11.0617,11.0617,0,0,1,4.34-.62,12.3212,12.3212,0,0,1,4.24.94A10.3409,10.3409,0,0,1,59.8,23.16Z" fill="#444"></path><path d="M68.24,104.46a2,2,0,1,1,2,2A2,2,0,0,1,68.24,104.46Z" fill="#444"></path><path d="M68.24,112.8a2,2,0,1,1,2,2A2,2,0,0,1,68.24,112.8Z" fill="#444"></path><rect x="63.2402" y="95.7803" width="2" height="23.0195" fill="#444"></rect><path d="M67.38,65a5.5617,5.5617,0,0,0-2.38.2,1.5,1.5,0,0,1-.84,0,5.5606,5.5606,0,0,0-2.34-.2c-1.34.18-2.1,1.04-4.8,2.5l3,1.46a4.28,4.28,0,0,0,2.54.82H66.7A4.28,4.28,0,0,0,69.24,69l2.78-1.4C69.32,66.04,68.72,65.12,67.38,65Z" fill="#ddbab6"></path><path d="M72.02,68.1a8.8877,8.8877,0,0,1-2.5854-.4146A7.6356,7.6356,0,0,0,67.22,67.32a15.4579,15.4579,0,0,0-2.458.3071l-.1221.0254-.1215-.0254a15.4379,15.4379,0,0,0-2.4834-.3076,8.979,8.979,0,0,0-2.1851.3267,11.2394,11.2394,0,0,1-2.83.3935.6.6,0,0,1,0-1.2,10.1,10.1,0,0,0,2.5523-.3608A10.0956,10.0956,0,0,1,62.06,66.12a16.65,16.65,0,0,1,2.58.3076,16.6089,16.6089,0,0,1,2.5552-.3071h.0039a8.76,8.76,0,0,1,2.5552.4082A7.7767,7.7767,0,0,0,72.02,66.9a.6.6,0,0,1,0,1.2Z" fill="#af8582"></path></g><path d="M67.3,71.95H61.74a.75.75,0,0,1,0-1.5H67.3a.75.75,0,0,1,0,1.5Z" fill="#d8b3ad"></path><path d="M73.76,45.16a6.92,6.92,0,0,0-5.54,1.66c-1.02,1.4,1.22,2.76,3.4,2.42S75.68,45.74,73.76,45.16Z" fill="#494949"></path><path d="M47.84,45.52a6.7606,6.7606,0,0,1,5.68-.64c1.46.86,0,2.98-2.16,3.5S46.34,46.82,47.84,45.52Z" fill="#494949"></path></g></svg>