<svg xmlns="http://www.w3.org/2000/svg" viewBox="0 0 128 128"><title>vol-07$set-027@younger-self-white-female</title><g id="vol-07_set-027_younger-self-white-female" data-name="vol-07$set-027@younger-self-white-female"><g id="younger-self-white-female"><g id="younger-self-white-female-2"><g id="Icons"><path d="M96.2,67.766c10.46-29.54-3.16-63.78-26-59C47.4-6.194,18.1,25.686,30,64.366c-2,20.64,19.32,25.74,33.62,29.06C64,93.546,101.04,87.006,96.2,67.766Z" fill="#eaddc7"></path><path d="M96.2,67.766c8.82-27.22-7.8-56.76-27.06-52.34C50,1.646,25.22,31.006,35.26,66.646c-1.74,19,16.28,23.72,28.34,26.78C64,93.526,99.78,87.446,96.2,67.766Z" fill="#ccbba3"></path><path d="M113.8,103.166c-1.28-5.04-4.76-9.74-9.8-11s-18.5-4.56-20-5c-9.44-2.9-7.7-6.2-7.7-12.54H50.8c0,5.8,1.56,10-6.82,12.56-1.12.34-14.96,3.42-20.18,4.98a15.32,15.32,0,0,0-10,11l-1.8,7.6a120,120,0,0,0,51.6,11.48,122.5208,122.5208,0,0,0,52-11.4Z" fill="#edccc3"></path><path d="M68.88,99.566H77.6a6.56,6.56,0,0,0,6.4-6.44l-.34-6.12c-8.9-2.88-7.24-6.16-7.24-12.4H50.8v2.42l10.36,11.1a9.14,9.14,0,0,1,2.36,6.14,5.24,5.24,0,0,0,5.1783,5.301Q68.789,99.5681,68.88,99.566Z" fill="#e5c2ba"></path><path d="M84,87.166l20,5c5.04,1.26,8.52,6,9.8,11l1.8,7.68a122.5208,122.5208,0,0,1-52,11.4A120.0005,120.0005,0,0,1,12,110.766l1.8-7.6a15.36,15.36,0,0,1,10-11c5.44-1.62,20-5,20-5s3.08,11.84,19.8,11.84S84,87.166,84,87.166Z" fill="#e2ebed"></path><path d="M115.6,110.846l-1.28-5.44a13.74,13.74,0,0,0-8.64-7.1c-2.56-.62-13.82-3.52-24.58-6.32-2.82,3.28-8.1,7.02-17.5,7.02-9,0-14-3.44-16.76-6.6-10.84,2.6-21.98,5.14-24.7,5.9a15.02,15.02,0,0,0-8.92,7.32L12,110.766a120,120,0,0,0,51.6,11.48A122.2206,122.2206,0,0,0,115.6,110.846Z" fill="#cce4ea"></path><path d="M74,78.006a15.1,15.1,0,0,0,10-12,15.12,15.12,0,0,0,6.8-9.4,14.36,14.36,0,0,0-.2-8.8c-.4-1-1-2-2.4-1.8,0-19.8-11-28.4-24.2-28.4s-24.2,8.6-24.2,28.4c-1.4-.2-2,.8-2.4,1.8a14.36,14.36,0,0,0-.2,8.8,15.12,15.12,0,0,0,6.8,9.4,15.1,15.1,0,0,0,10,12A14.4,14.4,0,0,0,74,78.006Z" fill="#edccc3"></path><path d="M62.22,29.846c12.84,1.4,9.02,17.06,27.56,29.58a16.8454,16.8454,0,0,0,1-2.82,14.36,14.36,0,0,0-.2-8.8c-.4-1-1-2-2.4-1.8,0-19.8-11-28.4-24.2-28.4s-24.2,8.6-24.2,28.4c-1.4-.2-1.9.84-2.4,1.8a13.08,13.08,0,0,0-.8,8C57.2,48.386,60.2,32.086,62.22,29.846Z" fill="#e5c2ba"></path><path d="M36.28,46.206a8.88,8.88,0,0,1,7.22,8V43.286Z" fill="#333"></path><path d="M43.5,55.2061a1,1,0,0,1-.9961-.918,7.8983,7.8983,0,0,0-6.4072-7.0991,1,1,0,0,1-.1914-1.91l7.22-2.92a1,1,0,0,1,1.375.9272v10.92a1,1,0,0,1-.959.999Zm-4.3686-9.0743A9.9347,9.9347,0,0,1,42.5,48.9448V44.769Z" fill="#333"></path><path d="M88.2,46.006c0-19.8-11-28.4-24.2-28.4a27.637,27.637,0,0,0-6,.68v20.98a7.8,7.8,0,0,1-2.62,5.74.9.9,0,0,0,.4,1.54,5.16,5.16,0,0,1,3.76,3.76.98.98,0,0,0,1.54.58,3.4981,3.4981,0,0,1,1.16-.64.98.98,0,0,1,1.22.96v5.36a2.22,2.22,0,0,0,1.24,1.88c2.12,1.16-.56,2.82-1.24,2.82a3.3,3.3,0,0,1-1.82-.46c-1.48-.74-2.86.78-2.54,1.36s.68,0,2.16.7a5.3214,5.3214,0,0,0,2.2.54v8.88a.8.8,0,0,0,.54.72c2.62.62,4,4.98-.62,6h0a2.48,2.48,0,0,0-2,2.4v.4a13.5183,13.5183,0,0,0,2.62.26,14.4006,14.4006,0,0,0,10-4,15.1,15.1,0,0,0,10-12,15.12,15.12,0,0,0,6.8-9.4,14.36,14.36,0,0,0-.2-8.8C90.2,46.806,89.6,45.806,88.2,46.006Z" fill="#e5c2ba"></path><path d="M91.32,51.326a9.16,9.16,0,0,0-7.86-5.5v-4c0-10.82-4-21.02-20-21.02a29.3139,29.3139,0,0,0-5.54.48v17.16a72.6756,72.6756,0,0,0,4.3-8.6c14.94,1.5,9.78,16.26,28.1,27.86A22.002,22.002,0,0,0,91.32,51.326Z" fill="#dbb5af"></path><path d="M90.66,46.206a8.88,8.88,0,0,0-7.22,8V43.286Z" fill="#333"></path><path d="M83.44,55.2061l-.0415-.001a1,1,0,0,1-.959-.999v-10.92a1,1,0,0,1,1.375-.9272l7.22,2.92a1,1,0,0,1-.1914,1.91,7.8988,7.8988,0,0,0-6.4073,7.0991A1,1,0,0,1,83.44,55.2061ZM84.44,44.769v4.1763a9.93,9.93,0,0,1,3.3692-2.8135Z" fill="#333"></path><path d="M40.1992,89.5063a1.5,1.5,0,0,1-.4038-2.9448c9.5054-2.665,9.5054-4.5014,9.5044-9.4087v-.1469a1.5,1.5,0,0,1,3,0v.1464c.001,5.9258-.519,9.1646-11.6948,12.2979A1.4945,1.4945,0,0,1,40.1992,89.5063Z" fill="#333"></path><path d="M87.8008,89.5063a1.4945,1.4945,0,0,1-.4058-.0561C76.2192,86.3169,75.6992,83.0781,75.7,77.1523v-.1464a1.5,1.5,0,0,1,3,0v.1469c-.001,4.9073-.001,6.7437,9.5044,9.4087a1.5,1.5,0,0,1-.4038,2.9448Z" fill="#333"></path><circle cx="53.42" cy="51.586" r="1.5" fill="#333"></circle><path d="M57.64,51.926c-1.22-.56-4.52-4.12-8,0a4.4016,4.4016,0,0,1-1.42-.8,8.18,8.18,0,0,1,6-1.08" fill="#333"></path><path d="M49.8037,52.5127l-.3252-.11a4.8737,4.8737,0,0,1-1.5825-.8916l-.5288-.4448.5854-.3672a8.6377,8.6377,0,0,1,6.37-1.1465.5035.5035,0,0,1,.2363.12,9.501,9.501,0,0,1,2.5757,1.3461,6.3365,6.3365,0,0,0,.7158.4493.5034.5034,0,1,1-.42.915,6.7028,6.7028,0,0,1-.8618-.5308c-1.5708-1.0659-3.9449-2.6787-6.5435.3985Zm-.6328-1.3418c.1045.0581.2124.1108.3228.1587q.2564-.28.5126-.5122A7.7208,7.7208,0,0,0,49.1709,51.1709Z" fill="#333"></path><circle cx="73.52" cy="51.586" r="1.5" fill="#333"></circle><path d="M69.3,51.926c1.22-.56,4.52-4.12,8,0a4.4016,4.4016,0,0,0,1.42-.8,8.18,8.18,0,0,0-6-1.08" fill="#333"></path><path d="M77.1362,52.5127l-.2212-.2617c-2.5981-3.0757-4.9726-1.4649-6.5434-.3985a6.7165,6.7165,0,0,1-.8618.5308.5034.5034,0,0,1-.42-.915,6.3449,6.3449,0,0,0,.7159-.4493,9.5025,9.5025,0,0,1,2.5761-1.3461.5038.5038,0,0,1,.2364-.12,8.6439,8.6439,0,0,1,6.37,1.1465l.5859.3672-.5293.4453a4.8932,4.8932,0,0,1-1.583.8911Zm-.2026-1.6953q.2556.2322.5127.5122c.11-.0479.2183-.1011.3232-.1587A7.6134,7.6134,0,0,0,76.9336,50.8174Z" fill="#333"></path><path d="M79.2,47.006a8.3594,8.3594,0,0,0-5.06.54c-.82.28-1.64.64-2.5.96a10.44,10.44,0,0,1-2.88.76,1.02,1.02,0,1,1-.18-2h.18a9.1252,9.1252,0,0,0,2.4-.32c.86-.2,1.74-.44,2.66-.62a12.519,12.519,0,0,1,5.58,0,.3614.3614,0,0,1-.18.7h0A.02.02,0,0,0,79.2,47.006Z" fill="#333"></path><path d="M47.54,46.226a11.9989,11.9989,0,0,1,5.58,0c.9.18,1.8.42,2.66.62a9.1252,9.1252,0,0,0,2.4.32h0a1.02,1.02,0,1,1,.14,2h-.16a10.8222,10.8222,0,0,1-2.88-.76l-2.5-.96a8.36,8.36,0,0,0-5.04-.44.36.36,0,1,1-.2-.68Z" fill="#333"></path><path d="M63.5,64.646a4.3071,4.3071,0,0,1-2.2271-.5645A3.3242,3.3242,0,0,0,59.5,63.626a.5.5,0,0,1,0-1,4.3082,4.3082,0,0,1,2.2271.5644,3.6773,3.6773,0,0,0,3.5458,0A4.3082,4.3082,0,0,1,67.5,62.626a.5.5,0,0,1,0,1,3.3242,3.3242,0,0,0-1.7729.4555A4.3071,4.3071,0,0,1,63.5,64.646Z" fill="#d8b5af"></path><path d="M63.5,65.8262a.5.5,0,0,1-.5-.5v-1.18a.5.5,0,0,1,1,0v1.18A.5.5,0,0,1,63.5,65.8262Z" fill="#d8b5af"></path><path d="M62.36,73.0508a4.8164,4.8164,0,0,1-3.2349-1.2539.5.5,0,0,1,.67-.7422,3.8315,3.8315,0,0,0,2.7622.9917l2.023-.0005a4.5119,4.5119,0,0,0,3.0591-1.0835.5.5,0,0,1,.6416.7676,5.6944,5.6944,0,0,1-3.7076,1.3159H62.58C62.5063,73.0493,62.4331,73.0508,62.36,73.0508Z" fill="#d8b5af"></path><path d="M56.6,70.5859a.5.5,0,0,1-.4468-.7236l1-2a.5.5,0,0,1,.8946.4473l-1,2A.5.5,0,0,1,56.6,70.5859Z" fill="#d8b5af"></path><path d="M70.6006,70.5859a.5.5,0,0,1-.4478-.2763l-1-2a.5.5,0,0,1,.8946-.4473l1,2a.5.5,0,0,1-.4468.7236Z" fill="#d8b5af"></path><path d="M65.16,66.666a3.6792,3.6792,0,0,1-1.56.4c-.4,0-.44,0-1.36-.4-1.6-.64-1.7,1.32-4.66,2.4l1.84,1.88a4.3,4.3,0,0,0,3.1,1.12h2a5,5,0,0,0,3.34-1.2l1.72-1.8C66.76,68.046,66.76,66.046,65.16,66.666Z" fill="#a56659"></path><path d="M63.5771,69.5327,63.42,69.48a6.5505,6.5505,0,0,0-3.956-.2056,9.1868,9.1868,0,0,1-1.8838.232.5.5,0,0,1,0-1A8.2951,8.2951,0,0,0,59.27,68.293a7.447,7.447,0,0,1,4.3135.1875,7.6091,7.6091,0,0,1,4.32-.1831,8.2435,8.2435,0,0,0,1.6768.2085.5.5,0,1,1,0,1,9.2121,9.2121,0,0,1-1.87-.2271,6.7457,6.7457,0,0,0-3.976.2026Z" fill="#743f40"></path><path d="M64,83.5669A15.8491,15.8491,0,0,1,53.1987,79.313,16.5485,16.5485,0,0,1,42.6348,66.91a16.7393,16.7393,0,0,1-6.8941-9.9585,15.6793,15.6793,0,0,1,.2422-9.6377,4.2364,4.2364,0,0,1,2.333-2.65c.2246-9.1192,2.7608-16.2857,7.5474-21.3169C50.37,18.61,56.6416,16.106,64,16.106S77.63,18.61,82.1367,23.3472c4.7862,5.03,7.3223,12.1967,7.5469,21.3149a4.1427,4.1427,0,0,1,2.3091,2.5869,15.8042,15.8042,0,0,1,.2451,9.7842,16.6685,16.6685,0,0,1-6.8726,9.8774A16.5485,16.5485,0,0,1,74.8013,79.313,15.8491,15.8491,0,0,1,64,83.5669ZM39.4634,47.479c-.1851,0-.3653.12-.6709.8843a12.7412,12.7412,0,0,0-.1543,7.8154,13.7715,13.7715,0,0,0,6.147,8.5488,1.5009,1.5009,0,0,1,.6977,1.0528,13.5624,13.5624,0,0,0,9.0064,10.8076,1.4987,1.4987,0,0,1,.5522.3389,12.8549,12.8549,0,0,0,17.917,0,1.4987,1.4987,0,0,1,.5522-.3389A13.5624,13.5624,0,0,0,82.5171,65.78a1.5009,1.5009,0,0,1,.6977-1.0528A13.7116,13.7116,0,0,0,89.34,56.26a12.8663,12.8663,0,0,0-.1572-7.962c-.3491-.8676-.5366-.8422-.771-.8076A1.4995,1.4995,0,0,1,86.7,46.0059c0-16.8438-8.4858-26.9-22.7-26.9s-22.7,10.0561-22.7,26.9a1.4995,1.4995,0,0,1-1.7119,1.4848A.926.926,0,0,0,39.4634,47.479Z" fill="#333"></path><path d="M63.98,123.7466c-.2529.0005-.5039.001-.7578,0A122.2512,122.2512,0,0,1,11.36,112.1226a1.4994,1.4994,0,0,1-.8194-1.7022l1.8-7.6A16.7675,16.7675,0,0,1,23.3169,90.7461c5.477-1.6323,19.5474-4.9028,20.1435-5.041a1.4968,1.4968,0,0,1,1.7911,1.0835c.1167.4311,3.0713,10.7173,18.3486,10.7173,15.3354,0,18.8281-10.3506,18.9692-10.7911a1.5082,1.5082,0,0,1,1.7945-1.0039l20,5c6.1411,1.5347,9.6518,7.2481,10.8891,12.083l1.8076,7.71a1.4994,1.4994,0,0,1-.8286,1.7026A124.8569,124.8569,0,0,1,63.98,123.7466Zm-.3848-3.0005a121.5074,121.5074,0,0,0,50.2642-10.7524l-1.52-6.4854c-1.2784-4.9932-4.6973-8.8857-8.7032-9.8872L84.8955,88.936c-1.5566,3.3052-6.8906,11.57-21.2954,11.57-9.1631,0-14.4375-3.4683-17.249-6.3775a17.6181,17.6181,0,0,1-3.5005-5.2c-3.6773.8633-14.2319,3.3672-18.6226,4.6748a13.7645,13.7645,0,0,0-8.9687,9.9082l-1.5181,6.4107a119.3,119.3,0,0,0,49.49,10.8242C63.353,120.7466,63.4736,120.7466,63.5952,120.7461Z" fill="#333"></path><circle cx="63.6" cy="100.366" r="4" fill="#fff"></circle><path d="M63.6,105.8662a5.5,5.5,0,1,1,5.5-5.5A5.5062,5.5062,0,0,1,63.6,105.8662Zm0-8a2.5,2.5,0,1,0,2.5,2.5A2.503,2.503,0,0,0,63.6,97.8662Z" fill="#333"></path><circle cx="53.6" cy="97.366" r="4" fill="#fff"></circle><path d="M53.6,102.8662a5.5,5.5,0,1,1,5.5-5.5A5.5062,5.5062,0,0,1,53.6,102.8662Zm0-8a2.5,2.5,0,1,0,2.5,2.5A2.503,2.503,0,0,0,53.6,94.8662Z" fill="#333"></path><circle cx="44.6" cy="91.366" r="4" fill="#fff"></circle><path d="M44.6,96.8662a5.5,5.5,0,1,1,5.5-5.5A5.5062,5.5062,0,0,1,44.6,96.8662Zm0-8a2.5,2.5,0,1,0,2.5,2.5A2.503,2.503,0,0,0,44.6,88.8662Z" fill="#333"></path><circle cx="73.6" cy="97.366" r="4" fill="#fff"></circle><path d="M73.6,102.8662a5.5,5.5,0,1,1,5.5-5.5A5.5062,5.5062,0,0,1,73.6,102.8662Zm0-8a2.5,2.5,0,1,0,2.5,2.5A2.503,2.503,0,0,0,73.6,94.8662Z" fill="#333"></path><circle cx="82.6" cy="91.366" r="4" fill="#fff"></circle><path d="M82.6,96.8662a5.5,5.5,0,1,1,5.5-5.5A5.5062,5.5062,0,0,1,82.6,96.8662Zm0-8a2.5,2.5,0,1,0,2.5,2.5A2.503,2.503,0,0,0,82.6,88.8662Z" fill="#333"></path><path d="M70.2,8.766C49.16-4.994,22.6,21.006,28,55.546c30.16-7.4,25.42-22.54,34.22-28.88,21.12,0,10,22.84,36.34,32.44C104,31.966,90.84,4.446,70.2,8.766Z" fill="#eaddc7"></path><path d="M32.96,54.246a43.3227,43.3227,0,0,0,4-7.24,75.28,75.28,0,0,0,2.24-7.8,25.8216,25.8216,0,0,1,3.6-8,20.8789,20.8789,0,0,1,6.34-6c-1.26,2.66-2.58,5.08-3.6,7.58a62.6305,62.6305,0,0,0-2.48,7.68,28.1387,28.1387,0,0,1-3.34,8.16A16.26,16.26,0,0,1,32.96,54.246Z" fill="#ccbba3"></path><path d="M95.82,25.726c-7.1-12.72-12.76-13.02-23.58-13.02-26,5.34-18.3,26.4-39.8,41.64,22.82-5.74,25.38-24.5,30.1-28,19.54.58,10.96,23.66,36,32.7C101.66,44.066,98.88,31.226,95.82,25.726Z" fill="#ccbba3"></path><path d="M94.7,58.206a34.8211,34.8211,0,0,1-10.18-7.1,45.5823,45.5823,0,0,1-7.16-10.1,43.9986,43.9986,0,0,0-6.36-9.8,11.88,11.88,0,0,0-4.4-2.8c-.88-.16-1.72-.4-2.6-.52H60.96a2.0009,2.0009,0,0,1,.12-4h.12l3.34.3c1.1.22,2.22.56,3.32.88a20.3362,20.3362,0,0,1,3.04,1.68,15.4167,15.4167,0,0,1,2.54,2.28,46.0021,46.0021,0,0,1,6.3,10.88,43.5786,43.5786,0,0,0,6.26,10,33.3408,33.3408,0,0,0,9.28,7.28h0a.66.66,0,0,1,.26.88A.7.7,0,0,1,94.7,58.206Z" fill="#a3896c"></path><path d="M32.96,54.246C52,51.006,57.1,25.326,68,21.126l4.28-8.44C47.64,18.806,52.48,39.266,32.96,54.246Z" fill="#ccbba3"></path><path d="M32.96,35.606a53.4588,53.4588,0,0,1,8.72-11.72,33.9994,33.9994,0,0,1,12.76-7.8c1.22-.34,2.42-.72,3.64-1l3.7-.64c1.24-.14,2.5-.14,3.72-.22a20.7461,20.7461,0,0,1,3.7,0,46.3194,46.3194,0,0,1,14.22,3.26c-4.88,0-9.58-.5-14.24-.14a48.3382,48.3382,0,0,0-13.5,2.42,41.5388,41.5388,0,0,0-12,6.38C40,29.006,36.7,32.486,32.96,35.606Z" fill="#ccbba3"></path><path d="M43.999,88.7065a1.4967,1.4967,0,0,1-.6611-.1543C32.5288,83.2354,27.5308,75.1509,28.479,64.5205a58.2865,58.2865,0,0,1-.6709-32.8965c2.6929-9.4448,7.8994-17.4463,14.66-22.53,8.8652-6.6661,19.3281-7.358,28.1133-1.8946,7.6621-1.3921,14.9228,1.336,20.5029,7.7183,10.4419,11.9443,13.2578,34.147,6.7563,52.95,1.7842,8.0034-2.7563,15.02-13.16,20.3154a1.5,1.5,0,0,1-1.36-2.6738c6.417-3.2656,13.6221-8.9282,11.5054-17.3579a1.4958,1.4958,0,0,1,.0405-.8658c6.35-17.9326,3.81-39.1259-6.0405-50.3935C85.3,12.86,79.2769,8.4336,70.5869,10.2544a1.5009,1.5009,0,0,1-1.1289-.2134c-7.9018-5.1738-17.082-4.6445-25.187,1.45C32.94,20.0122,24.09,40.0547,31.4336,63.9253a1.5035,1.5035,0,0,1,.0591.5893c-.9478,9.5386,3.36,16.5206,13.1694,21.3453a1.5,1.5,0,0,1-.6631,2.8466Z" fill="#333"></path><path d="M63.5,64.0361a4.8119,4.8119,0,0,1-2.4331-.5981A3.358,3.358,0,0,0,59.3,62.9961a.75.75,0,1,1,0-1.5,4.8129,4.8129,0,0,1,2.4331.5981,3.358,3.358,0,0,0,1.7671.4419,3.1231,3.1231,0,0,0,1.6958-.4321,4.7071,4.7071,0,0,1,2.5112-.6079.75.75,0,0,1,.7432.7568.7208.7208,0,0,1-.7568.7432,3.3307,3.3307,0,0,0-1.8135.4424A4.56,4.56,0,0,1,63.5,64.0361Z" fill="#ba8d86"></path><path d="M41.36,19.306a23.66,23.66,0,0,1,9.84-5.78,31.138,31.138,0,0,1,11.52-1.46A34.3993,34.3993,0,0,1,79,17.566a44.9178,44.9178,0,0,1,4.44,3.56c-1.86-.52-3.54-1.24-5.3-1.8l-2.62-.8c-.44-.12-.86-.28-1.28-.42l-1.32-.3c-.88-.2-1.74-.42-2.6-.66l-2.62-.46-1.3-.24-1.32-.12c-.88,0-1.74-.24-2.62-.26a49.0732,49.0732,0,0,0-10.46.48A54.49,54.49,0,0,0,41.36,19.306Z" fill="#ccbba3"></path><path d="M90.42,42.486a32.1609,32.1609,0,0,1-4.54-9.12,72.1571,72.1571,0,0,0-3.76-8.82,22.76,22.76,0,0,0-5.72-7.06,39.3779,39.3779,0,0,0-8.4-4.8,18.28,18.28,0,0,1,17.68,10,33.2775,33.2775,0,0,1,3.26,10C89.52,35.886,89.76,39.126,90.42,42.486Z" fill="#eaddc7"></path><path d="M93.36,36.566A41.0435,41.0435,0,0,0,90,27.706a25.259,25.259,0,0,0-5.48-7.18,13.5188,13.5188,0,0,0-1.72-1.46,12.6386,12.6386,0,0,0-1.84-1.28l-2-1.18-2-.96-.96-.5-1.1-.36-2.28-.78c-1.52-.46-3.08-.78-4.64-1.3a36.5666,36.5666,0,0,1,4.92-.14l2.46.44,1.24.2,1.2.36a21.16,21.16,0,0,1,14.42,13.32A20.7,20.7,0,0,1,93.36,36.566Z" fill="#eaddc7"></path><path d="M72.28,19.426a31.28,31.28,0,0,0-10.18,8,90.3822,90.3822,0,0,0-7.14,11.24,35.24,35.24,0,0,1-9.22,10.42,37.4811,37.4811,0,0,1-12.58,5.92.68.68,0,0,1-.8344-.4781L32.32,54.506a.72.72,0,0,1,.42-.82h0a39.46,39.46,0,0,0,11.46-6.48,40.9991,40.9991,0,0,0,8.18-10,79.6836,79.6836,0,0,1,7.86-11.24,31.2773,31.2773,0,0,1,5.32-4.56c1-.58,2-1.26,3.02-1.76l3.16-1.42a.68.68,0,0,1,.9.3394l0,.0006a.64.64,0,0,1-.2792.8609c-.0134.0069-.027.0132-.0408.0191Z" fill="#a3896c"></path></g></g></g></g></svg>