<svg xmlns="http://www.w3.org/2000/svg" viewBox="0 0 128 128"><title>vol-03$set-012@superhero-batman-dark-knight-black-african</title><g id="vol-03_set-012_superhero-batman-dark-knight-black-african" data-name="vol-03$set-012@superhero-batman-dark-knight-black-african"><path d="M100.56,93.8433a4.142,4.142,0,0,1-1.28-.58,51.2987,51.2987,0,0,0-20.6-8.22v-10.38H48.5v10.38a51.5189,51.5189,0,0,0-20.64,8.22,4.5833,4.5833,0,0,1-1.24.54c-13.16,3.18-14.18,5.14-16.84,16.2,15.32,6.34,31.7,11.66,54,11.42a134.3623,134.3623,0,0,0,53.62-11.42C114.8,99.1633,113.8,97.0433,100.56,93.8433Z" fill="#eed1c9"></path><path d="M100.56,93.8433a4.142,4.142,0,0,1-1.28-.58,51.2987,51.2987,0,0,0-20.6-8.22v-10.38H48.5v10.38a51.5189,51.5189,0,0,0-20.64,8.22,4.5833,4.5833,0,0,1-1.24.54c-13.16,3.18-14.18,5.14-16.84,16.2,15.32,6.34,31.7,11.66,54,11.42a134.3623,134.3623,0,0,0,53.62-11.42C114.8,99.1633,113.8,97.0433,100.56,93.8433Z" fill="#e5c2ba"></path><path d="M26.62,99.8033a4.0017,4.0017,0,0,0,1.24-.54,55.0559,55.0559,0,0,1,15.26-7.1,7.22,7.22,0,0,0,5.38-6.94v-.16a51.5189,51.5189,0,0,0-20.64,8.22,4.5833,4.5833,0,0,1-1.24.54c-13.16,3.16-14.18,5.12-16.84,16.18l1.44.58C13.26,104.1433,16,102.3633,26.62,99.8033Z" fill="#eed1c9"></path><path d="M63.78,121.4633a134.3611,134.3611,0,0,0,53.62-11.46c-2.6-10.88-3.6-13-16.84-16.2a4.142,4.142,0,0,1-1.28-.58,51.2987,51.2987,0,0,0-20.6-8.22v-10.36H48.52v3.82c2.6,3.16,7.52,9.02,11.7,14.18a15.12,15.12,0,0,1,3.38,9.52v19.3A.42.42,0,0,0,63.78,121.4633Z" fill="#d8b3ad"></path><path d="M78.7,85.2033a7.22,7.22,0,0,0,5.3,6.94,55.9989,55.9989,0,0,1,15.22,7.1,4.3635,4.3635,0,0,0,1.28.58c10.74,2.58,13.5,4.46,15.5,10.82l1.4-.64c-2.6-10.88-3.6-13-16.84-16.2a4.142,4.142,0,0,1-1.28-.58,51.2987,51.2987,0,0,0-20.6-8.22v.18Z" fill="#eed1c9"></path><rect x="77.2002" y="74.6631" width="3" height="13.2197" fill="#333"></rect><rect x="47" y="74.6631" width="3" height="13.2197" fill="#333"></rect><path d="M63.4,122.9629A134.247,134.247,0,0,1,9.1719,111.374a1.4991,1.4991,0,0,1-.8506-1.7217c2.8125-11.6923,4.3979-14.0341,17.9692-17.288a3.0439,3.0439,0,0,0,.7945-.3526A59.0784,59.0784,0,0,1,36.39,87.1758a47.7488,47.7488,0,0,1,11.9141-3.18l.3926,2.9746a44.7513,44.7513,0,0,0-11.1655,2.98,56.1848,56.1848,0,0,0-8.8433,4.5967,6.0917,6.0917,0,0,1-1.6592.7256c-12.3838,2.97-13.2392,4.56-15.4956,13.86a131.2394,131.2394,0,0,0,51.8731,10.83h.374a131.6571,131.6571,0,0,0,51.8862-10.83c-2.34-9.5576-3.5493-11.0342-15.4389-13.9111a5.6666,5.6666,0,0,1-1.7686-.7959A56.0663,56.0663,0,0,0,89.6494,89.85a44.6617,44.6617,0,0,0-11.1245-2.959l.3906-2.9746A47.66,47.66,0,0,1,90.79,87.0752a59.1324,59.1324,0,0,1,9.3178,4.8447,2.7292,2.7292,0,0,0,.8516.3926c13.5283,3.2734,15.1118,5.6211,17.9194,17.3408a1.5,1.5,0,0,1-.8515,1.7217,134.6781,134.6781,0,0,1-54.2408,11.5879Z" fill="#333"></path><path d="M83.44,49.6833v-4c0-10.84-3.8-22-20-22s-20,11.16-20,22v4c-.16,0-4,0-2,10,.62,3,.98,5.36,4,6,0,7.1,2,8,8.76,14.96,2.6,3.36,5.8,3.04,9.24,3.04s6.56.32,9.24-3.04c6.76-6.96,8.76-7.86,8.76-14.96,3-.64,3.36-3,4-6C87.44,49.6833,83.6,49.6233,83.44,49.6833Z" fill="#eed1c9"></path><path d="M63.76,67.3033a3.3,3.3,0,0,1-2-.68l-4.16-3.04H45.44a1.5,1.5,0,0,1,0-3H58.56l5.02,3.64a.24.24,0,0,0,.3,0l5.06-3.66h12.5a1.5,1.5,0,0,1,0,3H70l-4.22,3.06A3.1,3.1,0,0,1,63.76,67.3033Z" fill="#e5c2ba"></path><path d="M52.87,68.0137a3.7445,3.7445,0,0,1,1.4766-3.0283l3.74-2.84.9073,1.1953-3.74,2.84a2.2376,2.2376,0,0,0-.8833,1.8115Z" fill="#e5c2ba"></path><path d="M41.44,59.6833c.62,3,.98,5.36,4,6,0,6,1.44,7.58,6,12.16v-6.16a9.62,9.62,0,0,0-3.24-8,6.64,6.64,0,0,1-2.76-6v-6a6.78,6.78,0,0,0-2-4v2C43.28,49.6833,39.44,49.6833,41.44,59.6833Z" fill="#e5c2ba"></path><path d="M83.44,49.6833v-4c0-10.84-3.8-22-20-22a31.7106,31.7106,0,0,0-6,.52v19.48a4.34,4.34,0,0,1-4,4s6,0,8,4h2v6a2.82,2.82,0,0,0,1.18,2.32,2.0034,2.0034,0,0,1-1.18,3.62h0c-1.48,0-2-1-4-1-1.18,0-1,1.54-1.04,1.5a4.1993,4.1993,0,0,1,2,.52,6.2,6.2,0,0,0,3,.78h0v9.06s4-.84,4,3.14c0,5.5-10-.54-10,5.44a17.7417,17.7417,0,0,0,5.9.56c3.46,0,6.64.28,9.24-3.04,6.8-6.92,8.8-7.82,8.8-14.92,3-.64,3.36-3,4-6C87.44,49.6833,83.6,49.6233,83.44,49.6833Z" fill="#e5c2ba"></path><path d="M74.29,67.9844l-1.5-.002a2.2855,2.2855,0,0,0-.8872-1.8047l-3.7363-2.8369.9072-1.1953,3.74,2.84A3.798,3.798,0,0,1,74.29,67.9844Z" fill="#eed1c9"></path><path d="M81.44,60.5833H68.94l-5.06,3.66a.24.24,0,0,1-.3,0l-.18-.24v3.16h.36a3.1,3.1,0,0,0,2-.66l4.24-2.92H81.54a1.5,1.5,0,0,0,0-3Z" fill="#d8b3ad"></path><path d="M81.44,65.6833c3-.64,3.36-3,4-6,2-10-1.84-10-2-10v-2a6.68,6.68,0,0,0-2,4v6a6.72,6.72,0,0,1-2.76,6,9.5,9.5,0,0,0-3.24,8v6.16C80,73.2633,81.44,71.6833,81.44,65.6833Z" fill="#d8b3ad"></path><path d="M63.58,68.6729a.75.75,0,0,1-.75-.75v-2a.75.75,0,0,1,1.5,0v2A.75.75,0,0,1,63.58,68.6729Z" fill="#ddb7b1"></path><path d="M63.64,80.2129h-.5a.75.75,0,0,1,0-1.5h.5a.75.75,0,1,1,0,1.5Z" fill="#ba8d86"></path><path d="M66.3,69.6233a5.7786,5.7786,0,0,0-2.3.38,1.5,1.5,0,0,1-.84,0,5.62,5.62,0,0,0-2.36-.28c-1.34.2-1.48,1.06-4.18,2.52l2.38,1.46a4.4206,4.4206,0,0,0,2.54.82H65.6a4.4206,4.4206,0,0,0,2.54-.82l2.46-1.4C68,70.7233,67.62,69.8233,66.3,69.6233Z" fill="#d6b3b0"></path><path d="M70.6,72.8027a7.3292,7.3292,0,0,1-2.4434-.42,6.1022,6.1022,0,0,0-2.0366-.36,15.5031,15.5031,0,0,0-2.4585.3086l-.1225.0253-.1226-.0263a14.8611,14.8611,0,0,0-2.48-.3076,5.7239,5.7239,0,0,0-1.8584.3183,7.8906,7.8906,0,0,1-2.5381.4024.6.6,0,1,1,0-1.1993,6.6931,6.6931,0,0,0,2.1939-.3525,6.92,6.92,0,0,1,2.2261-.3682,16.1243,16.1243,0,0,1,2.581.3077,16.8271,16.8271,0,0,1,2.5532-.3077h.0044a7.2473,7.2473,0,0,1,2.4156.4141,6.2329,6.2329,0,0,0,2.0859.3662.6.6,0,1,1,0,1.1992Z" fill="#af8582"></path><path d="M48.7,49.1033a11.9956,11.9956,0,0,1,2.9-1.1,11.1547,11.1547,0,0,1,3.16-.18,19.4359,19.4359,0,0,1,5.64,2h0a.46.46,0,0,1,.24.6.48.48,0,0,1-.46.28,24.5474,24.5474,0,0,1-2.96-.52c-.94-.18-1.86-.28-2.74-.42a14.5989,14.5989,0,0,0-5.5.12h0a.48.48,0,0,1-.54-.36A.5.5,0,0,1,48.7,49.1033Z" fill="#333"></path><path d="M78.58,50.0033a14.5783,14.5783,0,0,0-5.5-.12c-.9.14-1.8.24-2.74.42a24.5474,24.5474,0,0,1-2.96.52.44.44,0,0,1-.4782-.3982c-.0012-.0139-.0019-.0279-.0018-.0418a.46.46,0,0,1,.28-.46h0a19.4359,19.4359,0,0,1,5.64-2,12.8556,12.8556,0,0,1,3.18.08,10.3551,10.3551,0,0,1,2.9,1.1.4624.4624,0,0,1-.34.86h0Z" fill="#333"></path><circle cx="54.62" cy="54.2033" r="1.3" fill="#333"></circle><circle cx="72.54" cy="54.2033" r="1.3" fill="#333"></circle><path d="M123.04,104.9633a15.28,15.28,0,0,0-10.6-12l-31.24-6.96H46.46l-31.24,6.98a15.28,15.28,0,0,0-10.6,12l-.62,3.76a148.2821,148.2821,0,0,0,59.78,12.72h.1a148.2821,148.2821,0,0,0,59.78-12.72Z" fill="#656e70"></path><path d="M123.04,104.9633a15.32,15.32,0,0,0-10.6-12l-31.24-6.96H59.82l33.22,32.52a150.87,150.87,0,0,0,30.62-9.78Z" fill="#5e6668"></path><path d="M15.22,92.9833a15.26,15.26,0,0,0-10,9.6,6,6,0,0,0,6.62-1.74,7.08,7.08,0,0,1,3.34-2l27.12-7.34a5.56,5.56,0,0,0,4.12-5.38Z" fill="#787f80"></path><path d="M63.8828,122.9033H63.78A148.8483,148.8483,0,0,1,3.3936,110.1152a1.5,1.5,0,0,1-.8741-1.6123l.62-3.82A16.7049,16.7049,0,0,1,14.7827,91.4883L48.08,81.27l.88,2.8672-33.3,10.22A13.716,13.716,0,0,0,6.0981,105.18L5.667,107.835a145.82,145.82,0,0,0,58.1147,12.0683H63.88a145.8782,145.8782,0,0,0,58.1108-12.125l-.4306-2.6113a13.71,13.71,0,0,0-9.5577-10.81L78.2383,83.43l.9238-2.8535,33.74,10.92a16.689,16.689,0,0,1,11.6162,13.17l.622,3.7735a1.499,1.499,0,0,1-.872,1.6152A148.8805,148.8805,0,0,1,63.8828,122.9033Z" fill="#333"></path><path d="M92,80.5433a6.34,6.34,0,0,1-3.02-5.4v-31.54c0-10.84-.86-15.4-3.28-36.34a1.38,1.38,0,0,0-2.62-.46l-3.82,8.92a30,30,0,0,0-15.52-3.88,29.8391,29.8391,0,0,0-15.5,3.88l-3.8-8.92a1.4,1.4,0,0,0-1.84-.68,1.38,1.38,0,0,0-.78,1.06c-2.42,21.06-3.28,25.62-3.28,36.42v31.54a6.34,6.34,0,0,1-3.02,5.4l-20.34,12.5,5.78-.6a31.7593,31.7593,0,0,1,18.54,3.68c22.82,12.36,25.66,12.34,48.66,0a31.88,31.88,0,0,1,18.42-3.64l5.82.6Zm-10.52-14.86c0,7.1-2,8-8.76,14.96-2.72,3.36-5.82,3.04-9.28,3.04s-6.64.32-9.24-3.04c-6.76-6.96-8.76-7.86-8.76-14.96v-2.88H58l4.62,3.36a1.72,1.72,0,0,0,2,0l4.62-3.36h12Z" fill="#333"></path><path d="M88.94,78.6833v-3.48h0v-31.6c0-10.92-.92-15.86-3.28-36.34a1.36,1.36,0,0,0-.8-1.1,1.34,1.34,0,0,0-1.7989.5959l-.0211.0441-3.78,8.92a30,30,0,0,0-14.84-3.88,171.5,171.5,0,0,0-6.9,29.78c-.26,1.7-.84,4.3-3.24,5.04a.36.36,0,0,0-.23.4544l.01.0256,4.22,1.7a2.42,2.42,0,0,1,1.72,2.38c0,1.78-2.22,1.66-2.48,1.66H55.06a30.2406,30.2406,0,0,0-2.32,10H58l4.92-12.42a1.42,1.42,0,0,1,.58,1.12v15h.16c1.1,0,2-1.22,5.68-3.72h12c-.54,3.6,1.88,7-4.9,14-6.4,6.52-6,6.98-12.8,6.96h0c-6.26-.14-2.6,0-6.16-.22l7,6.98a15.38,15.38,0,0,0,19.28,2l13.18-8.88ZM82,47.5433l-2,4.22a2,2,0,0,1-1.88,1.18h-8.4c-.26,0-2.46.12-2.46-1.66a2.4,2.4,0,0,1,1.6-2.38c1.14-.44,10.46-4.24,10.46-4.24a2.0463,2.0463,0,0,1,2.68,2.88Z" fill="#222"></path><path d="M46,47.2433a2.2,2.2,0,0,1,1.74,0l10.46,4.24a2.42,2.42,0,0,1,1.62,2.4c0,1.78-2.22,1.64-2.48,1.64h-8.4a2,2,0,0,1-1.88-1.18l-2-4.22a2,2,0,0,1,.94-2.88Z" fill="#777"></path><path d="M82,50.0033l-2,4.22a2,2,0,0,1-1.88,1.18h-8.4c-.26,0-2.46.14-2.46-1.64a2.42,2.42,0,0,1,1.6-2.4c1.14-.44,10.46-4.24,10.46-4.24a2.2,2.2,0,0,1,1.74,0,2,2,0,0,1,.94,2.88Z" fill="#777"></path></g></svg>