<svg xmlns="http://www.w3.org/2000/svg" viewBox="0 0 128 128"><title>vol-03$set-010@celebrity-captain-jack-sparrow-pirate-carribean</title><g id="vol-03_set-010_celebrity-captain-jack-sparrow-pirate-carribean" data-name="vol-03$set-010@celebrity-captain-jack-sparrow-pirate-carribean"><path d="M51.54,56.6a24.4132,24.4132,0,0,0,3-.12H57.6l.22.94a10.8,10.8,0,0,1-1.54.72,5.06,5.06,0,0,1-1.72.34,7,7,0,0,1-3.28-.94Z" fill="#343433"></path><path d="M70.32,56.6a24.759,24.759,0,0,0,3.02-.12h3.04l.22.94a10.8,10.8,0,0,1-1.54.72,5.06,5.06,0,0,1-1.72.34A7,7,0,0,1,70,57.54Z" fill="#343433"></path><path d="M94.12,54.16C94.12,24.48,82.84,11,64,11c-8.18,0-12.46,4.26-13.14,5.2h0c-20.9.24-14.74,20-26.78,30l6.48-1.6c-6.3,10.46-2.1,14.66-6.6,22.5a10,10,0,0,0,5.18-2c-6.32,9.86-.48,20-5.18,26.62l76.46,1C106.32,66.5,94.12,60.46,94.12,54.16Z" fill="#343433"></path><path d="M113,101.4a11.22,11.22,0,0,0-9-9L78,87.24v-10H50v10L24,92.4a11.22,11.22,0,0,0-9,9l-1,5c.26.16,19.46,11,50,11,30.18,0,49.66-10.76,50-11Z" fill="#edccc3"></path><path d="M114,106.4l-1-5a11.22,11.22,0,0,0-9-9L79.88,87.6,70,117.24h0C96.78,115.98,113.74,106.62,114,106.4Z" fill="#fff"></path><path d="M96,113.2v-22l.14-.4L79.88,87.6,70,117.24h0A120.7026,120.7026,0,0,0,96,113.2Z" fill="#61513d"></path><path d="M14,106.4l1-5a11.22,11.22,0,0,1,9-9l24.12-4.8L58,117.24h0C31.22,115.98,14.26,106.62,14,106.4Z" fill="#fff"></path><path d="M32,113.2v-22l-.14-.4,16.26-3.24L58,117.24h0A120.7017,120.7017,0,0,1,32,113.2Z" fill="#61513d"></path><rect x="51.5002" y="86.4288" width="2.9995" height="31.6228" transform="translate(-29.6114 22.0067) rotate(-18.4349)" fill="#343433"></rect><rect x="30.5" y="91.2402" width="3" height="22" fill="#343433"></rect><path d="M64,118.9c-31.1836,0-50.6055-11.1108-50.7871-11.2231a1.4994,1.4994,0,0,1-.6836-1.5708l1-5A12.785,12.785,0,0,1,23.6768,90.9341c1.416-.3574,5.1425-1.06,9.8457-1.9463C38.6924,88.0127,44.4883,86.92,48.5,86.04V77.24a1.5,1.5,0,0,1,3,0v10a1.5,1.5,0,0,1-1.1641,1.4619c-4.05.9317-10.5361,2.1548-16.2578,3.2334-4.52.8521-8.4228,1.5879-9.7051,1.9175-.0332.0083-.0673.0157-.1005.022a9.7746,9.7746,0,0,0-7.7969,7.7969l-.7852,3.9262C19.8086,107.6816,37.7334,115.9,64,115.9c26.3936,0,44.2393-8.2231,48.3105-10.2964l-.7812-3.91a9.7839,9.7839,0,0,0-7.8018-7.8188c-.0332-.0063-.0664-.0132-.0986-.022-1.1826-.3017-5.207-1.0683-9.8672-1.956-5.6162-1.07-11.9814-2.2827-16.0859-3.1924A1.499,1.499,0,0,1,76.5,87.24v-10a1.5,1.5,0,0,1,3,0v8.791c4.0449.8653,9.7422,1.9507,14.8232,2.9185,4.8409.9224,8.6778,1.6528,9.9981,1.9844a12.7928,12.7928,0,0,1,10.1543,10.1938l.9951,4.9781a1.5015,1.5015,0,0,1-.6045,1.519C114.7061,107.7373,95.2129,118.9,64,118.9Z" fill="#333"></path><path d="M63.84,21.2c15.42,0,22,9.32,22,22v6c3.82.1,4.9,3.72,4,8-.76,3.52-2,8-6,8v4c0,4.58-6,8-12,14-2,2-6,2-8,2h0c-2,0-6,0-8-2-6-6-12-9.44-12-14v-4c-4,0-5.26-4.48-6-8-.92-4.28.16-7.9,4-8v-6C41.84,30.48,48.42,21.2,63.84,21.2Z" fill="#edccc3"></path><path d="M63.86,21.2c-15.42,0-22,9.32-22,22v6c-3.84.1-4.92,3.72-4,8,.74,3.52,2,8,6,8v4c0,2.94,2.42,5.38,5.76,8.34V62.38c0-22.24,8.24-29.22,16.8-38.8a23.58,23.58,0,0,1,2-2A32.2408,32.2408,0,0,0,63.86,21.2Z" fill="#e5c2ba"></path><path d="M63.86,21.2c-15.42,0-22,9.32-22,22v5.48c3,1.48,9.88,3.2,22.14,3.2,11.86,0,18.7-1.56,21.86-3.06V43.24C85.84,30.52,79.26,21.22,63.86,21.2Z" fill="#e5c2ba"></path><path d="M38.34,55.72c.76,3.54,2.68,8.5,5.68,8.5v5c0,3.4,3.5,8,8,11.7V73.28a9.52,9.52,0,0,0-3.24-8,6.64,6.64,0,0,1-2.76-6V52.22a4,4,0,0,0-4-4.5C38.22,47.72,37.44,51.44,38.34,55.72Z" fill="#e5c2ba"></path><path d="M86,47.72v-6c0-12.72-6.56-21.5-22-21.5a32.4752,32.4752,0,0,0-6,.52V43.6A4.26,4.26,0,0,1,55.88,47a.42.42,0,0,0,.16.78,8,8,0,0,1,6,3.78,2,2,0,0,1,2,2v4a3.22,3.22,0,0,0,1.3,2.42,2.0138,2.0138,0,0,1-1.3,3.54c-1.48,0-2-1-4-1-1.18,0-1,1.54-1.04,1.5a4.3794,4.3794,0,0,1,2,.52,5.9992,5.9992,0,0,0,3,.78v6.94a2.14,2.14,0,0,0,1.68,2.12A2.78,2.78,0,0,1,68,77.48c0,5.5-9.82,1.26-9.9,7.16a22.74,22.74,0,0,0,5.9.6,15.2192,15.2192,0,0,0,6.5-1.02c6.64-3.5,13.5-10.42,13.5-15v-5c3,0,5.22-4.96,6-8.5C90.9,51.44,89.84,47.82,86,47.72Z" fill="#e5c2ba"></path><path d="M86,47.72a3.6,3.6,0,0,0-4,4V59.3a6.64,6.64,0,0,1-2.76,6,9.52,9.52,0,0,0-3.24,8v7.26c4.44-3.56,8-8,8-11.32v-5c3,0,5.22-4.96,6-8.5C90.9,51.44,89.84,47.76,86,47.72Z" fill="#d8b3ad"></path><path d="M66.9,69.68a5.34,5.34,0,0,0-2.36.26,1.5,1.5,0,0,1-.84,0,5.4207,5.4207,0,0,0-2.36-.26c-1.34.18-1.48,1.04-4.18,2.5l2.38,1.46a4.4206,4.4206,0,0,0,2.54.82H66.2a4.4206,4.4206,0,0,0,2.54-.82l2.46-1.4C68.5,70.78,68.24,69.86,66.9,69.68Z" fill="#d6b3b0"></path><path d="M71.2,72.84a7.2661,7.2661,0,0,1-2.4316-.4189A6.1045,6.1045,0,0,0,66.72,72.06a12.6,12.6,0,0,0-2.4228.3237l-.1358.0322-.1367-.0317A12.884,12.884,0,0,0,61.56,72.06a5.8388,5.8388,0,0,0-1.8858.32,7.8068,7.8068,0,0,1-2.5136.4.6.6,0,0,1,0-1.2,6.6261,6.6261,0,0,0,2.17-.35,7.009,7.009,0,0,1,2.25-.3706,14.092,14.092,0,0,1,2.5791.3247,13.7647,13.7647,0,0,1,2.54-.3242h.0029a7.2481,7.2481,0,0,1,2.4258.4155A6.1575,6.1575,0,0,0,71.2,71.64a.6.6,0,0,1,0,1.2Z" fill="#af8582"></path><path d="M63.84,86.7c-2.1494,0-6.621,0-9.06-2.4395-1.6826-1.6821-3.3379-3.1352-4.9385-4.54-4.19-3.68-7.501-6.5859-7.501-10.52V66.5264c-4.291-1.0445-5.4453-6.5347-5.9677-9.0176-.6963-3.2393-.3174-5.9971,1.0693-7.7593a5.2362,5.2362,0,0,1,2.8984-1.855V43.2c0-14.9346,8.5655-23.5,23.5-23.5s23.5,8.5654,23.5,23.5V47.896a5.2217,5.2217,0,0,1,2.875,1.8408c1.3887,1.7583,1.7774,4.5186,1.0928,7.772-.582,2.6948-1.7275,8.0034-5.9678,9.0205V69.2c0,3.9468-3.3066,6.8457-7.4931,10.5161-1.6035,1.4058-3.2608,2.8594-4.9463,4.5444C70.4609,86.7,65.9893,86.7,63.84,86.7Zm0-64c-13.22,0-20.5,7.28-20.5,20.5v6A1.5,1.5,0,0,1,41.8789,50.7a2.5544,2.5544,0,0,0-2.08.9048c-.8125,1.0327-.9922,2.9575-.4922,5.2808C40.3252,61.7275,41.6377,63.7,43.84,63.7a1.5,1.5,0,0,1,1.5,1.5v4c0,2.5762,2.8594,5.0864,6.4805,8.2651,1.5606,1.37,3.3291,2.9234,5.08,4.6743C58.4609,83.7,62.0938,83.7,63.84,83.7s5.379,0,6.94-1.5606c1.7549-1.7548,3.5264-3.3085,5.09-4.6792C79.4844,74.291,82.34,71.7871,82.34,69.2v-4a1.5,1.5,0,0,1,1.5-1.5c2.542,0,3.65-2.7251,4.5342-6.8164.4883-2.3252.3028-4.2549-.5136-5.2871a2.5324,2.5324,0,0,0-2.06-.897A1.5,1.5,0,0,1,84.34,49.2v-6C84.34,29.9805,77.06,22.7,63.84,22.7Z" fill="#333"></path><rect x="59.1886" y="100.7405" width="31.6228" height="2.9995" transform="matrix(0.3161, -0.9487, 0.9487, 0.3161, -45.7067, 141.0727)" fill="#343433"></rect><rect x="94.5" y="91.2402" width="3" height="22" fill="#343433"></rect><path d="M45.8,99.8a.72.72,0,0,1,1.42,0h0a.76.76,0,0,1,.78.74q.0006.02,0,.04a.78.78,0,0,1-.78.78.9.9,0,0,1-.54-.2l-.48.48a3.3813,3.3813,0,0,0-.78-.9l.46-.44A.64.64,0,0,1,45.8,99.8Z" fill="#d6ab56"></path><path d="M39.16,101a.78.78,0,0,1-1.3-.58.76.76,0,0,1,.7395-.78q.02-.0006.0405,0h0a.72.72,0,0,1,1.42,0,.68.68,0,0,1-.16.42l.44.44a4.2185,4.2185,0,0,0-.78.9Z" fill="#d6ab56"></path><path d="M39.42,109a.78.78,0,0,1-.78-.78h0a.7.7,0,0,1-.64-.7.72.72,0,0,1,.72-.7.62.62,0,0,1,.42.14l.56-.54.5.36v.8l-.2.2a.76.76,0,0,1,.2.54A.78.78,0,0,1,39.42,109Z" fill="#d6ab56"></path><path d="M46.12,103.56a3.1624,3.1624,0,1,0-6.3-.56h0a2.0015,2.0015,0,0,0,0,.5c0,2.26-.18,1.84,1.18,2.74v1.18h.78v-.78h.8v.78h.78v-.78h.78v.78h.8v-1.18C46.32,105.38,46.12,105.8,46.12,103.56Zm-4.72,1.56a.8.8,0,0,1-.78-.78.78.78,0,0,1,.78-.78.76.76,0,0,1,.78.7395q.0006.02,0,.0405h0a.78.78,0,0,1-.78.78Zm1.18.8c0-.44.16-.8.38-.8s.4.36.4.8Zm2-.8a.8.8,0,0,1-.78-.78.78.78,0,0,1,.78-.78.76.76,0,0,1,.78.7395q.0006.02,0,.0405h0a.76.76,0,0,1-.7395.78H44.58Z" fill="#d6ab56"></path><path d="M47.28,108.18h0a.8.8,0,0,1-1.58,0,.7.7,0,0,1,.3-.38l-.22-.2v-.8l.52-.36.54.54a.72.72,0,0,1,.44-.14.7.7,0,0,1,.7.7A.68.68,0,0,1,47.28,108.18Z" fill="#d6ab56"></path><path d="M66.7129,86.0068c-.3516,0-.7236-.0014-1.1211-.0029L64,86l-1.5918.0039c-4.915.0186-6.0781.0234-8.9238-2.5024A35.544,35.544,0,0,0,48.4463,79.8c-3.127-1.9736-4.7832-3.2422-5.2988-8.3706a15.3027,15.3027,0,0,1,.1933-4.9678c-2.833-1.5376-5.0752-4.8281-6.0039-8.9307C36.72,54.1143,36.832,49.6255,38.96,47.08a5.0964,5.0964,0,0,1,2.54-1.6758V40.4c0-15.14,7.3594-22.5,22.5-22.5s22.5,7.373,22.5,22.54v5.003a5.0763,5.0763,0,0,1,2.5195,1.65c2.1094,2.5024,2.24,7.0136,1.6592,10.4008-.9424,4.2691-3.41,7.7417-6.4336,9.1978-.0957.8242-.2539,2.2319-.4531,4.1992-.6035,5.5313-1.8281,6.7271-5.2822,9.3721-1.0547.8076-2.3672,1.813-3.9746,3.2388C71.9189,85.8232,70.7188,86.0068,66.7129,86.0068ZM64,83l1.6035.0039c4.7588.0147,4.9512.019,6.9414-1.7461,1.6875-1.4975,3.0479-2.54,4.1406-3.3765,3.004-2.3007,3.629-2.7792,4.1231-7.3037.3408-3.3735.5635-5.1264.5635-5.1264a1.5,1.5,0,0,1,1.0107-1.2329c2.416-.8106,4.5664-3.7452,5.3526-7.3018.5644-3.2983.164-6.4971-1.01-7.89A2.1062,2.1062,0,0,0,85,48.24a1.5,1.5,0,0,1-1.5-1.5v-6.3C83.5,26.9263,77.4863,20.9,64,20.9S44.5,26.9141,44.5,40.4v6.3A1.5,1.5,0,0,1,43,48.2a2.1161,2.1161,0,0,0-1.7383.8037c-1.1885,1.4214-1.584,4.6084-.9853,7.93.8086,3.5679,2.8945,6.4365,5.3007,7.2441a1.5011,1.5011,0,0,1,.962,1.8447,12.4289,12.4289,0,0,0-.4112,5.0713c.3975,3.9468,1.2852,4.5069,3.919,6.1695a38.0493,38.0493,0,0,1,5.4287,3.9941c1.9883,1.7647,2.1758,1.7651,6.9209,1.7461Z" fill="#333"></path><rect x="80.8" y="48.8" width="8.4" height="21" fill="#333"></rect><path d="M87.78,44.6v.26a.7.7,0,0,1-.58.8.68.68,0,0,1-.7963-.5391L86.4,45.1a.4805.4805,0,0,1,0-.24v-.3a.7.7,0,0,1,.72-.66.62.62,0,0,1,.6587.5787c.0009.0137.0013.0275.0013.0413Z" fill="#444"></path><path d="M82,46.68v.52a1.14,1.14,0,0,1-2.28,0h0v-.58A1.14,1.14,0,0,1,81,45.64a1.12,1.12,0,0,1,.98.98Z" fill="#444"></path><path d="M73.48,82.56c.34-1.58-2.72.9-4.24,0A9.44,9.44,0,0,0,64,80.3h0a9.3,9.3,0,0,0-5.16,2.26c-1.54.9-4.6-1.58-4.24,0s3.62,5.1,9.4,5.14h0C69.86,87.66,73.12,84.14,73.48,82.56Z" fill="#343433"></path><path d="M60.94,76.2l2.6,2.6a.64.64,0,0,0,.9,0h0l2.62-2.6a.66.66,0,0,0,.0066-.9334L67.06,75.26a.72.72,0,0,0-.44-.18H61.4a.64.64,0,0,0-.6412.6387c0,.0138,0,.0276.0012.0413A.62.62,0,0,0,60.94,76.2Z" fill="#343433"></path><path d="M62,90.32a2,2,0,0,0-1.12-1.82,2,2,0,0,0,0-3.66h-2a2,2,0,0,0,0,3.66,2,2,0,0,0,0,3.66,2,2,0,0,0,0,3.64,2,2,0,0,0,0,3.66,2.103,2.103,0,0,0,2,3.7h0a2.1,2.1,0,0,0,.8474-2.8464L61.72,100.3a2.0006,2.0006,0,0,0-.84-.84,2,2,0,0,0,0-3.66,2,2,0,0,0,0-3.64A2,2,0,0,0,62,90.32Z" fill="#343433"></path><path d="M70.3,90.32a2,2,0,0,0-1.12-1.82,2,2,0,0,0,0-3.66h-2a2,2,0,0,0,0,3.66,2,2,0,0,0-1.021,2.6377l.001.0023a2,2,0,0,0,1.02,1.02,2,2,0,0,0,0,3.64,2,2,0,0,0,0,3.66,2.103,2.103,0,1,0,2,3.7h0a2.1,2.1,0,0,0,.8237-2.8533L70,100.3a2.0006,2.0006,0,0,0-.84-.84,2,2,0,0,0,0-3.66,2,2,0,0,0,0-3.64A2,2,0,0,0,70.3,90.32Z" fill="#343433"></path><path d="M92,46.48a174.9253,174.9253,0,0,1-28,2c-16.8,0-23.1-2-23.1-2V36S45.1,21.24,64,21.24A34,34,0,0,1,92,35.96Z" fill="#e16251"></path><path d="M40.9,36V46.48s1.8.94,9.08,1.52c2.4-13.44,6.84-21.2,12-26.66C44.84,22.36,40.9,36,40.9,36Z" fill="#d1574a"></path><path d="M65.62,49.9878q-.8173,0-1.6347-.0078c-16.8243,0-23.2725-1.9859-23.5391-2.07A1.4994,1.4994,0,0,1,39.4,46.48V36a1.4985,1.4985,0,0,1,.0576-.4106C39.5029,35.4312,44.1963,19.74,64,19.74A35.0877,35.0877,0,0,1,93.04,35.1167a1.5,1.5,0,0,1,.26.8433V46.48a1.5,1.5,0,0,1-1.2715,1.4824A173.5638,173.5638,0,0,1,65.62,49.9878ZM42.4,45.31c2.3867.5263,9.0205,1.67,21.6,1.67a171.0452,171.0452,0,0,0,26.3-1.791V36.4272A32.092,32.092,0,0,0,64,22.74c-16.5645,0-21.0391,11.78-21.6,13.4873ZM91.8,46.48h0Z" fill="#343433"></path><path d="M75.18,71.3c-1-5.52-8-4.58-11.18-6-3.06,1.4-10.2.62-11.16,6a6,6,0,0,0,.68,4.5c.84-2.36,1.44-5.02,3.82-5.64S64,69.26,64,67.54c0,1.7,4.2,2,6.68,2.62s2.98,3.28,3.82,5.64A6.1,6.1,0,0,0,75.18,71.3Z" fill="#343433"></path><circle cx="59.8" cy="97.64" r="1.58" fill="#d6ab56"></circle><path d="M59.8,99.7451a2.105,2.105,0,1,1,2.1055-2.105A2.1076,2.1076,0,0,1,59.8,99.7451Zm0-3.16A1.0552,1.0552,0,1,0,60.8545,97.64,1.056,1.056,0,0,0,59.8,96.585Z" fill="#333"></path><circle cx="68.2" cy="97.64" r="1.58" fill="#d6ab56"></circle><path d="M68.2,99.7451a2.105,2.105,0,1,1,2.1055-2.105A2.1076,2.1076,0,0,1,68.2,99.7451Zm0-3.16A1.0552,1.0552,0,1,0,69.2549,97.64,1.056,1.056,0,0,0,68.2,96.585Z" fill="#333"></path><path d="M64,11c-8.4,0-12.72,4.54-13.22,5.3C30,16.2,36,36.2,24,46.2l6.48-1.6h0c-6.3,10.46-2.1,14.66-6.6,22.5a10,10,0,0,0,5.8-2.56A17.7,17.7,0,0,0,26,76.04c0,2.66.36,5.22.36,7.6a13.58,13.58,0,0,1-2.42,8c7.1-2,17.14-4.66,23.4-6V62.38C47.28,21.2,64,20.22,64,20.22c7.24-.16,18.58,3.1,27.06,14.4V32C91.06,25,82.9,11,64,11Z" fill="#343433"></path><path d="M65.62,49.9478q-.8173,0-1.6347-.0079A1.5,1.5,0,0,1,62.5,48.4258,1.5169,1.5169,0,0,1,64.0146,46.94,171.04,171.04,0,0,0,90.3,45.1489V36.4272A32.092,32.092,0,0,0,64,22.74a1.5,1.5,0,0,1,0-3h0A35.0877,35.0877,0,0,1,93.04,35.1167a1.5,1.5,0,0,1,.26.8433V46.44a1.5,1.5,0,0,1-1.2715,1.4825A173.5638,173.5638,0,0,1,65.62,49.9478Z" fill="#343433"></path><path d="M46.42,73a3.42,3.42,0,0,0-.9-2.28,3.26,3.26,0,0,0,.62-1.88v-.5a3.26,3.26,0,0,0-1.06-2.38,2.98,2.98,0,0,0,.82-2v-.32a2.96,2.96,0,0,0-1.12-2.32,2.72,2.72,0,0,0,.82-2v-.24a2.7,2.7,0,0,0-5.4,0v.24a2.7,2.7,0,0,0,.8,2,3,3,0,0,0-1,2.3v.32a2.96,2.96,0,0,0,.8,2,3.36,3.36,0,0,0-.86,1.3,3.3414,3.3414,0,0,0-.76-1.44,3.2,3.2,0,0,0,.7-2v-.52a3.18,3.18,0,0,0-.84-2.14,3.04,3.04,0,0,0,.64-1.82V59a3,3,0,0,0-1.06-2.26,2.68,2.68,0,0,0,.78-1.88v-.28a2.7,2.7,0,0,0-2.6169-2.7807q-.0915-.0027-.1831.0007a2.66,2.66,0,0,0-2.48,1.64,2.7023,2.7023,0,0,0-5,1.42h0v.3a2.64,2.64,0,0,0,.76,1.86,2.88,2.88,0,0,0-1.04,2.22v.48a2.96,2.96,0,0,0,.72,2,3.08,3.08,0,0,0-.86,2.16v.4a3.2,3.2,0,0,0,.62,1.88,3.26,3.26,0,0,0-.8,2.14v.5a3.1805,3.1805,0,0,0,.62,2,3.36,3.36,0,0,0-.76,2.14V73a3.36,3.36,0,0,0,.74,2,3.42,3.42,0,0,0-.76,2.16v.54a3.56,3.56,0,0,0,.58,2,3.42,3.42,0,0,0-.56,2v.36a3.5,3.5,0,0,0,.88,2.3,3.62,3.62,0,0,0-.74,2.22,3.34,3.34,0,0,0,.94,2.32,3.1,3.1,0,0,0-.76,2v.34a3.16,3.16,0,0,0,.88,2.18,2.9,2.9,0,0,0-.66,1.86v.42a2.88,2.88,0,0,0,.96,2.16,2.68,2.68,0,0,0-.74,1.84v.26a2.7,2.7,0,1,0,5.4,0V99.7a2.78,2.78,0,0,0-.72-1.8,2.9591,2.9591,0,0,0,.68-.88,2.64,2.64,0,0,0,2.14,1.14,2.84,2.84,0,0,0,2-4.76,3,3,0,0,0,1.08-2.26v-.48a2.94,2.94,0,0,0-.7-1.88,3.46,3.46,0,0,0,.76-1.28h0a3.26,3.26,0,0,0,.96,2.32,2.94,2.94,0,0,0-.7,2v.5a2.98,2.98,0,0,0,1.1,2.32,2.98,2.98,0,0,0-.82,2.1A2.7,2.7,0,0,0,43,99.46h.02a2.84,2.84,0,0,0,2-4.82,3,3,0,0,0,.98-2.3v-.5a2.92,2.92,0,0,0-.74-2,3.3,3.3,0,0,0,.96-2.3v-.5a3.22,3.22,0,0,0-.72-2,3.44,3.44,0,0,0,.92-2.32v-.68a3.42,3.42,0,0,0-.6-2,3.44,3.44,0,0,0,.58-1.9V77.6a3.46,3.46,0,0,0-.72-2,3.34,3.34,0,0,0,.74-2Z" fill="#343433"></path><path d="M31.82,54.16h0a.7.7,0,0,1,.7.7v.3a.7.7,0,0,1-.7.7h0a.7.7,0,0,1-.7-.7v-.3A.7.7,0,0,1,31.82,54.16Z" fill="#444"></path><path d="M36.6,53.8h0a.7.7,0,0,1,.7.7v.28a.7.7,0,0,1-.7.7h0a.7.7,0,0,1-.7-.7V54.5A.7.7,0,0,1,36.6,53.8Z" fill="#444"></path><path d="M31.79,58.28h0a.955.955,0,0,1,.95.96v.46a.955.955,0,0,1-.95.96h0a.955.955,0,0,1-.95-.96v-.46A.955.955,0,0,1,31.79,58.28Z" fill="#444"></path><path d="M36.58,57.92h0a1,1,0,0,1,1,1v.46a1,1,0,0,1-1,1h0a1,1,0,0,1-1-1v-.46A1,1,0,0,1,36.58,57.92Z" fill="#444"></path><path d="M42.9,58.42h0a.7.7,0,0,1,.7.7v.24a.7.7,0,0,1-.7.7h0a.7.7,0,0,1-.7-.7v-.24A.7.7,0,0,1,42.9,58.42Z" fill="#444"></path><path d="M31.83,62.66h0a1.135,1.135,0,0,1,1.13,1.14v.4a1.135,1.135,0,0,1-1.13,1.14h0A1.135,1.135,0,0,1,30.7,64.2v-.4A1.135,1.135,0,0,1,31.83,62.66Z" fill="#444"></path><rect x="35.4" y="62.18" width="2.38" height="2.9" rx="1.19" fill="#444"></rect><path d="M42.9,62.6h0a1,1,0,0,1,1,1v.34a1,1,0,0,1-1,1h0a1,1,0,0,1-1-1V63.6A1,1,0,0,1,42.9,62.6Z" fill="#444"></path><path d="M42.9,67.12h0a1.24,1.24,0,0,1,1.24,1.24v.5A1.24,1.24,0,0,1,42.9,70.1h0a1.24,1.24,0,0,1-1.24-1.24v-.5A1.24,1.24,0,0,1,42.9,67.12Z" fill="#444"></path><rect x="35.26" y="66.74" width="2.7" height="3.06" rx="1.35" fill="#444"></rect><path d="M31.82,66.92h0a1.3,1.3,0,0,1,1.3,1.3v.48a1.3,1.3,0,0,1-1.3,1.3h0a1.3,1.3,0,0,1-1.3-1.3v-.48A1.3,1.3,0,0,1,31.82,66.92Z" fill="#444"></path><rect x="30.38" y="71.32" width="2.86" height="3.14" rx="1.42" fill="#444"></rect><path d="M36.6,70.98h0a1.46,1.46,0,0,1,1.46,1.46v.58a1.46,1.46,0,0,1-1.46,1.46h0a1.46,1.46,0,0,1-1.46-1.46v-.58A1.46,1.46,0,0,1,36.6,70.98Z" fill="#444"></path><rect x="41.6" y="71.62" width="2.82" height="3.34" rx="1.4" fill="#444"></rect><path d="M31.85,75.82h0a1.495,1.495,0,0,1,1.49,1.5v.52a1.495,1.495,0,0,1-1.49,1.5h0a1.495,1.495,0,0,1-1.49-1.5v-.52A1.495,1.495,0,0,1,31.85,75.82Z" fill="#444"></path><path d="M36.61,75.52h0a1.495,1.495,0,0,1,1.49,1.5v.52a1.495,1.495,0,0,1-1.49,1.5h0a1.495,1.495,0,0,1-1.49-1.5v-.52A1.495,1.495,0,0,1,36.61,75.52Z" fill="#444"></path><path d="M42.88,76.2h0a1.52,1.52,0,0,1,1.52,1.52v.54a1.52,1.52,0,0,1-1.52,1.52h0a1.52,1.52,0,0,1-1.52-1.52v-.54A1.52,1.52,0,0,1,42.88,76.2Z" fill="#444"></path><path d="M42.96,80.64h0a1.46,1.46,0,0,1,1.46,1.46v.68a1.46,1.46,0,0,1-1.46,1.46h0a1.46,1.46,0,0,1-1.46-1.46V82.1A1.46,1.46,0,0,1,42.96,80.64Z" fill="#444"></path><path d="M36.67,80.16h0a1.395,1.395,0,0,1,1.39,1.4v.36a1.395,1.395,0,0,1-1.39,1.4h0a1.395,1.395,0,0,1-1.39-1.4v-.36A1.395,1.395,0,0,1,36.67,80.16Z" fill="#444"></path><rect x="30.38" y="80.2" width="2.96" height="3.32" rx="1.48" fill="#444"></rect><rect x="30.52" y="85.04" width="2.7" height="2.88" rx="1.34" fill="#444"></rect><path d="M36.68,84.9h0a1.2,1.2,0,0,1,1.2,1.2v.48a1.2,1.2,0,0,1-1.2,1.2h0a1.2,1.2,0,0,1-1.2-1.2V86.1A1.2,1.2,0,0,1,36.68,84.9Z" fill="#444"></path><path d="M42.97,85.86h0a1.255,1.255,0,0,1,1.25,1.26v.48a1.255,1.255,0,0,1-1.25,1.26h0a1.255,1.255,0,0,1-1.25-1.26v-.48A1.255,1.255,0,0,1,42.97,85.86Z" fill="#444"></path><rect x="30.7" y="89.76" width="2.3" height="2.64" rx="1.14" fill="#444"></rect><path d="M36.68,89.68h0a.98.98,0,0,1,.98.98v.48a.98.98,0,0,1-.98.98h0a.98.98,0,0,1-.98-.98v-.48A.98.98,0,0,1,36.68,89.68Z" fill="#444"></path><rect x="41.98" y="90.84" width="2.02" height="2.52" rx="1.01" fill="#444"></rect><path d="M42.97,95.88h0a.7151.7151,0,0,1,.71.72v.16a.7151.7151,0,0,1-.71.72h0a.7151.7151,0,0,1-.71-.72V96.6A.7151.7151,0,0,1,42.97,95.88Z" fill="#444"></path><path d="M36.64,94.58h0a.7.7,0,0,1,.7.7v.18a.7.7,0,0,1-.7.7h0a.7.7,0,0,1-.7-.7v-.18A.7.7,0,0,1,36.64,94.58Z" fill="#444"></path><rect x="30.92" y="94.34" width="1.92" height="2.34" rx="0.96" fill="#444"></rect><path d="M31.84,99.02h0a.7.7,0,0,1,.7.7v.24a.7.7,0,0,1-.7.7h0a.7.7,0,0,1-.7-.7v-.24A.7.7,0,0,1,31.84,99.02Z" fill="#444"></path><rect x="34.6" y="72.18" width="4.2" height="4.86" rx="1.26" fill="#d6ab56"></rect><path d="M76.62,28v-.28a1.54,1.54,0,0,0-.88-1.34,1.52,1.52,0,0,0,.9-1.4V24.7a1.52,1.52,0,1,0-3.04,0V25a1.44,1.44,0,0,0,.9,1.34,1.54,1.54,0,0,0-.9,1.34v.34a1.46,1.46,0,0,0,.9,1.36,1.54,1.54,0,0,0-.9,1.34v.34a1.48,1.48,0,0,0,1.04,1.42,1.34,1.34,0,0,0-.92,1.38v.28a1.44,1.44,0,0,0,.84,1.2,1.1,1.1,0,0,0-.58,1.1v.28a1.1,1.1,0,0,0,.68.9.7.7,0,0,0-.3.62v.12a.7.7,0,0,0,1.38,0v-.34a.72.72,0,0,0-.26-.46,1.12,1.12,0,0,0,.66-.86v-.52a1.14,1.14,0,0,0-.62-.88,1.32,1.32,0,0,0,.86-1.18v-.38a1.38,1.38,0,0,0-.9-1.22,1.5,1.5,0,0,0,1.04-1.46V30.8a1.44,1.44,0,0,0-.88-1.34A1.52,1.52,0,0,0,76.62,28Z" fill="#343433"></path><path d="M72.36,27.24V27a1.7,1.7,0,0,0-.98-1.5,1.72,1.72,0,0,0,1-1.56v-.32a1.7,1.7,0,1,0-3.4,0V24a1.64,1.64,0,0,0,1,1.5,1.76,1.76,0,0,0-1,1.5v.38a1.66,1.66,0,0,0,1,1.52,1.74,1.74,0,0,0-1,1.48v.4a1.7,1.7,0,0,0,1.16,1.56,1.5,1.5,0,0,0-1.02,1.54v.32a1.54,1.54,0,0,0,.94,1.32,1.26,1.26,0,0,0-.64,1.24V37a1.2,1.2,0,0,0,.74,1,.78.78,0,0,0-.32.7v.12a.76.76,0,0,0,.76.76h0a.78.78,0,0,0,.78-.76v-.36a1.0194,1.0194,0,0,0-.28-.52,1.28,1.28,0,0,0,.72-.98V36.4a1.28,1.28,0,0,0-.7-.98,1.52,1.52,0,0,0,.98-1.34v-.4a1.58,1.58,0,0,0-1-1.36,1.7,1.7,0,0,0,1.14-1.62v-.3a1.62,1.62,0,0,0-.96-1.48A1.72,1.72,0,0,0,72.36,27.24Z" fill="#343433"></path><path d="M54.48,51a1.84,1.84,0,0,0,.1641,3.6763q.0883-.0039.1759-.0163a1.84,1.84,0,0,0,0-3.66Z" fill="#343433"></path><path d="M73.46,51a1.84,1.84,0,1,1-1.84,1.84h0A1.84,1.84,0,0,1,73.46,51Z" fill="#343433"></path><path d="M63.9414,66.0615a5.9044,5.9044,0,0,1-2.8643-.7451,4.5381,4.5381,0,0,0-2.14-.5464.75.75,0,0,1,.0029-1.5h.003a6.0583,6.0583,0,0,1,2.8554.731,4.3889,4.3889,0,0,0,4.2783.0029,6.0618,6.0618,0,0,1,2.86-.7339H68.94a.75.75,0,0,1,.003,1.5,4.5416,4.5416,0,0,0-2.1446.5493A5.89,5.89,0,0,1,63.9414,66.0615Z" fill="#af8582"></path><path d="M51.28,54.14l3.6-.1,3.6.1v.2a4.72,4.72,0,0,1-1.8,1.32,4.46,4.46,0,0,1-3.6,0,4.72,4.72,0,0,1-1.8-1.32Z" fill="#333"></path><path d="M70,54.14l3.6-.1,3.6.1v.2a4.72,4.72,0,0,1-1.8,1.32,4.46,4.46,0,0,1-3.6,0A4.72,4.72,0,0,1,70,54.34Z" fill="#333"></path><path d="M95.42,78.88a4.52,4.52,0,0,0-1.22-3.06,3.4606,3.4606,0,0,0,.38-1.56v-.44a3.42,3.42,0,0,0-.96-2.4,3.36,3.36,0,0,0,.84-2.22v-.4a3.4,3.4,0,0,0-.88-2.26,3.26,3.26,0,0,0,.88-2.24v-.38a3.3,3.3,0,0,0-.94-2.32,3.18,3.18,0,0,0,.74-2V59a3.2,3.2,0,0,0-.94-2.26,3.04,3.04,0,0,0,.8-2v-.52a3.08,3.08,0,0,0-1.04-2.3,2.88,2.88,0,0,0,.88-2v-.54a2.9,2.9,0,0,0-5.78,0v.54a2.82,2.82,0,0,0,.9,2A3,3,0,0,0,88,54.16v.52a3.06,3.06,0,0,0,.82,2A3.2,3.2,0,0,0,87.86,59v.56a3.24,3.24,0,0,0,.84,2.14,3.38,3.38,0,0,0-.86,2.22v.38a3.3,3.3,0,0,0,.8,2.12,3.36,3.36,0,0,0-1,2.38v.4a3.4,3.4,0,0,0,.88,2.26,3.44,3.44,0,0,0-.94,2.36v.44a3.48,3.48,0,0,0,.4,1.56,4.46,4.46,0,0,0,0,6.2,3.2208,3.2208,0,0,0-.38,1.5v.52a3.42,3.42,0,0,0,.8,2.18,3.4,3.4,0,0,0-.68,2V89a3.42,3.42,0,0,0,.86,2.24,3.18,3.18,0,0,0-.72,2v.54a3.22,3.22,0,0,0,1.02,2.34A3,3,0,0,0,88,98.14v.62a2.92,2.92,0,0,0,.96,2.2,2.92,2.92,0,0,0-.82,2v.62a2.9,2.9,0,0,0,1.2,2.34,2.9,2.9,0,0,0-1.02,2.22,2.7,2.7,0,0,0,2.7,2.7,2.74,2.74,0,0,0,2.7033-2.7762q-.0006-.0519-.0033-.1038a2.64,2.64,0,0,0-.96-2A2.9,2.9,0,0,0,94,103.6V103a2.82,2.82,0,0,0-.9-2,3,3,0,0,0,.9-2.24v-.62a2.98,2.98,0,0,0-.82-2,3.2,3.2,0,0,0,1.12-2.42v-.54a3.18,3.18,0,0,0-.72-2A3.42,3.42,0,0,0,94.5,89v-.66a3.4,3.4,0,0,0-.68-2,3.42,3.42,0,0,0,.78-2.18v-.52a3.3207,3.3207,0,0,0-.4-1.58A4.52,4.52,0,0,0,95.42,78.88Z" fill="#333"></path><ellipse cx="91.08" cy="78.88" rx="2.32" ry="2.44" style="fill:#d25949"></ellipse><path d="M91.07,48.38h0a.895.895,0,0,1,.89.9v.5a.895.895,0,0,1-.89.9h0a.895.895,0,0,1-.89-.9v-.5A.895.895,0,0,1,91.07,48.38Z" fill="#444"></path><rect x="90" y="53.1" width="2.12" height="2.64" rx="1.06" fill="#444"></rect><rect x="89.86" y="57.8" width="2.4" height="2.96" rx="1.2" fill="#444"></rect><rect x="89.84" y="62.6" width="2.62" height="3.02" rx="1.31" fill="#444"></rect><rect x="89.64" y="67.4" width="2.82" height="3.22" rx="1.4" fill="#444"></rect><path d="M91.08,72.32h0a1.5,1.5,0,0,1,1.5,1.5v.44a1.5,1.5,0,0,1-1.5,1.5h0a1.5,1.5,0,0,1-1.5-1.5v-.44A1.5,1.5,0,0,1,91.08,72.32Z" fill="#444"></path><path d="M91.13,82.06h0a1.475,1.475,0,0,1,1.47,1.48v.5a1.475,1.475,0,0,1-1.47,1.48h0a1.475,1.475,0,0,1-1.47-1.48v-.5A1.475,1.475,0,0,1,91.13,82.06Z" fill="#444"></path><path d="M91.14,86.88h0a1.36,1.36,0,0,1,1.36,1.36v.66a1.36,1.36,0,0,1-1.36,1.36h0a1.36,1.36,0,0,1-1.36-1.36v-.66A1.36,1.36,0,0,1,91.14,86.88Z" fill="#444"></path><path d="M91.14,91.92h0a1.22,1.22,0,0,1,1.22,1.22v.54a1.22,1.22,0,0,1-1.22,1.22h0a1.22,1.22,0,0,1-1.22-1.22v-.54A1.22,1.22,0,0,1,91.14,91.92Z" fill="#444"></path><rect x="90.06" y="97.14" width="1.98" height="2.62" rx="0.99" fill="#444"></rect><path d="M91.14,102.06h0a.92.92,0,0,1,.92.92v.62a.92.92,0,0,1-.92.92h0a.92.92,0,0,1-.92-.92v-.62A.92.92,0,0,1,91.14,102.06Z" fill="#444"></path><rect x="90.4" y="107.28" width="1.4" height="1.58" rx="0.7" fill="#444"></rect><path d="M88.28,70.06a3.52,3.52,0,0,0-.74-2.14,3.48,3.48,0,0,0,.66-2v-.48a3.42,3.42,0,0,0-.76-2.12,3.52,3.52,0,0,0,.76-2.14V60.6a3.42,3.42,0,0,0-.82-2.2,3.24,3.24,0,0,0,.74-2v-.54a3.32,3.32,0,0,0-.78-2.12,3.1,3.1,0,0,0,.7-2v-.38a3.26,3.26,0,0,0-6.52,0v.38a3.1,3.1,0,0,0,.7,2,3.32,3.32,0,0,0-.78,2.12v.54a3.24,3.24,0,0,0,.74,2,3.42,3.42,0,0,0-.82,2.2v.58a3.42,3.42,0,0,0,.76,2.12,3.34,3.34,0,0,0-.78,2.14v.48a3.42,3.42,0,0,0,.68,2,3.42,3.42,0,0,0-.74,2.12v.56a3.58,3.58,0,0,0,.8,2.22A3.42,3.42,0,0,0,81.34,75v.22a3.44,3.44,0,0,0,1.14,2.56,3.42,3.42,0,0,0-1.06,2.46v.52A3.34,3.34,0,0,0,82.24,83a3.28,3.28,0,0,0-.72,2v.36a3.22,3.22,0,0,0,.98,2.32,3.16,3.16,0,0,0-.82,2v.52A3.14,3.14,0,0,0,83.14,93a3.02,3.02,0,0,0-1.34,2.5v.52a2.98,2.98,0,0,0,.82,2,2.86,2.86,0,0,0-.68,1.84v.56a2.94,2.94,0,0,0,.8,2,2.96,2.96,0,0,0-.64,1.82,2.7,2.7,0,0,0,2.7,2.7,2.74,2.74,0,0,0,2.7024-2.7771q-.0006-.0415-.0024-.0829a2.68,2.68,0,0,0-.62-1.64,2.88,2.88,0,0,0,.82-2V99.8a2.86,2.86,0,0,0-.68-1.84,2.98,2.98,0,0,0,.82-2V95.4A3,3,0,0,0,86.52,93,3.14,3.14,0,0,0,88,90.24v-.52a3.1,3.1,0,0,0-.84-2.12A3.28,3.28,0,0,0,88,85.3V85a3.28,3.28,0,0,0-.72-2,3.34,3.34,0,0,0,.84-2.2v-.6a3.42,3.42,0,0,0-1.06-2.46,3.44,3.44,0,0,0,1.14-2.56V75a3.44,3.44,0,0,0-.78-2.16,3.46,3.46,0,0,0,.78-2.18Z" fill="#333"></path><rect x="83.94" y="98.92" width="1.76" height="2.32" rx="0.88" fill="#444"></rect><rect x="84.1" y="103.3" width="1.4" height="1.56" rx="0.7" fill="#444"></rect><rect x="83.8" y="94.38" width="2.04" height="2.56" rx="1.02" fill="#444"></rect><path d="M84.83,88.58h0a1.1551,1.1551,0,0,1,1.15,1.16v.5a1.1551,1.1551,0,0,1-1.15,1.16h0a1.1551,1.1551,0,0,1-1.15-1.16v-.5A1.1551,1.1551,0,0,1,84.83,88.58Z" fill="#444"></path><path d="M84.8,83.66h0a1.28,1.28,0,0,1,1.28,1.28v.36a1.28,1.28,0,0,1-1.28,1.28h0a1.28,1.28,0,0,1-1.28-1.28v-.36A1.28,1.28,0,0,1,84.8,83.66Z" fill="#444"></path><path d="M84.81,78.8h0a1.395,1.395,0,0,1,1.39,1.4v.5a1.395,1.395,0,0,1-1.39,1.4h0a1.395,1.395,0,0,1-1.39-1.4v-.5A1.395,1.395,0,0,1,84.81,78.8Z" fill="#444"></path><rect x="83.34" y="73.5" width="2.94" height="3.16" rx="1.46" fill="#444"></rect><path d="M84.78,68.56h0a1.5,1.5,0,0,1,1.5,1.5v.56a1.5,1.5,0,0,1-1.5,1.5h0a1.5,1.5,0,0,1-1.5-1.5v-.56A1.5,1.5,0,0,1,84.78,68.56Z" fill="#444"></path><path d="M84.77,64h0a1.435,1.435,0,0,1,1.43,1.44v.46a1.435,1.435,0,0,1-1.43,1.44h0a1.435,1.435,0,0,1-1.43-1.44v-.46A1.435,1.435,0,0,1,84.77,64Z" fill="#444"></path><path d="M84.78,59.16h0a1.42,1.42,0,0,1,1.42,1.42v.58a1.42,1.42,0,0,1-1.42,1.42h0a1.42,1.42,0,0,1-1.42-1.42v-.58A1.42,1.42,0,0,1,84.78,59.16Z" fill="#444"></path><rect x="83.44" y="54.44" width="2.68" height="3.22" rx="1.34" fill="#444"></rect><path d="M84.78,50.04h0a1.26,1.26,0,0,1,1.26,1.26v.38a1.26,1.26,0,0,1-1.26,1.26h0a1.26,1.26,0,0,1-1.26-1.26V51.3A1.26,1.26,0,0,1,84.78,50.04Z" fill="#444"></path><path d="M100.7,82.28a3.5,3.5,0,0,0-.88-2.32,3.38,3.38,0,0,0,.7-2v-.54A3.36,3.36,0,0,0,99.46,75a3.1,3.1,0,0,0,.8-2v-.46a3.08,3.08,0,0,0-1.2-2.42,2.72,2.72,0,0,0,.8-2v-.24a2.72,2.72,0,0,0-5.42,0v.24a2.64,2.64,0,0,0,.84,2,3.12,3.12,0,0,0-1.2,2.42V73a3.12,3.12,0,0,0,.82,2,3.34,3.34,0,0,0-1.08,2.44v.54a3.24,3.24,0,0,0,.74,2,3.42,3.42,0,0,0-.9,2.32v.54a3.58,3.58,0,0,0,.86,2.28,3.36,3.36,0,0,0-.68,2v.52a3.36,3.36,0,0,0,1.02,2.4,3.16,3.16,0,0,0-.76,2v.58A3.04,3.04,0,0,0,95.32,95a2.7,2.7,0,0,0-.8,2v.26a2.72,2.72,0,1,0,5.42,0V97a2.7,2.7,0,0,0-.8-2,3.14,3.14,0,0,0,1.2-2.44v-.58a3.18,3.18,0,0,0-.72-2,3.4,3.4,0,0,0,1.02-2.42v-.52A3.36,3.36,0,0,0,100,85a3.42,3.42,0,0,0,.8-2.2Z" fill="#343433"></path><path d="M97.15,67.08h0a.7151.7151,0,0,1,.71.72v.22a.7151.7151,0,0,1-.71.72h0a.7151.7151,0,0,1-.71-.72V67.8A.7151.7151,0,0,1,97.15,67.08Z" fill="#444"></path><rect x="96.08" y="71.3" width="2.18" height="2.64" rx="1.08" fill="#444"></rect><path d="M97.17,76.02h0a1.355,1.355,0,0,1,1.35,1.36v.52a1.355,1.355,0,0,1-1.35,1.36h0a1.355,1.355,0,0,1-1.35-1.36v-.52A1.355,1.355,0,0,1,97.17,76.02Z" fill="#444"></path><rect x="95.66" y="80.76" width="3.04" height="3.58" rx="1.52" fill="#444"></rect><path d="M97.24,85.72h0a1.4,1.4,0,0,1,1.4,1.4v.52a1.4,1.4,0,0,1-1.4,1.4h0a1.4,1.4,0,0,1-1.4-1.4v-.52A1.4,1.4,0,0,1,97.24,85.72Z" fill="#444"></path><path d="M97.22,90.94h0a1.12,1.12,0,0,1,1.12,1.12v.58a1.12,1.12,0,0,1-1.12,1.12h0a1.12,1.12,0,0,1-1.12-1.12v-.58A1.12,1.12,0,0,1,97.22,90.94Z" fill="#444"></path><path d="M97.23,96.3h0a.7151.7151,0,0,1,.71.72v.24a.7151.7151,0,0,1-.71.72h0a.7151.7151,0,0,1-.71-.72v-.24A.7151.7151,0,0,1,97.23,96.3Z" fill="#444"></path></g></svg>