<svg xmlns="http://www.w3.org/2000/svg" viewBox="0 0 128 128"><title>vol-04$set-015@disc-jockey-black-male</title><g id="vol-04_set-015_disc-jockey-black-male" data-name="vol-04$set-015@disc-jockey-black-male"><g id="disc-jockey-black-male"><g id="disc-jockey-black-male-2"><g id="Icons"><path d="M99.94,44.3672a6.22,6.22,0,0,0-2-4.6.28.28,0,0,1,0-.36,6.1407,6.1407,0,0,0,1.3-3.68,6.36,6.36,0,0,0-4.44-6,5.8008,5.8008,0,0,0,.32-2,6.46,6.46,0,0,0-6.44-6.34l-1.02-.86a6.44,6.44,0,0,0-6.66-5.44,7.0575,7.0575,0,0,0-1.44.16l-.46-.24a6.56,6.56,0,0,0-6.28-4.64,6.8794,6.8794,0,0,0-3.68,1.08h0a6.68,6.68,0,0,0-11.66,0h-.36a6.7,6.7,0,0,0-3.68-1.08,6.52,6.52,0,0,0-6.44,4.66l-.46.24a7.0575,7.0575,0,0,0-1.44-.16,6.44,6.44,0,0,0-6.5,5.46l-1.02.86a6.44,6.44,0,0,0-6.44,6.34,5.8008,5.8008,0,0,0,.32,2,6.32,6.32,0,0,0-4.4,6,6.18,6.18,0,0,0,1.28,3.74.26.26,0,0,1,0,.36,6.16,6.16,0,0,0,1.06,10,.26.26,0,0,1,0,.34,6,6,0,0,0-.76,2.96,6.38,6.38,0,0,0,4.6,6,6.5836,6.5836,0,0,0-.1,1.08,6.4,6.4,0,0,0,5.22,6.2.32.32,0,0,1,.16.12,6.62,6.62,0,0,0,5.7,3.18H80.56a6.44,6.44,0,0,0,6.94-3.12.32.32,0,0,1,.16-.12,6.42,6.42,0,0,0,5.34-6.26,6.5787,6.5787,0,0,0,0-1.08,6.36,6.36,0,0,0,4.6-6,5.9994,5.9994,0,0,0-.76-2.96.24.24,0,0,1-.0006-.3394l.0006-.0006A6.46,6.46,0,0,0,99.94,44.3672Z" fill="#333"></path><path d="M39.96,63.4872a6.5836,6.5836,0,0,1,.1-1.08,6.36,6.36,0,0,1-4.6-6,5.9994,5.9994,0,0,1,.76-2.96.24.24,0,0,0-.081-.33l-.019-.01a6.34,6.34,0,0,1-3.12-5.42,6.16,6.16,0,0,1,2-4.6.28.28,0,0,0,0-.36,6.18,6.18,0,0,1-1.28-3.74,6.36,6.36,0,0,1,4.4-6,6.3592,6.3592,0,0,1-.32-2,6.46,6.46,0,0,1,6.44-6.34l1.02-.86a6.44,6.44,0,0,1,6.5-5.46,7.0575,7.0575,0,0,1,1.44.16l.46-.24a6.58,6.58,0,0,1,6.44-4.62,6.8794,6.8794,0,0,1,3.68,1.08h.36a6.6992,6.6992,0,0,1,2.56-2.56,6.5582,6.5582,0,0,1,2.3-.78,6.68,6.68,0,0,0-11.6,0h-.36a6.7,6.7,0,0,0-3.68-1.08,6.52,6.52,0,0,0-6.36,4.76l-.46.24a7.0575,7.0575,0,0,0-1.44-.16,6.44,6.44,0,0,0-6.5,5.46l-1.02.86a6.44,6.44,0,0,0-6.44,6.34,5.8008,5.8008,0,0,0,.32,2,6.32,6.32,0,0,0-4.4,6,6.18,6.18,0,0,0,1.28,3.74.26.26,0,0,1,0,.36,6.16,6.16,0,0,0,1.06,10,.26.26,0,0,1,0,.34,6,6,0,0,0-.76,2.96,6.38,6.38,0,0,0,4.6,6,6.5836,6.5836,0,0,0-.1,1.08,6.4,6.4,0,0,0,5.22,6.2.32.32,0,0,1,.16.12,6.62,6.62,0,0,0,5.7,3.18,5.1286,5.1286,0,0,0,.78,0A6.42,6.42,0,0,1,39.96,63.4872Z" fill="#3a3a39"></path><path d="M44.1729,71.2471a8.1193,8.1193,0,0,1-6.64-3.4492A7.9294,7.9294,0,0,1,31.64,60.2686c.001-.0362.001-.0713.002-.1075a7.841,7.841,0,0,1-4.502-6.9638,7.5845,7.5845,0,0,1,.4864-2.7217,7.5953,7.5953,0,0,1-.9688-.9248,7.6722,7.6722,0,0,1-.0918-10.0127A7.7206,7.7206,0,0,1,29.71,28.8818a7.3694,7.3694,0,0,1-.07-1.1377,7.9809,7.9809,0,0,1,7.3682-7.7968l.22-.1856a7.9186,7.9186,0,0,1,7.9034-6.1543c.2568.002.5175.0166.7793.044a8.0339,8.0339,0,0,1,7.34-4.7871c.0781,0,.1553.0009.2344.0039h.039a8.0647,8.0647,0,0,1,3.3819.7519,8.1781,8.1781,0,0,1,12.72-.1123,8.3728,8.3728,0,0,1,3.19-.6406h.0088a8.0106,8.0106,0,0,1,7.36,4.7646c.2666-.0283.5351-.0429.8037-.0449a7.9159,7.9159,0,0,1,8.0429,6.1338l.2227.1885a8.0121,8.0121,0,0,1,7.3662,7.79,7.381,7.381,0,0,1-.0693,1.14,7.84,7.84,0,0,1,4.1894,6.874,7.7559,7.7559,0,0,1-1.0332,3.751,7.7418,7.7418,0,0,1,1.7334,4.9082h0a8.0219,8.0219,0,0,1-2.8388,6.0693,7.5077,7.5077,0,0,1,.498,2.7354,7.82,7.82,0,0,1-4.5928,7.03l-.0117.1621a7.9291,7.9291,0,0,1-5.9961,7.334A7.9032,7.9032,0,0,1,80.41,71.0869H45.7773A8.15,8.15,0,0,1,44.1729,71.2471ZM30.6719,51.0088a4.5147,4.5147,0,0,0-.5323,2.1494,4.8544,4.8544,0,0,0,3.5186,4.5684A1.4994,1.4994,0,0,1,34.7168,59.43a5.1247,5.1247,0,0,0-.0772.834,4.906,4.906,0,0,0,3.9971,4.709,1.558,1.558,0,0,1,.1983.0517,1.8217,1.8217,0,0,1,.9189.6914A5.1566,5.1566,0,0,0,45.293,68.123a1.4738,1.4738,0,0,1,.3271-.0361H80.56a1.4751,1.4751,0,0,1,.3125.0332,4.9328,4.9328,0,0,0,5.3232-2.3935,1.4036,1.4036,0,0,1,.0772-.1211,1.8265,1.8265,0,0,1,.913-.6807,1.4894,1.4894,0,0,1,.2227-.0557,4.9409,4.9409,0,0,0,4.0928-4.6757,5.6224,5.6224,0,0,0,.0039-.9043,1.5,1.5,0,0,1,1.08-1.5635A4.8335,4.8335,0,0,0,96.1,53.1406a4.4829,4.4829,0,0,0-.5195-2.11,1.74,1.74,0,0,1,.1992-2.2227,1.4992,1.4992,0,0,1,.28-.2207A4.9966,4.9966,0,0,0,98.44,44.3623V44.36a4.7339,4.7339,0,0,0-1.5175-3.4913,1.3094,1.3094,0,0,1-.13-.1357,1.7769,1.7769,0,0,1,0-2.292,4.6411,4.6411,0,0,0,.9472-2.7383,4.8354,4.8354,0,0,0-3.3925-4.5449,1.5,1.5,0,0,1-.9649-1.9228,4.284,4.284,0,0,0,.2373-1.4825,4.9881,4.9881,0,0,0-4.9453-4.8662,1.4982,1.4982,0,0,1-.9619-.3535l-1.02-.8594a1.4973,1.4973,0,0,1-.5157-.915,4.96,4.96,0,0,0-5.1084-4.1738,5.8713,5.8713,0,0,0-1.1923.1279,1.5094,1.5094,0,0,1-1.0118-.1367l-.46-.24a1.4983,1.4983,0,0,1-.74-.89,5.0312,5.0312,0,0,0-4.8379-3.5791h-.0048a5.37,5.37,0,0,0-2.876.8447A1.5,1.5,0,0,1,67.83,12.18a5.1783,5.1783,0,0,0-9.04,0,1.5023,1.5023,0,0,1-1.3095.7676h-.36a1.5035,1.5035,0,0,1-.8164-.2412,5.1915,5.1915,0,0,0-2.833-.8389h-.0234a4.974,4.974,0,0,0-5.01,3.5869,1.4961,1.4961,0,0,1-.7432.9023l-.46.24a1.5076,1.5076,0,0,1-1.0117.1367,5.63,5.63,0,0,0-1.1348-.126c-.0352-.001-.07-.001-.1045-.001a4.96,4.96,0,0,0-4.9014,4.1895,1.4948,1.4948,0,0,1-.5156.918l-1.02.8593a1.4981,1.4981,0,0,1-.9668.3536,4.9625,4.9625,0,0,0-4.94,4.8642,4.3254,4.3254,0,0,0,.2383,1.4863,1.5,1.5,0,0,1-.9629,1.919A4.8083,4.8083,0,0,0,28.56,35.7725a4.6934,4.6934,0,0,0,.9433,2.7851,1.7542,1.7542,0,0,1-.082,2.3486c-.0283.03-.0586.06-.09.087a4.664,4.664,0,0,0-.4209,6.5761,4.61,4.61,0,0,0,1.2226.9883,1.5242,1.5242,0,0,1,.4053.3311A1.7515,1.7515,0,0,1,30.6719,51.0088Zm-2.4112-1.7774Zm69.64-.0849.0019.0019Zm1.2793-8.89c-.0186.0244-.0381.0489-.0567.0733C99.1426,40.3066,99.1621,40.2822,99.18,40.2568Z" fill="#333"></path><path d="M116.82,104.2072a12.74,12.74,0,0,0-9.38-9.86l-9.8-2.44c-2.2-.54-4.42-1.02-6.64-1.46v-3.62a8.34,8.34,0,0,0-8.3-8.3H45.68a8.34,8.34,0,0,0-8.3,8.3v3.66c-2.18.44-4.34.9-6.5,1.44L21,94.3672a12.74,12.74,0,0,0-9.3,9.86l-.7,4.18.22.12a131.0819,131.0819,0,0,0,53.04,11.14,130.9607,130.9607,0,0,0,53.02-11.12h0Z" fill="#858b8e"></path><path d="M107.44,100.0272l-9.8-2.44c-2.2-.54-4.42-1.02-6.64-1.46v-3.7a8.34,8.34,0,0,0-8.3-8.3H45.68a8.34,8.34,0,0,0-8.3,8.3v3.78c-2.18.44-4.34.9-6.5,1.44l-9.88,2.38a12.7,12.7,0,0,0-9.1,8.76,131.22,131.22,0,0,0,52.28,10.8,131.22,131.22,0,0,0,52.28-10.8A12.78,12.78,0,0,0,107.44,100.0272Z" fill="#64686b"></path><path d="M92.7,99.4873h-3v-13c0-4.2217-3.8643-6.5-7.5-6.5h-36c-3.6357,0-7.5,2.2783-7.5,6.5v13h-3v-13c0-5.3271,4.6123-9.5,10.5-9.5h36c5.8877,0,10.5,4.1729,10.5,9.5Z" fill="#333"></path><path d="M64,99.3872c-7.56,0-13.84-2.86-15.1-6.64H47.52c.32,9.46,1.66,18.42,5.6,26.44,3.62.32,7.26.48,10.96.48s7.26-.16,10.82-.46c4-8,5.28-17,5.6-26.48H79.12C77.86,96.5072,71.58,99.3872,64,99.3872Z" fill="#913d3d"></path><rect x="52.4" y="103.8272" width="4.66" height="1.16" fill="#e2a296"></rect><rect x="52.4" y="105.9472" width="4.66" height="1.16" fill="#e2a296"></rect><rect x="52.4" y="108.0472" width="4.66" height="1.16" fill="#e2a296"></rect><rect x="52.4" y="110.1672" width="4.66" height="1.16" fill="#e2a296"></rect><rect x="52.4" y="112.2872" width="4.66" height="1.16" fill="#e2a296"></rect><rect x="52.4" y="114.3872" width="4.66" height="1.16" fill="#e2a296"></rect><rect x="58.58" y="108.0472" width="4.66" height="1.16" fill="#e2a296"></rect><rect x="58.58" y="110.1672" width="4.66" height="1.16" fill="#e2a296"></rect><rect x="58.58" y="112.2872" width="4.66" height="1.16" fill="#e2a296"></rect><rect x="58.58" y="114.3872" width="4.66" height="1.16" fill="#e2a296"></rect><rect x="64.76" y="112.2872" width="4.66" height="1.16" fill="#e2a296"></rect><rect x="64.76" y="114.3872" width="4.66" height="1.16" fill="#e2a296"></rect><rect x="70.92" y="105.9472" width="4.66" height="1.16" fill="#e2a296"></rect><rect x="70.92" y="108.0472" width="4.66" height="1.16" fill="#e2a296"></rect><rect x="70.92" y="110.1672" width="4.66" height="1.16" fill="#e2a296"></rect><rect x="70.92" y="112.2872" width="4.66" height="1.16" fill="#e2a296"></rect><rect x="70.92" y="114.3872" width="4.66" height="1.16" fill="#e2a296"></rect><path d="M64.08,121.167c-3.709,0-7.4414-.1631-11.0918-.4854a1.5012,1.5012,0,0,1-1.2149-.833c-3.5439-7.2148-5.372-15.8105-5.7529-27.0507a1.5,1.5,0,0,1,1.499-1.5508H48.9a1.5,1.5,0,0,1,1.4228,1.0254c.92,2.76,6.2872,5.6142,13.6768,5.6142,7.3984,0,12.7744-2.8642,13.6973-5.6338A1.5,1.5,0,0,1,79.12,91.2275H80.5a1.5,1.5,0,0,1,1.499,1.5508c-.3906,11.56-2.166,19.918-5.7568,27.1a1.5007,1.5007,0,0,1-1.2158.8242C71.3086,121.0146,67.7275,121.167,64.08,121.167Zm-9.9785-3.4014c3.292.2666,6.6445.4014,9.9785.4014,3.2851,0,6.5146-.126,9.8467-.3858,2.8134-5.9218,4.3671-12.789,4.9209-21.8388-2.84,3.01-8.4063,4.9443-14.8477,4.9443-6.4307,0-11.9873-1.9277-14.8242-4.9258C49.7354,104.7988,51.3232,111.8115,54.1016,117.7656Z" fill="#333"></path><path d="M49,80.6672v13.12a22.92,22.92,0,0,0,30,0v-13.14Z" fill="#a88064"></path><path d="M49,80.6672v2c3.54,2.94,11.68,10.5,18,16.48a22.98,22.98,0,0,0,12-5.36v-13.12Z" fill="#a0775c"></path><path d="M64,100.8359a24.3748,24.3748,0,0,1-15.9814-5.915A1.4983,1.4983,0,0,1,47.5,93.7871V80.667a1.5,1.5,0,0,1,1.499-1.5l30-.02H79a1.5,1.5,0,0,1,1.5,1.5v13.14a1.4983,1.4983,0,0,1-.5186,1.1338A24.3748,24.3748,0,0,1,64,100.8359Zm-13.5-7.749a21.5418,21.5418,0,0,0,27,0V82.1484l-27,.0176Z" fill="#333"></path><path d="M64.4756,121.167H64.09a131.7492,131.7492,0,0,1-53.4755-11.2676c-.0381-.0166-.0772-.0351-.1143-.0556l-.22-.12a1.5024,1.5024,0,0,1-.7647-1.5351l.62-4.2A14.3268,14.3268,0,0,1,20.6338,92.8936l16.4-3.8868.6914,2.92-16.38,3.8808a11.2841,11.2841,0,0,0-8.2549,8.6934l-.4433,3.0136A128.7806,128.7806,0,0,0,64.0947,118.167h.376a128.63,128.63,0,0,0,51.1748-10.544l-.4131-3.1406a11.2675,11.2675,0,0,0-8.26-8.6015L90.6436,91.8838l.7128-2.9141,16.34,4A14.3112,14.3112,0,0,1,118.19,103.9932l.5772,4.3584a1.5008,1.5008,0,0,1-.8828,1.5683A131.6352,131.6352,0,0,1,64.4756,121.167Z" fill="#333"></path><path d="M85.4,52.5872v-3.34c0-11.9-4.18-24.16-22-24.16s-22,12.26-22,24.16v3.34c-.18,0-6.58,0-4.4,10.98a8.54,8.54,0,0,0,6.58,6.58c0,7.8,2.2,8.78,9.62,16.42,2.86,3.64,6.34,3.34,10.14,3.34s7.3.3,10.14-3.34c7.52-7.64,9.72-8.54,9.72-16.42a8.54,8.54,0,0,0,6.58-6.58C92,52.5872,85.58,52.5272,85.4,52.5872Z" fill="#a88064"></path><path d="M85.4,52.5872v-3.34c0-11.9-4.18-24.16-22-24.16a34.5584,34.5584,0,0,0-6.58.58v23.14a4.68,4.68,0,0,1-2.14,3.64.58.58,0,0,0,.22,1.04,11.9992,11.9992,0,0,1,6.32,2.32h2.2v5.34a3.38,3.38,0,0,0,1.28,2.8,2.2,2.2,0,0,1-1.28,4h0c-1.62,0-2.2-1.1-4.4-1.1-1.3,0-1.1,1.7-1.14,1.64a4.7586,4.7586,0,0,1,2.2.58,6.7615,6.7615,0,0,0,3.3.86h0v6.62a3.82,3.82,0,0,0,2.54,3.48,3.1,3.1,0,0,1,1.88,3.26c0,6-10.86-.6-10.86,6a19.1225,19.1225,0,0,0,6.48.62c3.8,0,7.3.3,10.14-3.34,7.46-7.6,9.66-8.58,9.66-16.38a8.54,8.54,0,0,0,6.58-6.56C92,52.5872,85.58,52.5272,85.4,52.5872Z" fill="#a0775c"></path><path d="M63.2,20.5272c-16.2,0-25,7-25,20.34v8.4c4.2,0,4.2,6.3,4.2,6.3v-4.2l2.1-4.2c0-20.12,14.96-8.4,18.82-8.4s19.86-12.88,19.86,8.4l1.22,4.2v4.2s0-6.3,4.2-6.3v-8.4C88.6,26.4472,79.4,20.5272,63.2,20.5272Z" fill="#333"></path><path d="M84.4,57.0674a1.5,1.5,0,0,1-1.5-1.4756v-.01h0V51.5811l-1.1611-3.9952a1.522,1.522,0,0,1-.06-.4189c0-5.3447-1.0244-8.7275-3.0449-10.0557-2.7237-1.79-7.3555.2119-10.7364,1.6758-1.9873.8594-3.4228,1.48-4.5781,1.48a13.6178,13.6178,0,0,1-4.4141-1.335c-3.164-1.289-7.497-3.0537-10.0273-1.3545C46.9688,38.8633,46,42.0889,46,47.167a1.5093,1.5093,0,0,1-.1582.6709L43.9,51.7217v3.8457a1.5,1.5,0,0,1-3,0c0-.0449-.0527-4.8-2.7-4.8a1.5,1.5,0,0,1-1.5-1.5v-8.4c0-14.084,9.4111-21.84,26.5-21.84,17.85,0,26.8994,7.3477,26.8994,21.84v8.4a1.5,1.5,0,0,1-1.5,1.5c-2.6328,0-2.6982,4.706-2.6992,4.8017A1.4994,1.4994,0,0,1,84.4,57.0674ZM39.7,47.98a4.6766,4.6766,0,0,1,2.0674,1.3l1.2344-2.47c.0517-6.0186,1.4277-9.8545,4.2031-11.7207,3.8584-2.5938,9.0459-.4776,12.833,1.0654A14.965,14.965,0,0,0,63.32,37.2676a15.9033,15.9033,0,0,0,3.3867-1.2344c4.0078-1.7334,9.4981-4.1074,13.5742-1.4287,2.9268,1.9228,4.3663,5.9619,4.3975,12.3467l.6045,2.0791a4.5994,4.5994,0,0,1,1.8164-1.05V40.8672c0-12.8535-7.5937-18.84-23.8994-18.84-10.7207,0-23.5,3.2686-23.5,18.84Z" fill="#333"></path><path d="M61.7471,91.5605c-3.4063,0-6.8711-.247-9.7862-3.9052-.9814-1.01-1.8711-1.9024-2.6748-2.709-5.0371-5.0567-7.1074-7.1328-7.332-13.55a10.2,10.2,0,0,1-6.5654-7.4873c-.9571-4.8223-.4971-8.4063,1.3633-10.6719a6.2345,6.2345,0,0,1,3.0019-2.0264V49.2471C39.7539,32.3643,47.9307,23.44,63.4,23.44s23.6465,8.9239,23.6465,25.8067V51.19a6.212,6.212,0,0,1,2.2939,1.2842c2.4551,2.1748,3.1455,6.0166,2.0537,11.419a10.2089,10.2089,0,0,1-6.5683,7.5029c-.2237,6.4619-2.2969,8.5117-7.3457,13.5039-.8282.8184-1.7461,1.7256-2.7627,2.7578-3.127,3.9414-7.083,3.92-10.5811,3.8984l-.7969-.0029-.7968.0029C62.2783,91.5586,62.0127,91.5605,61.7471,91.5605Zm1.5927-3.3.8155.003c3.4209.0136,5.8867.0322,8.0273-2.71a1.7046,1.7046,0,0,1,.124-.1416c1.0538-1.07,2.0039-2.01,2.8584-2.8545,5.1621-5.1035,6.3887-6.3164,6.3887-12.41a1.648,1.648,0,0,1,1.3047-1.6114,6.8965,6.8965,0,0,0,5.31-5.3105c.9512-4.7022.1651-6.9033-.6621-7.92a2.8657,2.8657,0,0,0-1.9677-1.0782,1.6462,1.6462,0,0,1-1.7852-1.6406v-3.34c0-15.1494-6.6582-22.5137-20.3535-22.5137S43.0469,34.0977,43.0469,49.2471v3.34A1.6467,1.6467,0,0,1,41.4,54.2334a2.9486,2.9486,0,0,0-2.1113,1.1045c-.8223,1.0107-1.6075,3.2041-.6739,7.9092a6.8907,6.8907,0,0,0,5.3067,5.289,1.648,1.648,0,0,1,1.3047,1.6114c0,6.0576,1.2275,7.29,6.3935,12.4736.8281.832,1.7461,1.7539,2.7617,2.7988a1.5653,1.5653,0,0,1,.1133.13c2.1572,2.7461,4.6,2.7266,8.0293,2.7139ZM85.916,54.1514h0Zm.0029-.001h0Z" fill="#333"></path><path d="M63.4,72.6367a.75.75,0,0,1-.75-.75v-2a.75.75,0,0,1,1.5,0v2A.75.75,0,0,1,63.4,72.6367Z" fill="#997059"></path><path d="M53.32,78.0576a.75.75,0,0,1-.75-.75V74.0068a3.79,3.79,0,0,1,1.4727-2.9941L57.7871,68.17a.75.75,0,0,1,.9063,1.1953l-3.74,2.84a2.2806,2.2806,0,0,0-.8828,1.8v3.3027A.75.75,0,0,1,53.32,78.0576Z" fill="#a0775c"></path><path d="M73.24,78.0576a.75.75,0,0,1-.75-.75V74.0068a2.2851,2.2851,0,0,0-.8867-1.8047l-3.7363-2.8369a.75.75,0,0,1,.9062-1.1953l3.7393,2.84a3.7944,3.7944,0,0,1,1.4775,2.998v3.3A.75.75,0,0,1,73.24,78.0576Z" fill="#ab8166"></path><path d="M63.66,86.1768h-.5a.75.75,0,1,1,0-1.5h.5a.75.75,0,0,1,0,1.5Z" fill="#997059"></path><path d="M66.14,73.6072a5.6584,5.6584,0,0,0-2.36.26,1.5,1.5,0,0,1-.84,0,5.7392,5.7392,0,0,0-2.36-.26c-1.34.2-1.48,1.04-4.18,2.5l2.38,1.46a4.58,4.58,0,0,0,2.54.82h4.14a4.4206,4.4206,0,0,0,2.54-.82l2.46-1.4C67.74,74.7072,67.46,73.7872,66.14,73.6072Z" fill="#916953"></path><path d="M70.44,76.917a7.5671,7.5671,0,0,1-2.4883-.4268,5.9211,5.9211,0,0,0-1.9921-.3535,12.8231,12.8231,0,0,0-2.4112.3213l-.165.0391-.167-.0371a14.2664,14.2664,0,0,0-2.4512-.3243,5.6877,5.6877,0,0,0-1.8164.3135,8.0185,8.0185,0,0,1-2.5693.4082.75.75,0,0,1,0-1.5,6.5549,6.5549,0,0,0,2.1406-.3457,7.128,7.128,0,0,1,2.2793-.375,15.8136,15.8136,0,0,1,2.5772.3233,14.2607,14.2607,0,0,1,2.5566-.3233,6.9493,6.9493,0,0,1,2.4658.4209,6.02,6.02,0,0,0,2.041.3594.75.75,0,0,1,0,1.5Z" fill="#674848"></path><path d="M48.1,54.8272a11.2789,11.2789,0,0,1,2.9-1.1,11.1547,11.1547,0,0,1,3.16-.18,19.4388,19.4388,0,0,1,5.64,2h0a.46.46,0,0,1,.24.6.48.48,0,0,1-.46.28,24.5387,24.5387,0,0,1-2.92-.4c-.94-.18-1.86-.28-2.74-.42a14.5989,14.5989,0,0,0-5.5.12h0a.48.48,0,0,1-.54-.36A.5.5,0,0,1,48.1,54.8272Z" fill="#333"></path><path d="M77.98,55.6872a14.5783,14.5783,0,0,0-5.5-.12c-.9.14-1.8.24-2.74.42a24.5474,24.5474,0,0,1-2.96.52.44.44,0,0,1-.4782-.3982c-.0012-.0139-.0019-.0279-.0018-.0418a.46.46,0,0,1,.28-.46h0a19.4388,19.4388,0,0,1,5.64-2,12.857,12.857,0,0,1,3.16.18,10.3582,10.3582,0,0,1,2.9,1.1.46.46,0,0,1,.18.62.48.48,0,0,1-.52.24Z" fill="#333"></path><circle cx="54.24" cy="59.0072" r="1.42" fill="#333"></circle><circle cx="72.16" cy="59.0072" r="1.42" fill="#333"></circle><path d="M81.46,71.9072l-6,6v-3a4,4,0,0,0-4-4h-16a4,4,0,0,0-4,4v3l-5.76-6c0-4-2-3.78-2-11.5v9.5c0,12,5.62,10.5,9.88,16.56,3.02,4.32,7.42,3.56,9.88,3.44s6.86.88,9.88-3.44c4.26-6,10.12-4.56,10.12-16.56v-9.5C83.46,68.1472,81.46,68.1472,81.46,71.9072ZM73,79.5872l-2,2.44a2.58,2.58,0,0,1-2,.94,2.88,2.88,0,0,1-2.6-2H60.62a2.86,2.86,0,0,1-2.6,2,2.58,2.58,0,0,1-2-.94l-2-2.44v-5.06a1.56,1.56,0,0,1,1.519-1.6H60.66a3.18,3.18,0,0,0,2.52-1.46.42.42,0,0,1,.66,0,3.16,3.16,0,0,0,2.52,1.46h5.12A1.56,1.56,0,0,1,73,74.5261v5.0611Z" fill="#333"></path><path d="M60.8682,91.0332A9.1817,9.1817,0,0,1,52.7607,87.04a17.76,17.76,0,0,0-4.1435-4.0224c-3.043-2.3272-5.917-4.5254-5.917-13.11v-9.5a1,1,0,0,1,2,0A18.0211,18.0211,0,0,0,45.8789,67.86a10.224,10.224,0,0,1,.8145,3.6376L50.46,75.4219v-.5147a5.0059,5.0059,0,0,1,5-5h16a5.0059,5.0059,0,0,1,5,5v.586l4.0078-4.0078a10.1275,10.1275,0,0,1,.789-3.4522,18.613,18.613,0,0,0,1.2032-7.626,1,1,0,0,1,2,0v9.5c0,8.584-2.962,10.7959-6.0977,13.1367a17.5484,17.5484,0,0,0-4.207,4.002c-2.8145,4.0254-6.7276,3.9219-9.3262,3.8652-.4814-.0127-.9248-.0244-1.32-.0049-.2217.0108-.459.0264-.71.044C62.2285,90.9893,61.5742,91.0332,60.8682,91.0332ZM44.7891,72.3184c.4433,5.5918,2.5078,7.1718,5.0439,9.11a19.7089,19.7089,0,0,1,4.5654,4.4629c2.418,3.46,5.794,3.23,8.2647,3.0635.2646-.0186.5146-.0352.748-.0469.4356-.0225.9307-.0107,1.4678.0029,2.4209.0606,5.4385.1338,7.6416-3.0175a19.4674,19.4674,0,0,1,4.6455-4.4522c2.6133-1.9512,4.7412-3.541,5.2022-9.1143a1.0235,1.0235,0,0,1-.2012.2872l-6,6a1,1,0,0,1-1.707-.7071v-3a3.0033,3.0033,0,0,0-3-3H66.1914a1.9537,1.9537,0,0,0,.2148.02l5.0743-.0009A2.5706,2.5706,0,0,1,74,74.5518v5.0351a.999.999,0,0,1-.2266.6338l-2,2.44A3.5662,3.5662,0,0,1,69.01,83.9668h-.0137a3.9261,3.9261,0,0,1-3.2471-2H61.2754a3.8753,3.8753,0,0,1-3.2109,1.999h-.0176a3.5816,3.5816,0,0,1-2.7989-1.3027l-2.0019-2.4424a.999.999,0,0,1-.2266-.6338v-5.06a2.56,2.56,0,0,1,2.4932-2.6H60.66a1.8281,1.8281,0,0,0,.1914-.02H55.46a3.0033,3.0033,0,0,0-3,3v3a1,1,0,0,1-1.7217.6924l-5.76-6A1.0042,1.0042,0,0,1,44.7891,72.3184ZM60.62,79.9668H66.4a.9985.9985,0,0,1,.9521.6953A1.888,1.888,0,0,0,69.05,81.9678h.002a1.5567,1.5567,0,0,0,1.1767-.5762L72,79.23V74.5273a.5689.5689,0,0,0-.5459-.6H66.36A4.21,4.21,0,0,1,63.5137,72.66,4.2,4.2,0,0,1,60.71,73.9258l-5.17.001a.5577.5577,0,0,0-.52.5752V79.23l1.7735,2.1641a1.57,1.57,0,0,0,1.2168.5732h.0058a1.8559,1.8559,0,0,0,1.65-1.3A1,1,0,0,1,60.62,79.9668Zm12.38-.38h0Zm8.46-7.68h0Z" fill="#333"></path><path d="M87.22,49.7072a3.22,3.22,0,0,1-3.26-3.14c0-12.1-7.1-18.5-20.52-18.5S43,34.4672,43,46.5272a3.26,3.26,0,1,1-6.52,0c0-15.52,10.12-24.8,27.04-24.8s27.04,9.28,27.04,24.8a3.2,3.2,0,0,1-3.22,3.18h-.12Z" fill="#892e2e"></path><path d="M40.32,49.2072c0-15.52,10.12-24.8,27.04-24.8a32.2393,32.2393,0,0,1,15.4,3.44c-4.62-4-11.18-6.1-19.32-6.1-16.92,0-27.04,9.28-27.04,24.8a3.2,3.2,0,0,0,3.2395,3.16H39.64a2.94,2.94,0,0,0,.72,0A2.9808,2.9808,0,0,1,40.32,49.2072Z" fill="#a54646"></path><path d="M39.74,51.3105a4.7883,4.7883,0,0,1-4.7832-4.7832c0-16.4834,10.6778-26.3232,28.5625-26.3232s28.5635,9.84,28.5635,26.3232a4.7229,4.7229,0,0,1-4.7519,4.7032H87.23c-.0176.0009-.0342.0009-.0508.0009a4.7623,4.7623,0,0,1-4.7422-4.6259c0-11.3028-6.3916-17.0147-18.9961-17.0147-12.5517,0-18.917,5.6983-18.917,16.9365A4.7883,4.7883,0,0,1,39.74,51.3105ZM63.52,23.251c-15.9765,0-25.5156,8.7021-25.5156,23.2763a1.7364,1.7364,0,1,0,3.4727,0c0-12.8867,7.8-19.9834,21.9638-19.9834,14.2149,0,22.043,7.1114,22.043,20.0235A1.6907,1.6907,0,0,0,87.2,48.1836h.15a1.6754,1.6754,0,0,0,1.6855-1.665C89.0361,31.9531,79.4971,23.251,63.52,23.251Z" fill="#333"></path><path d="M30.54,57.2872A12.44,12.44,0,0,0,42.807,69.8978q.3565.0048.713-.0106v-25.2Q30.52,44.6872,30.54,57.2872Z" fill="#892e2e"></path><path d="M30.54,57.2872A12.44,12.44,0,0,0,42.807,69.8978q.3565.0048.713-.0106v-25.2Q30.52,44.6872,30.54,57.2872Z" fill="#a54646"></path><path d="M34.86,59.3872a12,12,0,0,0,4.82,10,13.8818,13.8818,0,0,0,3.82.54v-22.66C37.78,48.5472,34.86,52.5472,34.86,59.3872Z" fill="#892e2e"></path><path d="M42.9883,71.4229c-.0694,0-.1377-.001-.2071-.002A13.9769,13.9769,0,0,1,29.0166,57.2773c-.0059-4.5283,1.1982-8.0332,3.5791-10.4169,2.4482-2.4532,6.124-3.6963,10.9238-3.6963a1.5229,1.5229,0,0,1,1.5235,1.5234V69.8867a1.5241,1.5241,0,0,1-1.4541,1.5225Q43.2886,71.4224,42.9883,71.4229Zm-.9922-25.1622c-3.2012.2168-5.6338,1.14-7.2441,2.753-1.79,1.7929-2.6944,4.5752-2.6885,8.27v.0244a10.93,10.93,0,0,0,9.9326,11.0225Z" fill="#333"></path><rect x="36" y="58.6543" width="2.2803" height="1.0664" fill="#333"></rect><rect x="36" y="60.9141" width="2.2803" height="1.0664" fill="#333"></rect><rect x="36" y="63.1738" width="2.2803" height="1.0664" fill="#333"></rect><path d="M96.58,57.2872A12.44,12.44,0,0,1,84.313,69.8978q-.3566.0048-.713-.0106v-25.2Q96.58,44.6872,96.58,57.2872Z" fill="#a54646"></path><path d="M92.24,59.3872a12,12,0,0,1-4.82,10,13.8818,13.8818,0,0,1-3.82.54v-22.66C89.32,48.5472,92.24,52.5472,92.24,59.3872Z" fill="#892e2e"></path><path d="M84.1318,71.4229q-.2988,0-.6006-.0137a1.5242,1.5242,0,0,1-1.455-1.5225V44.6875A1.5228,1.5228,0,0,1,83.6,43.1641c9.4854,0,14.501,4.88,14.5039,14.1132A13.9784,13.9784,0,0,1,84.334,71.4209C84.2666,71.4219,84.1992,71.4229,84.1318,71.4229ZM85.123,46.26V68.3311a10.9314,10.9314,0,0,0,9.9336-11.0225v-.0215C95.0566,50.24,91.8906,46.7041,85.123,46.26Z" fill="#333"></path><rect x="88.8203" y="58.6543" width="2.2793" height="1.0664" fill="#333"></rect><rect x="88.8203" y="60.9141" width="2.2793" height="1.0664" fill="#333"></rect><rect x="88.8203" y="63.1738" width="2.2793" height="1.0664" fill="#333"></rect><path d="M63.1279,70.2373a6.24,6.24,0,0,1-2.9638-.75,4.6128,4.6128,0,0,0-2.252-.59H57.9a.75.75,0,0,1-.75-.7481.7157.7157,0,0,1,.7617-.7519,6.089,6.089,0,0,1,2.9736.7754,4.7389,4.7389,0,0,0,4.4991-.0059,6.2585,6.2585,0,0,1,2.9716-.77h.004a.75.75,0,0,1,.0039,1.5,4.7554,4.7554,0,0,0-2.2627.5869A6.265,6.265,0,0,1,63.1279,70.2373Z" fill="#674848"></path></g></g></g></g></svg>