<svg xmlns="http://www.w3.org/2000/svg" viewBox="0 0 128 128"><title>vol-08$set-031@big-beard-white-male</title><g id="vol-08_set-031_big-beard-white-male" data-name="vol-08$set-031@big-beard-white-male"><g id="big-beard-white-male"><g id="big-beard-white-male-2"><g id="Icons"><path d="M119,98.6215a13.72,13.72,0,0,0-10.5-10l-15.24-3.56a127.5775,127.5775,0,0,0-58,0l-14.76,3.56a13.72,13.72,0,0,0-10.5,10l-1,5a140.001,140.001,0,0,0,55.5,11.74,140.001,140.001,0,0,0,55.5-11.74Z" fill="#dddddc"></path><path d="M49.4,82.5415c2.1,5.42,6.3,10.16,15.1,20.3,8.6-10.12,12.78-14.66,14.9-19.8v-9.56h-30Z" fill="#edccc3"></path><path d="M60.82,86.6015a16,16,0,0,1,3.7,11.68v4.56c8.6-10.12,12.78-14.66,14.9-19.78v-9.56h-30S56.2,81.6015,60.82,86.6015Z" fill="#e5c2ba"></path><path d="M64.86,92.7415a34.4031,34.4031,0,0,1-10.18-1.48c2.32,2.98,5.4,6.52,9.48,11.22l.34.36.34-.36c4-4.7,7-8.18,9.3-11.06A31.4641,31.4641,0,0,1,64.86,92.7415Z" fill="#4c4a48"></path><path d="M64.5,105.0259l-1.7822-1.9175c-3.875-4.4639-6.9356-7.99-9.2217-10.9258l-2.9033-3.7285,4.5224,1.3716a32.9175,32.9175,0,0,0,9.7364,1.4155h.0214a29.8191,29.8191,0,0,0,8.837-1.2568l4.5957-1.3755-2.9942,3.7485c-1.91,2.3921-4.2929,5.187-7.3095,8.7256l-2.4112,2.7881ZM58.6152,93.73c1.6748,2.0005,3.6338,4.2622,5.878,6.8476l1.2256-1.44c1.6865-1.978,3.1738-3.7221,4.4863-5.289a33.4011,33.4011,0,0,1-5.3457.3935A34.8364,34.8364,0,0,1,58.6152,93.73Z" fill="#333"></path><path d="M119,98.6215a13.72,13.72,0,0,0-10.5-10h0v4.9h-8.42v-6.9l-8.38-2v8.88H83.34v-10.38h-4a32.921,32.921,0,0,1-4.34,7.24v3.16H72.46c-1.7,2-3.74,4.44-6.16,7.28H75v7.32H54.04v-7.32h8.64c-2.44-2.82-4.48-5.18-6.2-7.28H54.04v-3.08a33.7433,33.7433,0,0,1-4.44-7.32h-4v10.38H37.3v-8.88l-8.36,2v6.88H20.56v-4.9h0a13.72,13.72,0,0,0-10.5,10l-.44,2.16H12.2v4.24a142.499,142.499,0,0,0,52.3,10.34,142.8387,142.8387,0,0,0,52.3-10.32v-4.24h2.62Zm-90,9.38H20.56v-7.24H29Zm16.74,0H37.32v-7.24H45.7Zm46,0h-8.4v-7.24H91.7Zm16.74,0h-8.4v-7.24h8.36Z" fill="#a6b9c1"></path><rect x="28.94" y="93.5015" width="8.36" height="7.28" fill="#7d9baa"></rect><rect x="12.2156" y="93.5" width="8.38" height="7.28" transform="translate(-0.1356 0.023) rotate(-0.08)" fill="#7d9baa"></rect><rect x="45.68" y="93.5015" width="8.36" height="7.28" fill="#7d9baa"></rect><rect x="74.96" y="93.5015" width="8.38" height="7.28" fill="#7d9baa"></rect><rect x="108.44" y="93.5015" width="8.36" height="7.28" fill="#7d9baa"></rect><rect x="91.7" y="93.5015" width="8.38" height="7.28" fill="#7d9baa"></rect><path d="M37.3,112.5415v-4.54H29v2.5A77.5609,77.5609,0,0,0,37.3,112.5415Z" fill="#7d9baa"></path><path d="M45.68,114.0015c2.76.36,5.54.62,8.36.82v-6.82H45.68Z" fill="#7d9baa"></path><path d="M75,114.9015c2.82-.2,5.6-.48,8.38-.82v-6.08H75Z" fill="#7d9baa"></path><path d="M100.08,110.5815v-2.58H91.7v4.46A82.537,82.537,0,0,0,100.08,110.5815Z" fill="#7d9baa"></path><path d="M79.38,83.1215c-2.14,5.12-6.3,9.66-14.88,19.76v1.56l10-6.44,7.72,4.22a1.64,1.64,0,0,0,2.34-1.48v-17.64H79.38Z" fill="#a6b9c1"></path><path d="M75,90.3414v3.16H72.44c-1.64,2-4,4.68-6.14,7.26h3.88l4.26-2.76,7.72,4.22a1.62,1.62,0,0,0,1.18,0v-1.54H84.5v-7.18H83.32v-10.38h-4A32.6992,32.6992,0,0,1,75,90.3414Z" fill="#7d9baa"></path><polygon points="74.96 98.281 79.5 100.761 83.34 100.761 83.34 93.501 74.96 93.501 74.96 98.281" fill="#7093a0"></polygon><path d="M49.6,83.1215H46.5v18.88a1.04,1.04,0,0,0,1.62.86l10.32-6.92C53.86,90.4415,51.18,86.8815,49.6,83.1215Z" fill="#7d9baa"></path><polygon points="46.5 100.761 51.1 100.761 54.04 98.801 54.04 93.501 46.5 93.501 46.5 100.761" fill="#7093a0"></polygon><path d="M64.5068,116.8613A140.7068,140.7068,0,0,1,8.3984,104.9956a1.5,1.5,0,0,1-.8691-1.668l1-5a15.1492,15.1492,0,0,1,11.666-11.1748c16.7315-3.9419,22.8818-5.4716,22.9424-5.4868l.7246,2.9111c-.06.0152-6.2227,1.5479-23.0185,5.5044a12.16,12.16,0,0,0-9.3917,8.9156l-.7441,3.729a137.68,137.68,0,0,0,53.7988,11.1352,137.6644,137.6644,0,0,0,53.7842-11.1347l-.7617-3.8111a12.1187,12.1187,0,0,0-9.334-8.8252c-16.8545-3.9653-22.999-5.4985-23.06-5.5136l.7286-2.91c.0595.0147,6.19,1.5444,22.98,5.4951a15.1066,15.1066,0,0,1,11.6083,11.0845l1.0186,5.0815a1.5,1.5,0,0,1-.8691,1.668A140.6914,140.6914,0,0,1,64.5068,116.8613Z" fill="#333"></path><rect x="63" y="102.8613" width="3" height="12.52" fill="#333"></rect><path d="M48,77.3414l-4.5,5.5v17.5l13.34-6.34C51.28,87.2415,49,83.3215,48,77.3414Z" fill="#dddddc"></path><path d="M81,77.7014c-1.02,6-3.24,9.52-8.84,16.28l13.44,6.38v-17.5Z" fill="#dddddc"></path><path d="M43.5,101.8413a1.5,1.5,0,0,1-1.5-1.5v-17.5a1.5024,1.5024,0,0,1,.3389-.95l4.5-5.5,2.3222,1.8994L45,83.377V97.9541L56.35,92.49,57.65,95.1929l-13.5,6.5A1.5009,1.5009,0,0,1,43.5,101.8413Z" fill="#333"></path><path d="M85.5,101.8413a1.5009,1.5009,0,0,1-.65-.1484l-13.5-6.5L72.65,92.49,84,97.9541v-14.54l-4.2178-4.7125,2.2364-2.0009,4.6,5.14A1.501,1.501,0,0,1,87,82.8413v17.5a1.5,1.5,0,0,1-1.5,1.5Z" fill="#333"></path><circle cx="70" cy="106.8414" r="1.5" fill="#333"></circle><path d="M64.6,104.3413a1.4981,1.4981,0,0,1-1.125-.5083l-.14-.1577C51.8389,90.6328,47.9658,86.2388,46.5205,77.6089a1.5,1.5,0,1,1,2.959-.4951c1.2646,7.55,4.53,11.4394,15.1,23.4355q1.1045-1.2986,2.1074-2.4722C75.41,87.8564,78.35,84.4136,79.5205,77.4526a1.5,1.5,0,0,1,2.959.4981c-1.31,7.7788-4.6318,11.6714-13.5107,22.0742-.9991,1.17-2.0723,2.4277-3.2256,3.7866a1.4978,1.4978,0,0,1-1.1289.53Z" fill="#333"></path><path d="M85.46,46.0015v-6.54c.1-11.46-3.78-20.86-20.9-20.86s-20.92,9.2-20.82,20.66v6.28c-.16,0-6.28,0-4.18,10.44a12.6406,12.6406,0,0,0,6.12,8.16v2.42a8.28,8.28,0,0,0,1.78,5.16l7.2,9.16a8.34,8.34,0,0,0,6.58,3.12h6.5a8.4,8.4,0,0,0,6.58-3.2l7.2-9.16a8.36,8.36,0,0,0,1.78-5.16v-2.36c1.22,0,5.52-3,6.34-7.68C91.7,44.5415,85.62,46.0015,85.46,46.0015Z" fill="#edccc3"></path><path d="M83.32,66.5615v-2.44c1.22,0,5.52-3,6.34-7.68,2-11.88-4-10.52-4.18-10.44v-6.52c.08-11.48-3.8-20.88-20.92-20.88a37.7876,37.7876,0,0,0-6.34.52v18.88a4.36,4.36,0,0,1-1.88,3.36.54.54,0,0,0,.22,1c2.16.3,5.08,1.04,6.28,2.94a1.64,1.64,0,0,1,1.64,1.64v7.48a3.02,3.02,0,0,0,1.24,2.44,2,2,0,0,1-1.22,3.76h0c-1.54,0-2-1.04-4.18-1.04-1.24,0-1.06,1.6-1.08,1.58a4.4,4.4,0,0,1,2.12.54,6.4584,6.4584,0,0,0,3.12.8h0v8a1.38,1.38,0,0,0,1.22,1.38,2.96,2.96,0,0,1,2.96,3.34c0,3.08-9.4,2.2-10.36,5.68v2.48a8.4223,8.4223,0,0,0,2.9.58h6.5a8.4,8.4,0,0,0,6.58-3.2l7.2-9.16A8,8,0,0,0,83.32,66.5615Z" fill="#e5c2ba"></path><path d="M83.42,48.8215v2.98a7.5,7.5,0,0,1-3.42,5.6,4.24,4.24,0,0,0-1.32,3.12v14.78l2.82-3.58a8.36,8.36,0,0,0,1.78-5.16v-2.44c1.22,0,5.52-3,6.34-7.68,2-11.88-4-10.52-4.18-10.44A3.44,3.44,0,0,0,83.42,48.8215Z" fill="#d8b3ad"></path><path d="M45.84,51.7815v-3.7a2.58,2.58,0,0,0-.72-1.78,2.4392,2.4392,0,0,0-1.78-.74H43c-1.56.3-5.18,2-3.5,10.4a12.64,12.64,0,0,0,6.12,8.16v2.42a8.28,8.28,0,0,0,1.78,5.16l2.58,3.3v-13.9a4.24,4.24,0,0,0-1.26-3.1A8.56,8.56,0,0,1,45.84,51.7815Z" fill="#e5c2ba"></path><path d="M61.15,85.502A9.7776,9.7776,0,0,1,53.49,81.82l-7.21-9.1719A9.8207,9.8207,0,0,1,44.18,66.5562V64.9868a14.1783,14.1783,0,0,1-6.0811-8.666c-.9218-4.58-.4951-7.9663,1.2588-10.1079A5.8751,5.8751,0,0,1,42.24,44.2812v-5.02c-.0673-7.6635,1.5909-12.9433,5.22-16.604,3.705-3.7383,9.2988-5.5556,17.1-5.5556,7.7656,0,13.3574,1.832,17.0937,5.601,3.6367,3.669,5.3731,9.1548,5.3067,16.772v5.0332a4.7287,4.7287,0,0,1,2.6836,1.3809c1.913,1.9516,2.3955,5.4873,1.4736,10.8086A12.4745,12.4745,0,0,1,84.8,65.2119v1.2695a9.8991,9.8991,0,0,1-2.1,6.0855L75.5,81.728a9.85,9.85,0,0,1-7.7568,3.7735H61.24C61.21,85.502,61.18,85.502,61.15,85.502Zm3.4092-65.4c-6.959,0-11.8555,1.5268-14.97,4.6679-3.0273,3.0542-4.4091,7.6548-4.35,14.4785v6.2935a1.5,1.5,0,0,1-1.5,1.5,2.8839,2.8839,0,0,0-2.07,1.083c-.79.9727-1.542,3.0747-.64,7.561A11.1464,11.1464,0,0,0,46.415,62.834a1.5015,1.5015,0,0,1,.7647,1.3076v2.42a6.8163,6.8163,0,0,0,1.458,4.2315L55.84,79.9546a6.7939,6.7939,0,0,0,5.3243,2.5474c.0205,0,.042,0,.0625-.0005H67.74a6.865,6.865,0,0,0,5.4024-2.6289L80.34,70.7148a6.8816,6.8816,0,0,0,1.46-4.2324V64.1216a1.5,1.5,0,0,1,1.5-1.5,9.4007,9.4007,0,0,0,4.8623-6.439c.9629-5.56-.001-7.52-.6611-8.1943a1.9722,1.9722,0,0,0-1.7608-.5112,2.2494,2.2494,0,0,1-.28.0244,1.5,1.5,0,0,1-1.5-1.5v-6.54c.0595-6.8828-1.3506-11.5327-4.4366-14.6465C76.3789,21.6436,71.4844,20.1016,64.56,20.1016Z" fill="#333"></path><path d="M49.48,46.0015a11.9956,11.9956,0,0,1,2.9-1.1,11.1547,11.1547,0,0,1,3.16-.18,19.4359,19.4359,0,0,1,5.64,2h0a.46.46,0,0,1,.24.6.48.48,0,0,1-.46.28,24.5474,24.5474,0,0,1-2.96-.52c-.94-.18-1.86-.28-2.74-.42a14.5989,14.5989,0,0,0-5.5.12h0a.446.446,0,1,1-.3-.84h0Z" fill="#333"></path><path d="M79.36,46.9015a14.5783,14.5783,0,0,0-5.5-.12c-.9.14-1.8.24-2.74.42a24.5474,24.5474,0,0,1-2.96.52.44.44,0,0,1-.4782-.3982.4174.4174,0,0,1-.0018-.0418.46.46,0,0,1,.28-.46h0a19.4359,19.4359,0,0,1,5.64-2,12.857,12.857,0,0,1,3.16.18,10.3551,10.3551,0,0,1,2.9,1.1.4624.4624,0,1,1-.34.86h0Z" fill="#333"></path><circle cx="55.62" cy="50.2215" r="1.42" fill="#333"></circle><circle cx="73.54" cy="50.2215" r="1.42" fill="#333"></circle><path d="M67.14,68.8615a13.4642,13.4642,0,0,0-2.58.34,15.0386,15.0386,0,0,0-2.58-.34c-1.88,0-2.3.72-4.38.72h0l2.38,1.66a4.12,4.12,0,0,0,2.54.92h4.14a4.12,4.12,0,0,0,2.54-.92l2.46-1.6h0C69.58,69.6215,69,68.8615,67.14,68.8615Z" fill="#ddbab6"></path><path d="M71.62,70.0015a7.8029,7.8029,0,0,1-2-.1,12.1469,12.1469,0,0,0-1.7-.34,10.5386,10.5386,0,0,0-3.3.38h-.3a13.4369,13.4369,0,0,0-3.28-.38,10.3991,10.3991,0,0,0-1.7.32,7.4674,7.4674,0,0,1-1.88,0,.3513.3513,0,0,1,0-.7,8.5224,8.5224,0,0,0,1.64-.34,14.7278,14.7278,0,0,1,1.74-.58,8.8584,8.8584,0,0,1,3.78.14H64.4a11.2547,11.2547,0,0,1,1.86-.24,7.24,7.24,0,0,1,2,.12,20.6637,20.6637,0,0,0,3.4.96.34.34,0,0,1,.32.3588v.0012a.36.36,0,0,1-.32.32Z" fill="#af8582"></path><path d="M84.62,54.3615c0,6-2.2,11.16-4.84,13.06,0,3.02-3.56,5.76-3.56,5.76v-5.18a3,3,0,0,0-2-2.9l-6.62-1.66a2.9192,2.9192,0,0,0-2.14.4,2.5,2.5,0,0,1-2.2,0,2.82,2.82,0,0,0-2.14-.4l-6.62,1.66a3.04,3.04,0,0,0-2,2.9v5.22s-3.5-2.78-3.5-5.86c-2.64-2-4.78-6.98-4.78-12.98,0,10-9.76,14.76,10.76,36.16a4.7,4.7,0,0,0,3.42,1.46h12a4.82,4.82,0,0,0,3.42-1.46C94.38,69.1415,84.62,64.4015,84.62,54.3615Zm-13.1,22.74c-2.38,0-3.62-2.44-4.7-3.52H62.1c-1.2,1.2-2.32,3.52-4.7,3.52H55v-9.88a51.316,51.316,0,0,1,18.82,0v9.88Z" fill="#333"></path><path d="M58.3818,93.0015a5.72,5.72,0,0,1-4.1259-1.77C38.3369,74.63,40.249,67.5991,42.0986,60.8A23.7146,23.7146,0,0,0,43.22,54.3813a1,1,0,1,1,2,0c0,6.0884,2.2725,10.5831,4.3838,12.1832A.9983.9983,0,0,1,50,67.3613a5.9318,5.9318,0,0,0,1.5,3.4243V68.0015a4.0386,4.0386,0,0,1,2.6582-3.84.9986.9986,0,0,1,.0986-.03l6.62-1.66a3.8559,3.8559,0,0,1,2.8681.4931,1.4916,1.4916,0,0,0,1.2344-.0024,3.8905,3.8905,0,0,1,2.8164-.5015l6.667,1.6709A4.0126,4.0126,0,0,1,77.22,68.0254v2.7812A5.77,5.77,0,0,0,78.78,67.4214a.9982.9982,0,0,1,.416-.8115C81.3945,65.0273,83.62,60.312,83.62,54.3613a1,1,0,0,1,2,0,23.8828,23.8828,0,0,0,1.12,6.44c1.8448,6.7993,3.752,13.83-12.1992,30.4331a5.8642,5.8642,0,0,1-4.1328,1.7671H58.3818ZM44.1191,60.9932c-.03.1108-.0605.2212-.09.3315-1.7822,6.55-3.4648,12.7378,11.6728,28.5249a3.7169,3.7169,0,0,0,2.6827,1.1519H70.4a3.8443,3.8443,0,0,0,2.7031-1.1573C88.2656,74.062,86.5879,67.875,84.8105,61.3247l-.0937-.3472a14.1539,14.1539,0,0,1-3.9629,6.9532c-.3379,3.2475-3.77,5.9253-3.9238,6.0434a1.0005,1.0005,0,0,1-1.61-.7925v-5.18a2.0028,2.0028,0,0,0-1.333-1.9571l-6.53-1.6333a1.89,1.89,0,0,0-1.3593.2735,1.0571,1.0571,0,0,1-.0967.0547,3.48,3.48,0,0,1-3.0811,0,1.0933,1.0933,0,0,1-.1084-.0621,1.8386,1.8386,0,0,0-1.3808-.2578l-6.5313,1.6382a2.04,2.04,0,0,0-1.2988,1.93v5.2344a1,1,0,0,1-1.6221.7832c-.15-.12-3.5341-2.8447-3.8535-6.148A14.235,14.235,0,0,1,44.1191,60.9932ZM73.82,78.1016H71.52c-2.31,0-3.6875-1.72-4.6933-2.9751-.1553-.1934-.3018-.3785-.4444-.545H62.5352c-.167.1914-.34.4073-.5206.6309-.98,1.2192-2.3232,2.8892-4.6142,2.8892H55a1,1,0,0,1-1-1v-9.88a1,1,0,0,1,.8164-.9829,52.1169,52.1169,0,0,1,19.1875,0,1,1,0,0,1,.8164.9829v9.88A1,1,0,0,1,73.82,78.1016ZM62.1,72.5815H66.82a.9993.9993,0,0,1,.707.293,12.0944,12.0944,0,0,1,.8594,1.0015c.836,1.0434,1.7832,2.2256,3.1328,2.2256H72.82V68.0591a50.1322,50.1322,0,0,0-16.82,0v8.0425h1.4c1.333,0,2.17-1.0411,3.0566-2.1426a13.5728,13.5728,0,0,1,.9356-1.0845A.9993.9993,0,0,1,62.1,72.5815Z" fill="#333"></path><path d="M64.5107,63.4922a6.1249,6.1249,0,0,1-2.9746-.7749,4.6077,4.6077,0,0,0-2.2441-.586.1137.1137,0,0,0-.0117,0,.75.75,0,0,1-.75-.7485.72.72,0,0,1,.7617-.7515,6.1132,6.1132,0,0,1,2.9746.7754,4.6019,4.6019,0,0,0,4.49-.0009,6.2653,6.2653,0,0,1,2.98-.7745H69.74a.75.75,0,0,1,.0039,1.5,4.7683,4.7683,0,0,0-2.2627.5875A6.1161,6.1161,0,0,1,64.5107,63.4922Z" fill="#af8582"></path><path d="M87.66,27.1815c-3.42-13.34-23.02-12.56-23.02-12.56a49.2774,49.2774,0,0,1,10.78-1.54c-26.78-4.9-30.42,8.44-30.42,8.44s-7.72,4.9-4,17.4c2.1,7.08,3.34,6.62,3.34,11.4v-8.86l3.66-4.44-2.16-4.7c8.54,0,10.2,7.88,20.36,7.88,0,0-7.66-4.62-10-9.24,10,0,11.34,8,22.64,10.14,0,0-5.2-4-6.62-7.68a41.681,41.681,0,0,0,9.4,4.16l3.26,4v8.82C84.78,43.7815,91.1,40.5615,87.66,27.1815Z" fill="#333"></path><path d="M84.88,51.4014a1,1,0,0,1-1-.9849c-.002-.1128-.002-.2241,0-.335v-8.144l-2.8428-3.4888a42.7451,42.7451,0,0,1-5.9717-2.354,31.8231,31.8231,0,0,0,4.3838,4.2144,1,1,0,0,1-.7959,1.7749c-5.6474-1.0694-8.9443-3.57-11.8535-5.7764-2.6523-2.0117-4.9922-3.7871-8.7119-4.2368,2.8613,3.769,8.5635,7.2354,8.6289,7.2744A1,1,0,0,1,66.2,41.2017c-5.6221,0-8.8662-2.3291-11.7285-4.3843-2.2178-1.5923-4.1787-3.0005-7.0225-3.39l1.459,3.1763a1,1,0,0,1-.1367,1.0537L45.34,41.82v8.501a1,1,0,1,1-2,0,10.34,10.34,0,0,0-1.1406-5.2285,45.6453,45.6453,0,0,1-2.1582-5.8872c-3.5029-11.7715,2.6123-17.191,4.1133-18.3116.8213-2.2426,6.2344-13.4077,31.4453-8.7963a1,1,0,0,1-.1484,1.9834q-1.5762.0491-3.1475.2016c.9111.1709,1.8623.3848,2.83.6524,7.3359,2.0273,12.0019,6.1762,13.4951,11.9975h0c2.2852,8.8906.3565,13.607-1.1934,17.396A15.602,15.602,0,0,0,85.88,50.1v.3013a1,1,0,0,1-.9922,1Zm-12.66-18.98a.9964.9964,0,0,1,.5147.1426,40.71,40.71,0,0,0,9.1748,4.06,1.0046,1.0046,0,0,1,.4863.3257l3.26,4a1.0006,1.0006,0,0,1,.2246.6318v1.2627c1.4238-3.5332,2.7949-7.7.8115-15.4135V27.43c-3.1826-12.4151-21.82-11.8115-22.0117-11.81a1.0163,1.0163,0,0,1-1.0293-.8535,1,1,0,0,1,.7392-1.1138q1.2642-.3267,2.545-.5869c-8.2334-.4048-13.2032,1.3521-16.08,3.1465a11.1149,11.1149,0,0,0-4.8916,5.5776,1.0142,1.0142,0,0,1-.4268.5752c-.2851.1846-7.02,4.7027-3.5781,16.2705.5186,1.7466.9775,3.0117,1.3818,4.02V41.4614a1.0019,1.0019,0,0,1,.2286-.6362l3.2607-3.9561-1.8975-4.13a1,1,0,0,1,.9082-1.4175c4.4063,0,7.1475,1.9683,9.7989,3.8716a19.5083,19.5083,0,0,0,6.6328,3.5342c-2.4531-1.8389-5.5606-4.545-6.9639-7.314A1.0009,1.0009,0,0,1,56.2,29.9614c5.543,0,8.5859,2.3086,11.8086,4.7525a28.55,28.55,0,0,0,6.9521,4.2392,16.8417,16.8417,0,0,1-3.6738-5.1719,1,1,0,0,1,.9326-1.36Z" fill="#333"></path></g></g></g></g></svg>