<svg xmlns="http://www.w3.org/2000/svg" viewBox="0 0 128 128"><title>vol-08$set-030@young-girl-plaid-ponytail-glasses-blond</title><g id="vol-08_set-030_young-girl-plaid-ponytail-glasses-blond" data-name="vol-08$set-030@young-girl-plaid-ponytail-glasses-blond"><path d="M85.32,75.3073c2.8-7.46,3.16-11.54-2-21H81.14v21Z" fill="#e2b074"></path><path d="M85.32,76.4893H81.14a1.1816,1.1816,0,0,1-1.1811-1.1817v-21A1.1815,1.1815,0,0,1,81.14,53.126h2.18a1.181,1.181,0,0,1,1.0786.7C89.4971,65.248,89.83,68.95,86.3755,75.8369A1.1817,1.1817,0,0,1,85.32,76.4893ZM82.3213,74.126H84.585c2.541-5.2588,2.5766-8.1856-2.0332-18.6367h-.2305Z" fill="#333"></path><path d="M112.02,99.0073a11.64,11.64,0,0,0-8.6-9.02l-8.98-2.24a125.657,125.657,0,0,0-30.52-3.76h-.18a126.6965,126.6965,0,0,0-30.42,3.76l-8.98,2.24a11.7,11.7,0,0,0-8.6,9.02l-.74,3.8.2.12a119.5007,119.5007,0,0,0,48.64,10.22,120.0012,120.0012,0,0,0,48.6-10.14h0Z" fill="#c48c9e"></path><path d="M103.42,95.2873l-8.98-2.28a125.657,125.657,0,0,0-30.52-3.76h-.18a126.6965,126.6965,0,0,0-30.42,3.76l-8.98,2.24a11.68,11.68,0,0,0-8.3,8,120.28,120.28,0,0,0,48,9.88,120.4412,120.4412,0,0,0,47.78-10A11.62,11.62,0,0,0,103.42,95.2873Z" fill="#bc8090"></path><path d="M17.1,100.6473a11.46,11.46,0,0,0-1.16,2.58c.38.16.78.3,1.16.48Z" fill="#816a89"></path><path d="M111.6,103.2673h.12l-.12-.46Z" fill="#816a89"></path><path d="M109.92,94.2073h-4.6v-3.66a10.4817,10.4817,0,0,0-1.88-.66L99,88.8073v5.4H92.7v-6.3h2.86l-1.12-.26a125.657,125.657,0,0,0-30.52-3.76h-.18a126.6965,126.6965,0,0,0-30.42,3.76l-1.1.26H36.1v6.3H29.7v-5.68l-5.46,1.36-.84.28v4H17.76a11.9994,11.9994,0,0,0-2.12,4.7l-.64,3.94.2.12,2,.82v-3.2h6.12v5.64a119.9986,119.9986,0,0,0,40.44,6.96,120.3015,120.3015,0,0,0,41.56-7.36v-5.28h6.3v2.76l.84-.36h0l-.52-4A11.6,11.6,0,0,0,109.92,94.2073Zm-74,12.6H29.7v-6.3H36Zm12.6,0H42.3v-6.3h6.3Zm0-12.6H42.3v-6.3h6.3Zm12.6,12.6H55v-6.3h6.2Zm0-12.6H55v-6.3h6.2Zm12.6,12.6H67.5v-6.3h6.3Zm0-12.6H67.5v-6.3h6.3Zm12.6,12.6H80.1v-6.3h6.3Zm0-12.6H80.1v-6.3h6.3Zm12.68,12.6H92.7v-6.3H99Z" fill="#877496"></path><path d="M105.32,100.5073h5.2a11.58,11.58,0,0,0-7.08-5.22l-4.44-1.1H92.7v-1.56q-3.16-.72-6.3-1.32v2.9H80.1v-3.86c-2-.28-4.2-.48-6.3-.66v4.52H67.5v-4.86H61.2v4.86H55v-4.58c-2.1.14-4.2.34-6.3.58v4H42.3v-3.06q-3.18.54-6.3,1.26v1.8H29.7v-.28l-5.46,1.36a11.64,11.64,0,0,0-7.08,5.22h6.16v5.64a119.9986,119.9986,0,0,0,40.44,6.96,120.2816,120.2816,0,0,0,41.56-7.34Zm-69.32,6.3H29.7v-6.3H36Zm12.6,0H42.3v-6.3h6.3Zm12.6,0H55v-6.3h6.2Zm12.6,0H67.5v-6.3h6.3Zm12.6,0H80.1v-6.3h6.3Zm12.6,0H92.7v-6.3H99Z" fill="#816a89"></path><rect x="61.2" y="106.8073" width="6.3" height="6.3" fill="#4e5f80"></rect><rect x="48.6" y="94.2073" width="6.3" height="6.3" fill="#4e5f80"></rect><rect x="48.6" y="106.8073" width="6.3" height="6.3" fill="#4e5f80"></rect><rect x="36" y="94.2073" width="6.3" height="6.3" fill="#4e5f80"></rect><path d="M42.3,85.7473c-2.12.36-4.22.78-6.3,1.24v.92h6.3Z" fill="#4e5f80"></path><path d="M42.3,111.1873v-4.38H36v3.06Q39.12,110.6473,42.3,111.1873Z" fill="#4e5f80"></path><rect x="23.4" y="94.2073" width="6.3" height="6.3" fill="#617799"></rect><path d="M29.7,94.2073H28.54l-4.3,1.08-.84.28v4.94h6.3Z" fill="#4e5f80"></path><rect x="73.8" y="94.2073" width="6.3" height="6.3" fill="#4e5f80"></rect><rect x="73.8" y="106.8073" width="6.3" height="6.3" fill="#4e5f80"></rect><rect x="99" y="94.2073" width="6.3" height="6.3" fill="#617799"></rect><path d="M105.32,95.9473a14.9336,14.9336,0,0,0-1.88-.66l-4.28-1.08H99v6.3h6.3Z" fill="#4e5f80"></path><path d="M51.74,72.1673v13.64c3.16,8.4,7.48,13.64,12.6,16.8,5.14-3.16,8.4-8.4,11.56-16.8v-13.64Z" fill="#fbd3ca"></path><path d="M51.74,71.9873v5.42l9.58,10.34a10.34,10.34,0,0,1,3.02,6.46v8.4c5.14-3.16,8.42-8.62,11.56-14.7v-16Z" fill="#f3cac2"></path><rect x="62.8398" y="102.6074" width="3" height="10.5" fill="#333"></rect><path d="M64.2593,114.6084c-.22,0-.4419-.002-.66-.001A120.2153,120.2153,0,0,1,14.6528,104.26a1.4954,1.4954,0,0,1-.166-.0869l-.2-.12a1.5,1.5,0,0,1-.7065-1.5322l.1035-.6465c.5766-3.6748,1.7773-11.3232,10.2519-13.4414a189.1111,189.1111,0,0,1,22.84-4.9092l.4472,2.9668a185.9824,185.9824,0,0,0-22.518,4.8418c-6.314,1.5791-7.4219,7.0244-7.9868,10.5567a117.2293,117.2293,0,0,0,46.8881,9.7187c.2139,0,.43.001.6446.001a117.73,117.73,0,0,0,46.5913-9.5449c-.4307-4.2022-1.8072-9.0313-7.8843-10.54-9.1294-2.2871-12.9072-3.17-22.7549-4.8789l.5127-2.955c9.9483,1.7255,13.7608,2.6162,22.9683,4.9228,9.1938,2.2832,9.9453,10.8516,10.1924,13.667.019.2178.0346.4033.0522.5488a1.5008,1.5008,0,0,1-.8867,1.5528A120.7643,120.7643,0,0,1,64.2593,114.6084Z" fill="#333"></path><path d="M76.44,80.5473l5.76,4.26v17.8l-11.02-6.3C74.28,92.0473,75.58,87.0073,76.44,80.5473Z" fill="#8d7796"></path><path d="M82.2,104.127a1.4986,1.4986,0,0,1-.772-.2139l-10.5-6.3,1.544-2.5723L80.7,99.9775V85.4893l-4.6963-3.75,1.8721-2.3438,5.26,4.2a1.4988,1.4988,0,0,1,.564,1.1719V102.627a1.4989,1.4989,0,0,1-1.5,1.5Z" fill="#333"></path><path d="M51.74,80.5673l-6.3,4.24v17.8l10.5-6.3C52.84,92.0473,52.6,87.0073,51.74,80.5673Z" fill="#8d7796"></path><path d="M64.42,104.0469a1.499,1.499,0,0,1-.8408-.2578C55.1855,98.1074,51.0737,91.21,49.83,80.7236l2.98-.3535c1.102,9.2979,4.4868,15.2656,11.6059,20.3477,6.8257-4.93,9.9678-10.7276,11.1153-20.3487l2.9785.3555C77.2168,91.5635,73.38,98.2451,65.2656,103.7852A1.4931,1.4931,0,0,1,64.42,104.0469Z" fill="#333"></path><path d="M45.44,104.127a1.4991,1.4991,0,0,1-1.5-1.5V84.7676a1.4992,1.4992,0,0,1,.668-1.2481l6.3-4.2,1.6641,2.4961L46.94,85.57V99.9775L55.168,95.041l1.5439,2.5723-10.5,6.3A1.4986,1.4986,0,0,1,45.44,104.127Z" fill="#333"></path><rect x="75.4399" y="78.4678" width="3" height="4.1992" fill="#333"></rect><path d="M64.34,84.8073a10.62,10.62,0,0,0,9.46-3.6c5.86-6,10.5-9.46,10.5-15.76v-3.22c4.2,0,5.8-4.32,6.3-8.4.58-4.82-.56-8.4-4.2-8.4v-4.2c0-11.38-5.18-21-22-21s-22,9.62-22,21v4.2c-3.64,0-4.8,3.58-4.2,8.4.5,4,2,8.4,6.3,8.4v3.14c0,6.3,4.64,9.66,10.5,15.76a10.58,10.58,0,0,0,9.34,3.68" fill="#fbd3ca"></path><path d="M86.4,45.4273v-4.2c0-11.38-5.18-21-22-21a39.6538,39.6538,0,0,0-5.76.42v22.46a8.2,8.2,0,0,1-2.66,6,.92.92,0,0,0,.42,1.62,5.36,5.36,0,0,1,3.9,4,1,1,0,0,0,1.62.6,3.54,3.54,0,0,1,1.2-.66,1.02,1.02,0,0,1,1.2395.7379l.0005.0021a1.1772,1.1772,0,0,1,0,.26v4.32a2.26,2.26,0,0,0,1.3,2c1.22.68.3,2.9-1.24,2.9s-1.88-1.04-4.18-1.04a.76.76,0,0,0-.62.8777l0,.0023a.72.72,0,0,0,.62.62c1.82,0,1.88,1.02,4.12,1.04v8.42a.82.82,0,0,0,.66.78c2.74.64,4.2,5.2-.66,6.18-2.28.46-5.34-2-6.4,0v1.86a11.24,11.24,0,0,0,6.44,1.22,10.62,10.62,0,0,0,9.46-3.6c5.86-6,10.5-9.46,10.5-15.76v-3.26c4.2,0,5.8-4.32,6.3-8.4C91.18,49.0073,90.04,45.4273,86.4,45.4273Z" fill="#f3cac2"></path><path d="M65.7,78.2178H63a.75.75,0,0,1,0-1.5h2.7a.75.75,0,0,1,0,1.5Z" fill="#eabfb9"></path><path d="M64.4,68.5869a.5.5,0,0,1-.5-.5v-1.54a.5.5,0,0,1,1,0v1.54A.5.5,0,0,1,64.4,68.5869Z" fill="#eabfb9"></path><path d="M64.4,67.2969A4.7612,4.7612,0,0,1,61.9868,66.7a3.3344,3.3344,0,0,0-1.7666-.4434.75.75,0,0,1,0-1.5,4.7977,4.7977,0,0,1,2.4351.6006,3.3073,3.3073,0,0,0,1.7446.4395,3.1365,3.1365,0,0,0,1.6948-.4307,4.725,4.725,0,0,1,2.4654-.6094.75.75,0,0,1,0,1.5,3.2766,3.2766,0,0,0-1.7837.4453A4.5723,4.5723,0,0,1,64.4,67.2969Z" fill="#ba8d86"></path><path d="M57.86,74.42a.5231.5231,0,0,1-.1905-.0361.5134.5134,0,0,1-.2856-.667l.6-1.5a.5127.5127,0,1,1,.9521.3809l-.6,1.5A.513.513,0,0,1,57.86,74.42Z" fill="#eabfb9"></path><path d="M70.84,72.62a.5119.5119,0,0,1-.4687-.3037l-.6-1.34a.5128.5128,0,0,1,.9365-.418l.6,1.34a.513.513,0,0,1-.4678.7217Z" fill="#eabfb9"></path><path d="M65.84,70.3473c-1.02.22-1,.4-1.64.4s-.4-.34-1.42-.4c-2.26-.14-2.24,1.76-4.92,2.76,2.42,1.06,2.4,2.3,5.2,2.3a9.381,9.381,0,0,0,3.08-.26c1.24-.3,2-.48,4.36-3.8C67.46,71.3473,67.58,69.9473,65.84,70.3473Z" fill="#e2b8b5"></path><path d="M58.5,73.6a.5127.5127,0,0,1,0-1.0254,5.0943,5.0943,0,0,0,1.729-.3379A5.5514,5.5514,0,0,1,64.2,72.21a10.418,10.418,0,0,1,3.2983-.4141c1.106,0,1.7735,0,2.4634-.7539a.5126.5126,0,0,1,.7569.6914,3.72,3.72,0,0,1-3.22,1.0879,9.31,9.31,0,0,0-3.14.4131l-.1572.0517-.1577-.0507a4.6734,4.6734,0,0,0-3.4942-.0245A6.1169,6.1169,0,0,1,58.5,73.6Z" fill="#ba8d86"></path><path d="M65.769,86.4033a12.3281,12.3281,0,0,1-1.44-.0849A12.06,12.06,0,0,1,53.854,82.0947c-.91-.9424-1.85-1.88-2.7393-2.7676C46.5811,74.8057,43,71.2344,43,65.3672v-1.791c-2.6494-.5586-5.4468-2.8311-6.2881-9.5625-.4658-3.7432.0879-6.627,1.6016-8.3408A5.0374,5.0374,0,0,1,40.9,44.1074v-2.88c0-10.2646,4.0772-22.5,23.5-22.5s23.5,12.2354,23.5,22.5v2.88A5.0219,5.0219,0,0,1,90.47,45.66c1.5112,1.7041,2.0713,4.59,1.6192,8.3466-.6739,5.4991-2.8848,8.83-6.29,9.5655v1.875c0,5.9677-3.6929,9.6211-8.3682,14.2461-.8169.8086-1.6738,1.6562-2.5586,2.5615A11.9919,11.9919,0,0,1,65.769,86.4033ZM64.34,83.3076a1.5169,1.5169,0,0,1,.1993.0137,9.0923,9.0923,0,0,0,8.1235-3.0928c.9614-.9883,1.8306-1.8486,2.6592-2.668,4.5029-4.455,7.478-7.3974,7.478-12.1132v-3.22a1.5,1.5,0,0,1,1.5-1.5c3.2593,0,4.4155-3.8515,4.8115-7.083.336-2.7939.0137-4.98-.8857-5.9941A2.264,2.264,0,0,0,86.4,46.9277a1.5,1.5,0,0,1-1.5-1.5v-4.2c0-12.9394-6.897-19.5-20.5-19.5s-20.5,6.5606-20.5,19.5v4.2a1.5,1.5,0,0,1-1.5,1.5,2.2749,2.2749,0,0,0-1.8379.7315c-.9014,1.02-1.22,3.2012-.8735,5.9824.5879,4.7022,2.2065,7.0859,4.8115,7.0859a1.5,1.5,0,0,1,1.5,1.5v3.14c0,4.6221,2.8774,7.4922,7.2334,11.8359.9038.9024,1.8589,1.8545,2.8481,2.8848a9.1207,9.1207,0,0,0,8.0806,3.23A1.53,1.53,0,0,1,64.34,83.3076Z" fill="#333"></path><circle cx="69.6" cy="106.8473" r="1.32" fill="#333"></circle><path d="M80.84,82.1473a2.3,2.3,0,0,1-1.1-.22,2.7,2.7,0,0,1-1.4-3.54h0a5.18,5.18,0,0,1,6.832-2.6435l.008.0035h0a2.72,2.72,0,0,1-1.6718,5.1767q-.1056-.0341-.2082-.0767A2.68,2.68,0,0,1,80.84,82.1473Z" fill="#d67a16"></path><path d="M81.0034,83.6523c-.0576,0-.1152-.0009-.1733-.0039a3.7716,3.7716,0,0,1-1.731-.3642,4.2009,4.2009,0,0,1-2.1377-5.4883,6.68,6.68,0,0,1,8.7471-3.4541,4.2211,4.2211,0,0,1-1.855,8.1865A4.1626,4.1626,0,0,1,81.0034,83.6523ZM80.84,80.6475c.03,0,.06.0009.0894.0029a1.1967,1.1967,0,0,0,1.083-.5723,1.4992,1.4992,0,0,1,1.8618-.6162l.0957.0342a1.22,1.22,0,1,0,.7491-2.3213c-.0494-.0166-.106-.0381-.1539-.0586a3.6794,3.6794,0,0,0-4.853,1.8779,1.2005,1.2005,0,0,0,.6289,1.56.9634.9634,0,0,0,.4258.0957C80.791,80.6484,80.8154,80.6475,80.84,80.6475Z" fill="#333"></path><path d="M79.9,103.1073a30.16,30.16,0,0,1,1.42,9.7,34.1,34.1,0,0,0,10.32-5.62,20.7,20.7,0,0,0,6.78-10c2.14-7.58-3.48-16.96-11.1-16.74C76.28,80.8073,78.06,96.2673,79.9,103.1073Z" fill="#e2b074"></path><path d="M83.48,103.8673c-1.84-6.86-3.6-22.32,7.52-22.62h.42a9.18,9.18,0,0,0-4-.8c-11.04.3-9.26,15.8-7.42,22.64a30.28,30.28,0,0,1,1.42,9.72c1.2-.44,2.4-.94,3.58-1.48A38.0037,38.0037,0,0,0,83.48,103.8673Z" fill="#efc495"></path><path d="M81.32,114.3076a1.5,1.5,0,0,1-1.5-1.5273,28.5637,28.5637,0,0,0-1.3491-9.2168l-.0195-.0664c-.3858-1.4336-3.6275-14.2012,1.2641-20.8028a9.2856,9.2856,0,0,1,7.5557-3.7461,11.9213,11.9213,0,0,1,9.6821,4.9473,15.78,15.78,0,0,1,2.91,13.6992,22.1436,22.1436,0,0,1-7.2813,10.76A35.53,35.53,0,0,1,81.8,114.2285,1.5058,1.5058,0,0,1,81.32,114.3076Zm.02-11.6221a31.5739,31.5739,0,0,1,1.4444,7.9756,32.527,32.527,0,0,0,7.9223-4.6474,19.1283,19.1283,0,0,0,6.28-9.2686A12.899,12.899,0,0,0,94.5874,85.74a8.96,8.96,0,0,0-7.2241-3.7939,6.343,6.343,0,0,0-5.2378,2.5342C78.8423,88.9121,80.083,97.9922,81.34,102.6855Z" fill="#333"></path><path d="M82.36,53.7073H79.84a3.42,3.42,0,0,0-2-.86h-8.3a3.28,3.28,0,0,0-2.46,1.1,4.4586,4.4586,0,0,0-.72,1.12,4.72,4.72,0,0,0-3.54,0,3.16,3.16,0,0,0-.72-1.12,3.36,3.36,0,0,0-2.44-1.14H51.42a3.42,3.42,0,0,0-2.1.88h-2.6v.52a1.42,1.42,0,0,0,1.42,1.42,4.6423,4.6423,0,0,0-.14,1.04v1.26a5.86,5.86,0,0,0,5.56,6h3.6a4.16,4.16,0,0,0,3.5-2l2-3.12a4,4,0,0,0,.56-1.7,2.74,2.74,0,0,1,2.96,0,3.5406,3.5406,0,0,0,.54,1.68l2,3.2a4.12,4.12,0,0,0,3.5,2h3.56a5.82,5.82,0,0,0,5.52-6v-1.18a3.2,3.2,0,0,0-.12-1.06l1.36-1.38Z" fill="#edc1bc"></path><path d="M78,52.4873H69.32a2.5,2.5,0,0,0-1.84.82,3.34,3.34,0,0,0-.36,4l2,3.36a3.4,3.4,0,0,0,2.84,1.7h3.76a5.12,5.12,0,0,0,4.8421-5.3836l-.0021-.0364v-1.36a2.88,2.88,0,0,0-2.56-3.06" fill="#fce0da"></path><path d="M69.68,56.1473c1.16-.66,3.86-3.84,7.72-.66l.9-.28a6.6,6.6,0,0,0-6-.74" fill="#6c7881"></path><path d="M69.6807,56.6514a.5038.5038,0,0,1-.2495-.9414,6.4729,6.4729,0,0,0,.6093-.4317,9.82,9.82,0,0,1,1.981-1.23.5155.5155,0,0,1,.104-.0528c.0679-.0244.1357-.0488.2036-.0713a5.0321,5.0321,0,0,1,1.3076-.3027,7.1231,7.1231,0,0,1,4.9468,1.17.5033.5033,0,0,1-.1338.8965l-.9.28a.5017.5017,0,0,1-.47-.0918A4.6534,4.6534,0,0,0,73.9277,54.6a6.0645,6.0645,0,0,0-1.4536.3408.3218.3218,0,0,1-.041.0127,9.0942,9.0942,0,0,0-1.7861,1.13,7.4246,7.4246,0,0,1-.7178.502A.5.5,0,0,1,69.6807,56.6514Z" fill="#6c7881"></path><circle cx="73.26" cy="55.7673" r="1.5" fill="#6c7881"></circle><path d="M66.0151,56.2236a2.9314,2.9314,0,0,0-3.85,0l-1.37-1.5918a5.02,5.02,0,0,1,6.59,0Z" fill="#333"></path><path d="M52.4,62.2073h3.76a3.36,3.36,0,0,0,2.84-1.68l2-3.52a3.3,3.3,0,0,0-.38-3.88,2.48,2.48,0,0,0-1.78-.7H50.18a2.86,2.86,0,0,0-2.68,3v1.32a5.14,5.14,0,0,0,4.84,5.4h0" fill="#fce0da"></path><path d="M48.26,54.457H46.34a1.05,1.05,0,0,1,0-2.1h1.92a1.05,1.05,0,0,1,0,2.1Z" fill="#333"></path><path d="M81.74,54.457H79.8a1.05,1.05,0,0,1,0-2.1h1.94a1.05,1.05,0,0,1,0,2.1Z" fill="#333"></path><path d="M64.34,16.5073c-18,0-26.12,14.92-26.12,23.18,0,7.24,6.18,9.1,6.18,14.64v-6.42c16.42-.1,21.86-2.58,26-8a1.36,1.36,0,0,1,1.88-.26l.26.26c2.16,2.96,5.4,5.54,11.7,7.64v6.7c0-4.62,6.18-7.4,6.18-14.64C90.48,31.4273,82.42,16.5073,64.34,16.5073Z" fill="#e2b074"></path><path d="M46.44,43.8473a44.2623,44.2623,0,0,0,7.34-2,45.6018,45.6018,0,0,0,6.86-3.04,68.4184,68.4184,0,0,0,6.4-4,60.4708,60.4708,0,0,0,6-4.84.5.5,0,0,1,.68,0h0a.54.54,0,0,1,0,.64,50.0015,50.0015,0,0,1-5.54,5.54,36,36,0,0,1-6.48,4.5,36.1806,36.1806,0,0,1-15.16,4.16.5.5,0,0,1-.5-.46A.52.52,0,0,1,46.44,43.8473Z" fill="#efc495"></path><path d="M49.76,38.8073a87.72,87.72,0,0,0,12.38-2.94,31.8818,31.8818,0,0,0,5.74-2.38,27.6211,27.6211,0,0,0,5.12-3.68.5.5,0,0,1,.68,0,.54.54,0,0,1,0,.64,23.18,23.18,0,0,1-10.86,7.4,51.4817,51.4817,0,0,1-12.94,1.88.4645.4645,0,0,1-.12-.92Z" fill="#efc495"></path><path d="M64.34,16.5073c-18,0-26.12,14.92-26.12,23.18,0,5.58,3.64,8,5.34,11.28v-1.78c-5.94-22.18,16.78-32.62,32.68-30.18A27.76,27.76,0,0,0,64.34,16.5073Z" fill="#efc495"></path><path d="M83.62,54.3273a7.28,7.28,0,0,1,.98-3.52c.58-1.06,1.24-2,1.88-2.96a16.1391,16.1391,0,0,0,2.84-6,13.9994,13.9994,0,0,0-.32-6.18,23.9973,23.9973,0,0,0-2.64-6,24.46,24.46,0,0,0-9.52-8.86,28,28,0,0,0-24.98,0,24.76,24.76,0,0,0-9.32,8.8,23.9973,23.9973,0,0,0-2.64,6,13.641,13.641,0,0,0-.44,6.28,14.821,14.821,0,0,0,2.94,5.68,10.94,10.94,0,0,1,2.6,6.76h0a.68.68,0,0,1-.6994.66H44.3a.68.68,0,0,1-.66-.68c0-4.26-5.08-6.8-6.2-12a15.72,15.72,0,0,1,.3-7.3,26.64,26.64,0,0,1,12.74-16.7,28,28,0,0,1,13.84-3.3,28,28,0,0,1,13.82,3.5A26.9,26.9,0,0,1,91,35.1073a16,16,0,0,1,.26,7.26,17.7992,17.7992,0,0,1-3.32,6.44,10.8,10.8,0,0,0-2.94,5.6.68.68,0,0,1-1.36,0Z" fill="#333"></path><path d="M44.36,47.2273l9.2-1.14a40.5847,40.5847,0,0,0,8.72-2,21.06,21.06,0,0,0,7.4-4.38,47.4245,47.4245,0,0,0,6-6.82h0a.7.7,0,0,1,.98,0,.68.68,0,0,1,.18.76,37.6187,37.6187,0,0,1-5.38,7.84,18.88,18.88,0,0,1-8.14,5.52,38.3007,38.3007,0,0,1-9.5,1.52c-3.14.14-6.24.12-9.34,0a.7.7,0,0,1-.68-.7A.68.68,0,0,1,44.36,47.2273Z" fill="#333"></path><path d="M72.16,39.2273a22.1216,22.1216,0,0,0,5.66,4.72c1.06.64,2,1.32,3.18,2a33.54,33.54,0,0,0,3.44,1.64.54.54,0,0,1,.2851.7085l-.0051.0115h0a.56.56,0,0,1-.56.34,19.5782,19.5782,0,0,1-4-.88,14.8387,14.8387,0,0,1-3.7-1.72,15.6406,15.6406,0,0,1-5.14-6.14.54.54,0,0,1,.26-.7h0A.58.58,0,0,1,72.16,39.2273Z" fill="#333"></path><rect x="50.2402" y="77.4072" width="3" height="6.2998" fill="#333"></rect><path d="M47,50.8073a9.5,9.5,0,0,1,6.4-1.02c1.08.14,2.14.36,3.16.58a27.46,27.46,0,0,0,3,.6h0a1.02,1.02,0,0,1,.88,1.12h0a1.02,1.02,0,0,1-1.14.88h-.12c-1.14-.3-2-.68-3.08-1.02s-2-.66-2.94-.9a15.1045,15.1045,0,0,0-2.98-.44,4.46,4.46,0,0,0-2.78.78.36.36,0,0,1-.5-.5Z" fill="#333"></path><path d="M58.46,56.0873c-1.16-.66-3.86-3.84-7.72-.66l-.9-.28a6.54,6.54,0,0,1,6-.74" fill="#6c7881"></path><path d="M58.46,56.5908a.4969.4969,0,0,1-.2481-.0664,7.4,7.4,0,0,1-.72-.5029,9.0522,9.0522,0,0,0-1.7881-1.1289c-.0132-.0039-.0268-.0088-.04-.0137a6.0085,6.0085,0,0,0-1.3653-.335,4.6017,4.6017,0,0,0-3.2378,1.2725.5046.5046,0,0,1-.47.0918l-.9-.28a.5035.5035,0,0,1-.1357-.8955,7.0476,7.0476,0,0,1,5.104-1.1553,5.1188,5.1188,0,0,1,1.1079.2706c.084.0273.167.0566.25.0878a.5207.5207,0,0,1,.104.0528,9.7289,9.7289,0,0,1,1.978,1.2295,6.5856,6.5856,0,0,0,.6109.4316.5036.5036,0,0,1-.25.9414Z" fill="#6c7881"></path><path d="M80.14,51.3273a4.4,4.4,0,0,0-2.82-.76,15.0791,15.0791,0,0,0-3,.44,29.389,29.389,0,0,0-2.94.9c-.94.34-2,.72-3.1,1a1,1,0,0,1-1.2125-.7279l-.0075-.0321a1.04,1.04,0,0,1,.76-1.22h.16a24.97,24.97,0,0,0,3.02-.58c1.04-.22,2-.42,3.16-.56a9.26,9.26,0,0,1,6.4.98.36.36,0,0,1,0,.5h0a.34.34,0,0,1-.46.12h0Z" fill="#333"></path><circle cx="54.86" cy="55.7073" r="1.5" fill="#6c7881"></circle><path d="M52.4,63.417a6.1881,6.1881,0,0,1-5.8706-6.5108l.001-1.2988a3.8069,3.8069,0,0,1,.8828-2.7617,3.8837,3.8837,0,0,1,2.644-1.4014c.0327-.0039.09-.0068.1231-.0068h8.7a3.66,3.66,0,0,1,2.5884,1.1543,4.3871,4.3871,0,0,1,.4814,5.2734l-1.9873,3.3389a4.4415,4.4415,0,0,1-3.7065,2.2129Zm-2.1777-9.88a1.8081,1.8081,0,0,0-1.5967,1.9707l.0044,1.42c0,.0274-.0034.0918-.0054.1182a4.0719,4.0719,0,0,0,3.835,4.2734l3.7607-.0019A2.3446,2.3446,0,0,0,58.1523,60.14l2.0054-3.3691a2.2834,2.2834,0,0,0-.2334-2.7549,1.5268,1.5268,0,0,0-1.0713-.4785Z" fill="#333"></path><path d="M71.96,63.417a4.4328,4.4328,0,0,1-3.75-2.2256l-1.9926-3.3467a4.4033,4.4033,0,0,1,.4834-5.2412,3.5564,3.5564,0,0,1,2.6142-1.166H78a1.0927,1.0927,0,0,1,.1128.0059,3.9073,3.9073,0,0,1,3.4936,4.23l.0035,1.2744a6.1706,6.1706,0,0,1-5.834,6.4687Zm-2.64-9.88a1.4489,1.4489,0,0,0-1.062.4756,2.3,2.3,0,0,0-.2456,2.7412l2.01,3.376a2.338,2.338,0,0,0,1.97,1.1875H75.72a4.0663,4.0663,0,0,0,3.7935-4.2783L79.51,55.5869a1.8484,1.8484,0,0,0-1.5733-2.05Z" fill="#333"></path><path d="M42.58,31.4073a41.0985,41.0985,0,0,1,14.16-6.82,47.5,47.5,0,0,1,15.28-1.78,46.32,46.32,0,0,0-14.7,3.2,39.0016,39.0016,0,0,0-12.68,7.66,1.5,1.5,0,1,1-2.42-1.76,1.6,1.6,0,0,1,.42-.4Z" fill="#efc495"></path></g></svg>